<?xml version="1.0" standalone="no"?>
<!DOCTYPE svg PUBLIC "-//W3C//DTD SVG 1.1//EN" "http://www.w3.org/Graphics/SVG/1.1/DTD/svg11.dtd" >
<svg xmlns="http://www.w3.org/2000/svg" xmlns:xlink="http://www.w3.org/1999/xlink" version="1.1">
<metadata>
Created by FontForge 20190801 at Wed Jan 18 14:38:27 2006
 By www-data
Copyright (c) Village Type &#38; Design LLC. All rights reserved.
</metadata>
<defs>
<font id="ApexNewHeavy" horiz-adv-x="600" >
  <font-face 
    font-family="ApexNewHeavy"
    font-weight="650"
    font-stretch="normal"
    units-per-em="1000"
    panose-1="2 1 6 0 4 5 1 1 1 3"
    ascent="750"
    descent="-250"
    x-height="500"
    cap-height="750"
    bbox="-210 -270 1572 1065"
    underline-thickness="25"
    underline-position="-99"
    unicode-range="U+0020-FF3F"
  />
<missing-glyph horiz-adv-x="649" 
d="M403 293h-156v242h156v-242zM325 47q-143 0 -275 -57v166q124 52 275 52t275 -52v-166q-132 57 -275 57zM515 760q41 0 68 -27t27 -68q0 -40 -27.5 -67.5t-67.5 -27.5t-67.5 27.5t-27.5 67.5t27.5 67.5t67.5 27.5zM135 760q40 0 67.5 -27.5t27.5 -67.5t-27.5 -67.5
t-67.5 -27.5t-67.5 27.5t-27.5 67.5q0 41 27 68t68 27z" />
    <glyph glyph-name="interrobang" unicode="&#x21;&#x3f;" horiz-adv-x="766" 
d="M466 442q27 2 40 5t25.5 13t18.5 29q9 28 -6 49t-65 37q-36 12 -88.5 18t-88.5 0l51 167q111 0 196 -27q78 -24 125.5 -57t63.5 -72t15.5 -74.5t-14.5 -79.5q-12 -37 -30 -64t-34.5 -41t-46.5 -24t-48 -13t-56 -8q-33 -4 -48.5 -16t-24.5 -39q-7 -22 -10 -40l-102 32
l-105 -37l-222 472l211 77l104 -394q15 39 46 59.5t93 27.5zM232 94q0 46 32 78t78 32t78 -32t32 -78t-32 -78t-78 -32t-78 32t-32 78z" />
    <glyph glyph-name="f_b" unicode="fb" horiz-adv-x="957" 
d="M564 0h-130v610h-17q-138 0 -138 -76v-34h116v-149h-116v-351h-196v351h-79v122l79 22v38q0 54 19 96t49.5 67t73.5 41.5t86.5 22.5t93.5 6q129 0 225 -28v-249q52 27 113 27q100 0 148.5 -62.5t48.5 -203.5t-48.5 -203.5t-148.5 -62.5q-85 0 -158 49zM630 352v-205
q22 -15 53 -15q38 0 51.5 26t13.5 92q0 65 -13.5 91t-51.5 26q-31 0 -53 -15z" />
    <glyph glyph-name="f_f_b" unicode="ffb" horiz-adv-x="1308" 
d="M915 0h-130v610h-17q-138 0 -138 -76v-34h116v-149h-116v-351h-196v351h-155v-351h-196v351h-79v122l79 22v38q0 54 19 96t49.5 67t73.5 41.5t86.5 22.5t93.5 6q107 0 195 -20q70 20 156 20q129 0 225 -28v-249q52 27 113 27q100 0 148.5 -62.5t48.5 -203.5t-48.5 -203.5
t-148.5 -62.5q-84 0 -158 49zM981 352v-205q23 -15 53 -15q38 0 51.5 26t13.5 92q0 65 -13.5 91t-51.5 26q-30 0 -53 -15zM279 535v-35h155v33q0 45 11 77q-6 0 -16 0.5t-12 0.5q-138 0 -138 -76z" />
    <glyph glyph-name="f_h" unicode="fh" horiz-adv-x="956" 
d="M405 766q129 0 225 -28v-248q54 26 119 26q102 0 140.5 -46t38.5 -129v-341h-196v323q0 40 -38 40q-35 0 -64 -18v-345h-196v610h-17q-138 0 -138 -76v-34h116v-149h-116v-351h-196v351h-79v122l79 22v38q0 54 19 96t49.5 67t73.5 41.5t86.5 22.5t93.5 6z" />
    <glyph glyph-name="f_f_h" unicode="ffh" horiz-adv-x="1307" 
d="M405 766q107 0 195 -20q70 20 156 20q129 0 225 -28v-248q54 26 119 26q102 0 140.5 -46t38.5 -129v-341h-196v323q0 40 -38 40q-35 0 -64 -18v-345h-196v610h-17q-138 0 -138 -76v-34h116v-149h-116v-351h-196v351h-155v-351h-196v351h-79v122l79 22v38q0 54 19 96
t49.5 67t73.5 41.5t86.5 22.5t93.5 6zM279 535v-35h155v33q0 45 11 77q-6 0 -16 0.5t-12 0.5q-138 0 -138 -76z" />
    <glyph glyph-name="f_j" unicode="fj" horiz-adv-x="668" 
d="M342 -266v159q54 0 73 20.5t19 63.5v374h-155v-351h-196v351h-79v122l79 22v38q0 54 19 96t49 67t73 41.5t86.5 22.5t93.5 6q122 0 226 -28v-155q-98 26 -199 26q-152 0 -152 -79v-30h351v-560q0 -105 -80 -155.5t-208 -50.5z" />
    <glyph glyph-name="f_f_j" unicode="ffj" horiz-adv-x="1019" 
d="M693 -266v159q54 0 73 20.5t19 63.5v374h-155v-351h-196v351h-155v-351h-196v351h-79v122l79 22v38q0 54 19 96t49.5 67t73.5 41.5t86.5 22.5t93.5 6q107 0 195 -20q69 20 155 20q122 0 226 -28v-155q-98 26 -199 26q-152 0 -152 -79v-30h351v-560q0 -105 -80 -155.5
t-208 -50.5zM279 535v-35h155v33q0 45 11 77q-6 0 -16 0.5t-12 0.5q-138 0 -138 -76z" />
    <glyph glyph-name="f_k" unicode="fk" horiz-adv-x="971" 
d="M630 738l-5 -397l105 159h231l-178 -212l193 -288h-237l-90 177l-23 -33l4 -144h-196v610h-17q-138 0 -138 -76v-34h116v-149h-116v-351h-196v351h-79v122l79 22v38q0 54 19 96t49.5 67t73.5 41.5t86.5 22.5t93.5 6q129 0 225 -28z" />
    <glyph glyph-name="f_f_k" unicode="ffk" horiz-adv-x="1322" 
d="M981 738l-5 -397l105 159h231l-178 -212l193 -288h-237l-90 177l-23 -33l4 -144h-196v610h-17q-138 0 -138 -76v-34h116v-149h-116v-351h-196v351h-155v-351h-196v351h-79v122l79 22v38q0 54 19 96t49.5 67t73.5 41.5t86.5 22.5t93.5 6q107 0 195 -20q70 20 156 20
q129 0 225 -28zM279 535v-35h155v33q0 45 11 77q-6 0 -16 0.5t-12 0.5q-138 0 -138 -76z" />
    <glyph glyph-name="f_t" unicode="ft" horiz-adv-x="760" 
d="M736 144l3 -146q-39 -14 -108 -14q-105 0 -151 44t-46 134v189h-155v-351h-196v351h-79v122l79 22v38q0 54 19 96t49.5 67t73.5 41.5t86.5 22.5t93.5 6q129 0 225 -28v-238h114v-149h-114v-167q0 -47 50 -47q28 0 56 7zM279 534v-34h155v110h-17q-138 0 -138 -76z" />
    <glyph glyph-name="f_f_t" unicode="fft" horiz-adv-x="1111" 
d="M1087 144l3 -146q-39 -14 -108 -14q-105 0 -151 44t-46 134v189h-155v-351h-196v351h-155v-351h-196v351h-79v122l79 22v38q0 54 19 96t49.5 67t73.5 41.5t86.5 22.5t93.5 6q107 0 195 -20q70 20 156 20q129 0 225 -28v-238h114v-149h-114v-167q0 -47 50 -47q28 0 56 7z
M279 535v-35h155v33q0 45 11 77q-6 0 -16 0.5t-12 0.5q-138 0 -138 -76zM630 534v-34h155v110h-17q-138 0 -138 -76z" />
    <glyph glyph-name="f_dotlessi" unicode="f&#x131;" horiz-adv-x="684" 
d="M669 149v-151q-35 -8 -73 -8q-74 0 -118 35t-44 108v218h-155v-351h-196v351h-79v122l79 22v88q0 92 49.5 137.5t156.5 45.5q75 0 117 -18l-3 -153q-25 14 -70 14q-54 0 -54 -48v-61h351v-321q0 -30 39 -30z" />
    <glyph glyph-name="f_f_dotlessi" unicode="ff&#x131;" horiz-adv-x="1035" 
d="M1020 149v-151q-35 -8 -73 -8q-74 0 -118 35t-44 108v218h-155v-351h-196v351h-155v-351h-196v351h-79v122l79 22v38q0 54 19 96t49.5 67t73.5 41.5t86.5 22.5t93.5 6q65 0 145 -11q39 11 90 11q75 0 117 -18l-3 -153q-24 14 -70 14q-54 0 -54 -48v-61h351v-321
q0 -30 39 -30zM279 535v-35h155v83q0 18 1 27q-8 1 -18 1q-138 0 -138 -76z" />
    <glyph glyph-name="f_t_t" unicode="ftt" horiz-adv-x="1111" 
d="M736 144l3 -146q-39 -14 -108 -14q-105 0 -151 44t-46 134v189h-155v-351h-196v351h-79v122l79 22v38q0 54 19 96t49.5 67t73.5 41.5t86.5 22.5t93.5 6q129 0 225 -28v-238h155v95l196 52v-147h114v-149h-114v-167q0 -47 50 -47q28 0 56 7l3 -146q-39 -14 -108 -14
q-105 0 -151 44t-46 134v189h-155v-167q0 -47 50 -47q28 0 56 7zM279 534v-34h155v110h-17q-138 0 -138 -76z" />
    <glyph glyph-name="t_t" unicode="tt" horiz-adv-x="757" 
d="M733 144l3 -146q-39 -14 -108 -14q-105 0 -151 44t-46 134v189h-155v-167q0 -47 50 -47q28 0 56 7l3 -146q-39 -14 -108 -14q-105 0 -151 44t-46 134v189h-79v122l79 22v100l196 52v-147h155v95l196 52v-147h114v-149h-114v-167q0 -47 50 -47q28 0 56 7z" />
    <glyph glyph-name="interrobangdown" unicode="&#xa1;&#xbf;" horiz-adv-x="826" 
d="M524 406q0 -46 -32 -78t-78 -32t-78 32t-32 78t32 78t78 32t78 -32t32 -78zM543 60q-19 -19 -26.5 -29.5t-12.5 -28t5 -32.5q11 -28 34 -34t75 13q35 14 79 43t68 57l69 -160q-87 -72 -168 -106q-75 -31 -133 -36.5t-95 14t-59.5 47.5t-39.5 70q-19 45 -22 80.5t13 68.5
t30 51t47 53q22 24 26.5 44t-5.5 45q-13 27 -18 37l115 48q46 -36 64 -78q19 -39 9.5 -79.5t-55.5 -87.5zM289 321l113 -66l-219 -473l-194 112z" />
    <glyph glyph-name="ff" unicode="ff" horiz-adv-x="754" 
d="M757 748l-3 -153q-24 14 -70 14q-54 0 -54 -48v-61h116v-149h-116v-351h-196v351h-155v-351h-196v351h-79v122l79 22v38q0 54 19 96t49.5 67t73.5 41.5t86.5 22.5t93.5 6q65 0 145 -11q39 11 90 11q75 0 117 -18zM434 583q0 18 1 27q-8 1 -18 1q-138 0 -138 -76v-35h155
v83z" />
    <glyph glyph-name="fi" unicode="fi" horiz-adv-x="684" 
d="M669 149v-151q-35 -8 -73 -8q-74 0 -118 35t-44 108v218h-155v-351h-196v351h-79v122l79 22v38q0 54 19 96t49 67t73 41.5t86.5 22.5t93.5 6q122 0 226 -28v-155q-98 26 -199 26q-152 0 -152 -79v-30h351v-321q0 -30 39 -30z" />
    <glyph glyph-name="fl" unicode="fl" horiz-adv-x="684" 
d="M669 149v-151q-35 -8 -73 -8q-74 0 -118 35t-44 108v477h-17q-138 0 -138 -76v-34h116v-149h-116v-351h-196v351h-79v122l79 22v38q0 54 19 96t49.5 67t73.5 41.5t86.5 22.5t93.5 6q129 0 225 -28v-559q0 -30 39 -30z" />
    <glyph glyph-name="ffi" unicode="ffi" horiz-adv-x="1035" 
d="M1020 149v-151q-35 -8 -73 -8q-74 0 -118 35t-44 108v218h-155v-351h-196v351h-155v-351h-196v351h-79v122l79 22v38q0 54 19 96t49.5 67t73.5 41.5t86.5 22.5t93.5 6q107 0 195 -20q69 20 155 20q122 0 226 -28v-155q-98 26 -199 26q-152 0 -152 -79v-30h351v-321
q0 -30 39 -30zM279 535v-35h155v33q0 45 11 77q-6 0 -16 0.5t-12 0.5q-138 0 -138 -76z" />
    <glyph glyph-name="ffl" unicode="ffl" horiz-adv-x="1035" 
d="M1020 149v-151q-35 -8 -73 -8q-74 0 -118 35t-44 108v477h-17q-138 0 -138 -76v-34h116v-149h-116v-351h-196v351h-155v-351h-196v351h-79v122l79 22v38q0 54 19 96t49.5 67t73.5 41.5t86.5 22.5t93.5 6q107 0 195 -20q70 20 156 20q129 0 225 -28v-559q0 -30 39 -30z
M279 535v-35h155v33q0 45 11 77q-6 0 -16 0.5t-12 0.5q-138 0 -138 -76z" />
    <glyph glyph-name=".notdef" horiz-adv-x="649" 
d="M403 293h-156v242h156v-242zM325 47q-143 0 -275 -57v166q124 52 275 52t275 -52v-166q-132 57 -275 57zM515 760q41 0 68 -27t27 -68q0 -40 -27.5 -67.5t-67.5 -27.5t-67.5 27.5t-27.5 67.5t27.5 67.5t67.5 27.5zM135 760q40 0 67.5 -27.5t27.5 -67.5t-27.5 -67.5
t-67.5 -27.5t-67.5 27.5t-27.5 67.5q0 41 27 68t68 27z" />
    <glyph glyph-name=".null" horiz-adv-x="0" 
 />
    <glyph glyph-name="nonmarkingreturn" horiz-adv-x="333" 
 />
    <glyph glyph-name="space" unicode=" " horiz-adv-x="180" 
 />
    <glyph glyph-name="exclam" unicode="!" horiz-adv-x="260" 
d="M195 230h-130l-47 520h224zM20 94q0 46 32 78t78 32t78 -32t32 -78t-32 -78t-78 -32t-78 32t-32 78z" />
    <glyph glyph-name="quotedbl" unicode="&#x22;" horiz-adv-x="460" 
d="M185 500h-129l-34 250h196zM405 500h-129l-34 250h196z" />
    <glyph glyph-name="numbersign" unicode="#" horiz-adv-x="710" 
d="M13 134l43 145h88l20 67h-92l43 145h93l40 134h157l-40 -134h87l40 134h157l-40 -134h88l-43 -145h-89l-20 -67h93l-43 -145h-93l-40 -134h-157l40 134h-87l-40 -134h-157l40 134h-88zM321 346l-20 -67h87l20 67h-87z" />
    <glyph glyph-name="dollar" unicode="$" horiz-adv-x="523" 
d="M218 -62h-141q28 80 43 120q-60 10 -85 22l3 159q101 -39 212 -39q53 0 53 23q0 12 -9.5 16.5t-31.5 6.5q-130 10 -180 42t-50 116q0 174 227 174l38 109h141l-44 -121q59 -10 80 -19l-2 -159q-40 15 -100.5 25t-104.5 10q-47 0 -47 -22q0 -11 9.5 -15t32.5 -7
q133 -12 182 -41.5t49 -117.5q0 -174 -238 -174z" />
    <glyph glyph-name="percent" unicode="%" horiz-adv-x="1092" 
d="M396 0h-143l444 625h142zM1068 192q0 -107 -51.5 -157.5t-154.5 -50.5t-154.5 50.5t-51.5 157.5t51.5 157.5t154.5 50.5t154.5 -50.5t51.5 -157.5zM894 192q0 39 -7.5 51t-24.5 12t-24.5 -12t-7.5 -51t7.5 -51t24.5 -12t24.5 12t7.5 51zM24 433q0 107 51.5 157.5
t154.5 50.5t154.5 -50.5t51.5 -157.5t-51.5 -157.5t-154.5 -50.5t-154.5 50.5t-51.5 157.5zM198 433q0 -39 7.5 -51t24.5 -12t24.5 12t7.5 51t-7.5 51t-24.5 12t-24.5 -12t-7.5 -51z" />
    <glyph glyph-name="ampersand" unicode="&#x26;" horiz-adv-x="774" 
d="M319 145q27 0 47 6q-89 74 -137 139q-21 -22 -21 -56q0 -46 32 -67.5t79 -21.5zM298 556q0 -25 15 -59q59 27 59 65q0 35 -35 35q-39 0 -39 -41zM668 171q43 -23 92 -35l-69 -159q-82 24 -159 65q-96 -58 -220 -58q-289 0 -289 229q0 80 30 129.5t90 83.5q-30 69 -30 133
q0 89 57 148t168 59q214 0 214 -199q0 -69 -38 -114t-116 -82q44 -59 109 -107q52 73 52 194v42h187q2 -30 2 -56q0 -159 -80 -273z" />
    <glyph glyph-name="quotesingle" unicode="'" horiz-adv-x="240" 
d="M185 500h-129l-34 250h196z" />
    <glyph glyph-name="parenleft" unicode="(" horiz-adv-x="347" 
d="M44 277q0 170 37.5 302.5t84.5 203.5h160q-47 -72 -85 -205.5t-38 -300.5t38 -300.5t85 -205.5h-160q-47 71 -84.5 203.5t-37.5 302.5z" />
    <glyph glyph-name="parenright" unicode=")" horiz-adv-x="347" 
d="M303 277q0 -170 -37.5 -302.5t-84.5 -203.5h-160q47 72 85 205.5t38 300.5t-38 300.5t-85 205.5h160q47 -71 84.5 -203.5t37.5 -302.5z" />
    <glyph glyph-name="asterisk" unicode="*" horiz-adv-x="592" 
d="M356 236l-60 111l-60 -111l-174 126l87 91l-123 23l66 203l114 -55l-17 126h214l-17 -126l114 55l66 -203l-123 -23l87 -91z" />
    <glyph glyph-name="plus" unicode="+" 
d="M560 250h-169v-169h-182v169h-169v182h169v169h182v-169h169v-182z" />
    <glyph glyph-name="comma" unicode="," horiz-adv-x="260" 
d="M140 -125h-140l34 300h206z" />
    <glyph glyph-name="hyphen" unicode="-" horiz-adv-x="332" 
d="M306 402v-154h-280v154h280z" />
    <glyph glyph-name="period" unicode="." horiz-adv-x="260" 
d="M20 94q0 46 32 78t78 32t78 -32t32 -78t-32 -78t-78 -32t-78 32t-32 78z" />
    <glyph glyph-name="slash" unicode="/" horiz-adv-x="543" 
d="M198 -200h-198l345 1000h198z" />
    <glyph glyph-name="zero" unicode="0" horiz-adv-x="620" 
d="M310 -16q-147 0 -214 73t-67 256q0 182 67 255t214 73t214 -73t67 -255q0 -183 -67 -256t-214 -73zM310 472q-50 0 -71 -32t-21 -127q0 -96 21 -128t71 -32t71 32t21 128q0 95 -21 127t-71 32z" />
    <glyph glyph-name="one" unicode="1" horiz-adv-x="368" 
d="M221 641h90v-641h-195v463l-107 -4v124z" />
    <glyph glyph-name="two" unicode="2" horiz-adv-x="541" 
d="M304 404q0 69 -80 69q-87 0 -169 -37l-3 166q80 39 208 39q76 0 126.5 -17t74 -48t32 -61t8.5 -70q0 -150 -218 -282l228 4v-167h-482v124q148 100 211.5 165.5t63.5 114.5z" />
    <glyph glyph-name="three" unicode="3" horiz-adv-x="534" 
d="M213 474q-93 0 -179 -36l-2 169q69 34 204 34t194 -54t59 -158q0 -105 -74 -158q42 -19 69.5 -60.5t27.5 -103.5q0 -248 -275 -248q-129 0 -208 36l2 167q90 -34 191 -34q104 0 104 82q0 77 -90 77h-128v151h128q69 0 69 68t-92 68z" />
    <glyph glyph-name="four" unicode="4" horiz-adv-x="634" 
d="M226 189l102 2l2 176zM518 640v-449h100v-165h-100v-151h-190v151h-313v119l319 495h184z" />
    <glyph glyph-name="five" unicode="5" horiz-adv-x="539" 
d="M226 -141q-124 0 -197 35l2 168q86 -31 183 -31q55 0 85 18.5t30 67.5q0 48 -26 64.5t-75 16.5h-181v427h447v-167h-262v-106h37q42 0 73.5 -4t66 -18t56 -39t36 -69.5t14.5 -105.5q0 -257 -289 -257z" />
    <glyph glyph-name="six" unicode="6" horiz-adv-x="608" 
d="M379 596q-86 0 -123 -41.5t-35 -124.5q45 47 146 47q207 0 207 -241q0 -40 -6 -73.5t-23 -68t-45 -57.5t-75.5 -38t-111.5 -15q-153 0 -213.5 80.5t-60.5 255.5q0 87 6 149t25 121.5t52.5 95.5t89.5 58t135 22q133 0 205 -38l-2 -169q-77 37 -171 37zM226 239
q0 -90 81 -90q82 0 82 90t-73 90q-49 0 -69.5 -22t-20.5 -68z" />
    <glyph glyph-name="seven" unicode="7" horiz-adv-x="521" 
d="M270 -125h-209l267 588l-319 -4v166h503v-106z" />
    <glyph glyph-name="eight" unicode="8" horiz-adv-x="604" 
d="M302 -16q-132 0 -204.5 59.5t-72.5 176.5q0 62 28.5 107.5t67.5 66.5q-31 22 -52.5 61.5t-21.5 91.5q0 219 255 219q254 0 254 -219q0 -52 -21.5 -91.5t-52.5 -61.5q39 -21 68 -67t29 -107q0 -116 -72.5 -176t-204.5 -60zM205 233q0 -84 97 -84q96 0 96 84q0 88 -96 88
q-97 0 -97 -88zM302 459q34 0 53.5 19t19.5 53q0 36 -20 53.5t-53 17.5q-73 0 -73 -71q0 -34 19 -53t54 -19z" />
    <glyph glyph-name="nine" unicode="9" horiz-adv-x="608" 
d="M235 28q86 0 121 41t33 126q-45 -47 -145 -47q-208 0 -208 241q0 40 6 73.5t23 68t45 57.5t75.5 38t111.5 15q154 0 214 -80.5t60 -255.5q0 -87 -6.5 -149t-25.5 -121.5t-53 -95.5t-90 -58t-135 -22q-137 0 -213 37l3 170q79 -38 184 -38zM384 386q0 90 -81 90t-81 -90
t73 -90q48 0 68.5 22t20.5 68z" />
    <glyph glyph-name="colon" unicode=":" horiz-adv-x="260" 
d="M20 94q0 46 32 78t78 32t78 -32t32 -78t-32 -78t-78 -32t-78 32t-32 78zM20 390q0 46 32 78t78 32t78 -32t32 -78t-32 -78t-78 -32t-78 32t-32 78z" />
    <glyph glyph-name="semicolon" unicode=";" horiz-adv-x="260" 
d="M20 390q0 46 32 78t78 32t78 -32t32 -78t-32 -78t-78 -32t-78 32t-32 78zM140 -125h-140l34 300h206z" />
    <glyph glyph-name="less" unicode="&#x3c;" 
d="M560 248v-190l-520 207v152l520 207v-190l-283 -93z" />
    <glyph glyph-name="equal" unicode="=" 
d="M560 364h-520v182h520v-182zM560 136h-520v182h520v-182z" />
    <glyph glyph-name="greater" unicode="&#x3e;" 
d="M40 58v190l283 93l-283 93v190l520 -207v-152z" />
    <glyph glyph-name="question" unicode="?" horiz-adv-x="486" 
d="M216 463q36 15 51 28.5t15 41.5q0 30 -21 45.5t-73 15.5q-38 0 -89.5 -9.5t-84.5 -26.5l-2 174q64 34 195 34q66 0 115 -12t77.5 -31t46 -48t23 -57.5t5.5 -64.5q0 -39 -9.5 -70t-21 -49.5t-36.5 -37t-41.5 -27t-51.5 -24.5q-30 -14 -41.5 -30t-11.5 -44q0 -19 2 -41
h-125q-29 48 -29 96t23 79.5t84 57.5zM92 94q0 46 32 78t78 32t78 -32t32 -78t-32 -78t-78 -32t-78 32t-32 78z" />
    <glyph glyph-name="at" unicode="@" horiz-adv-x="1047" 
d="M732 50h-99l-10 28q-26 -21 -67.5 -33.5t-79.5 -12.5q-214 0 -214 218t214 218q37 0 79 -12.5t68 -33.5l10 28h133v-277q54 0 76.5 39.5t22.5 114.5q0 120 -73.5 169t-256.5 49q-186 0 -269.5 -68.5t-83.5 -226.5t83.5 -226.5t269.5 -68.5q85 0 187 15t153 37l3 -115
q-57 -21 -156.5 -35.5t-186.5 -14.5q-484 0 -484 408t484 408q249 0 355 -82t106 -249q0 -128 -68 -202.5t-196 -74.5zM572 193v113q-21 14 -48 14q-37 0 -53.5 -16t-16.5 -54t16.5 -54t53.5 -16q28 0 48 13z" />
    <glyph glyph-name="A" unicode="A" horiz-adv-x="640" 
d="M399 136h-158l-28 -136h-206l184 754h258l184 -754h-206zM369 285l-49 286l-49 -286h98z" />
    <glyph glyph-name="B" unicode="B" horiz-adv-x="610" 
d="M37 0v750h287q139 0 194 -56.5t55 -159.5q0 -88 -74 -137q43 -19 69 -61t26 -103q0 -109 -59.5 -171t-206.5 -62h-291zM389 238q0 77 -69 77h-87v-154h87q69 0 69 77zM367 524q0 65 -58 65h-76v-130h76q58 0 58 65z" />
    <glyph glyph-name="C" unicode="C" horiz-adv-x="563" 
d="M29 375q1 203 82 297t251 94q96 0 174 -31l-2 -175q-78 27 -150 27q-80 0 -119 -46.5t-39 -165.5t38.5 -165.5t119.5 -46.5q72 0 150 27l2 -175q-72 -31 -174 -31q-170 0 -251 94t-82 297z" />
    <glyph glyph-name="D" unicode="D" horiz-adv-x="646" 
d="M293 0h-256v750h256q96 0 161.5 -28t100.5 -81t49.5 -117t14.5 -149q0 -68 -8.5 -121.5t-30.5 -102t-58.5 -81t-94 -51.5t-134.5 -19zM233 579v-408h61q71 0 97.5 48.5t26.5 155.5q0 106 -27 155t-97 49h-61z" />
    <glyph glyph-name="E" unicode="E" horiz-adv-x="571" 
d="M513 472v-173h-280v-126h308v-173h-504v750h504v-173h-308v-105h280z" />
    <glyph glyph-name="F" unicode="F" horiz-adv-x="552" 
d="M507 457v-173h-274v-284h-196v750h499v-173h-303v-120h274z" />
    <glyph glyph-name="G" unicode="G" horiz-adv-x="645" 
d="M359 -16q-169 0 -249.5 96.5t-80.5 294.5t80.5 294.5t251.5 96.5q146 0 236 -40l-2 -178q-108 39 -205 39q-89 0 -126.5 -49.5t-37.5 -163.5q0 -125 40 -173t134 -48l13 1v134h-94v161h290v-410q-89 -55 -250 -55z" />
    <glyph glyph-name="H" unicode="H" horiz-adv-x="646" 
d="M609 0h-196v299h-180v-299h-196v750h196v-278h180v278h196v-750z" />
    <glyph glyph-name="I" unicode="I" horiz-adv-x="282" 
d="M239 0h-196v750h196v-750z" />
    <glyph glyph-name="J" unicode="J" horiz-adv-x="387" 
d="M3 4l3 173q46 -16 88 -16q64 0 64 62v527h196v-575q0 -97 -57 -144t-178 -47q-73 0 -116 20z" />
    <glyph glyph-name="K" unicode="K" horiz-adv-x="663" 
d="M424 0l-152 276l-40 -59v-217h-195v750h195v-301l184 301h234l-242 -329l260 -421h-244z" />
    <glyph glyph-name="L" unicode="L" horiz-adv-x="525" 
d="M233 750v-577h282v-173h-478v750h196z" />
    <glyph glyph-name="M" unicode="M" horiz-adv-x="828" 
d="M292 750l122 -433l122 433h255v-750h-195l11 442l-104 -354h-178l-104 354l11 -442h-195v750h255z" />
    <glyph glyph-name="N" unicode="N" horiz-adv-x="660" 
d="M37 750h189l210 -390l-9 390h196v-750h-189l-210 390l9 -390h-196v750z" />
    <glyph glyph-name="O" unicode="O" horiz-adv-x="666" 
d="M29 375q0 75 7.5 132t28 107.5t54.5 82.5t87.5 50.5t126.5 18.5t126.5 -18.5t87.5 -50.5t54.5 -82.5t28 -107.5t7.5 -132t-7.5 -132t-28 -107.5t-54.5 -82.5t-87.5 -50.5t-126.5 -18.5t-126.5 18.5t-87.5 50.5t-54.5 82.5t-28 107.5t-7.5 132zM438 375q0 125 -22.5 171
t-82.5 46t-82.5 -46t-22.5 -171t22.5 -171t82.5 -46t82.5 46t22.5 171z" />
    <glyph glyph-name="P" unicode="P" horiz-adv-x="597" 
d="M233 250v-250h-196v750h267q146 0 213.5 -71t67.5 -179q0 -109 -67.5 -179.5t-213.5 -70.5h-71zM233 578v-158h72q39 0 55.5 24.5t16.5 54.5q0 28 -16.5 53.5t-55.5 25.5h-72z" />
    <glyph glyph-name="Q" unicode="Q" horiz-adv-x="667" 
d="M29 375q0 75 7.5 132t28 107.5t54.5 82.5t87.5 50.5t126.5 18.5t126.5 -18.5t87.5 -50.5t54.5 -82.5t28 -107.5t7.5 -132q0 -243 -96 -327l155 -33l-3 -181l-481 166q-54 18 -90 51.5t-56 83t-28.5 106.5t-8.5 134zM438 375q0 125 -22.5 171t-82.5 46t-82.5 -46
t-22.5 -171t22.5 -171t82.5 -46t82.5 46t22.5 171z" />
    <glyph glyph-name="R" unicode="R" horiz-adv-x="627" 
d="M233 273v-273h-196v750h277q150 0 213 -61.5t63 -178.5q0 -146 -98 -200l135 -310h-227l-98 273h-69zM233 587v-157h84q64 0 64 79q0 78 -64 78h-84z" />
    <glyph glyph-name="S" unicode="S" horiz-adv-x="597" 
d="M316 465q141 -17 200 -62.5t59 -165.5q0 -136 -78.5 -194.5t-223.5 -58.5q-160 0 -246 52l2 183q100 -57 227 -57q123 0 123 65q0 33 -21.5 47.5t-68.5 20.5q-145 17 -203.5 65t-58.5 167q0 114 73 176.5t222 62.5q143 0 221 -39l-3 -179q-36 17 -93.5 28.5t-109.5 11.5
q-115 0 -115 -60q0 -31 22 -44t72 -19z" />
    <glyph glyph-name="T" unicode="T" horiz-adv-x="568" 
d="M558 577h-176v-577h-196v577h-176v173h548v-173z" />
    <glyph glyph-name="U" unicode="U" horiz-adv-x="648" 
d="M324 157q44 0 69.5 21.5t25.5 79.5v492h196v-507q0 -60 -17.5 -106.5t-45.5 -74.5t-67.5 -46.5t-78 -25t-82.5 -6.5q-55 0 -103 12t-92 39t-70 80.5t-26 127.5v507h196v-492q0 -58 25.5 -79.5t69.5 -21.5z" />
    <glyph glyph-name="V" unicode="V" horiz-adv-x="642" 
d="M435 -4h-228l-202 754h211l105 -516l105 516h211z" />
    <glyph glyph-name="W" unicode="W" horiz-adv-x="888" 
d="M527 -4l-83 496l-83 -496h-235l-116 754h202l46 -474l78 474h216l78 -474l46 474h202l-116 -754h-235z" />
    <glyph glyph-name="X" unicode="X" horiz-adv-x="676" 
d="M447 0l-110 255l-110 -255h-225l198 390l-184 360h222l99 -250l99 250h222l-184 -360l198 -390h-225z" />
    <glyph glyph-name="Y" unicode="Y" horiz-adv-x="670" 
d="M219 750l114 -282l114 282h219l-237 -458l2 -292h-196l2 292l-237 458h219z" />
    <glyph glyph-name="Z" unicode="Z" horiz-adv-x="616" 
d="M599 0h-582v115l309 454l-284 -3v184h544v-115l-309 -454l322 2v-183z" />
    <glyph glyph-name="bracketleft" unicode="[" horiz-adv-x="295" 
d="M208 630v-705h64v-153h-216v1011h216v-153h-64z" />
    <glyph glyph-name="backslash" unicode="\" horiz-adv-x="543" 
d="M543 -200h-198l-345 1000h198z" />
    <glyph glyph-name="bracketright" unicode="]" horiz-adv-x="295" 
d="M87 -75v705h-64v153h216v-1011h-216v153h64z" />
    <glyph glyph-name="asciicircum" unicode="^" horiz-adv-x="500" 
d="M481 375h-180l-51 184l-51 -184h-180l145 391h172z" />
    <glyph glyph-name="underscore" unicode="_" horiz-adv-x="297" 
d="M301 -96v-154h-305v154h305z" />
    <glyph glyph-name="grave" unicode="`" horiz-adv-x="530" 
d="M200 546l-110 204h190l50 -204h-130z" />
    <glyph glyph-name="a" unicode="a" horiz-adv-x="511" 
d="M18 145q0 46 13.5 77.5t41.5 49t60 26t79 12.5l89 8v20q0 19 -14 27.5t-54 8.5q-95 0 -177 -41l-2 148q33 14 92 24.5t116 10.5q129 0 175 -46.5t46 -141.5v-328h-131l-19 32q-57 -48 -147 -48q-87 0 -127.5 44t-40.5 117zM302 223l-59 -7q-29 -3 -42.5 -16t-13.5 -43
q0 -50 49 -50q44 0 66 22v94z" />
    <glyph glyph-name="b" unicode="b" horiz-adv-x="555" 
d="M162 0h-130v750h196v-261q52 27 113 27q100 0 148.5 -62.5t48.5 -203.5t-48.5 -203.5t-148.5 -62.5q-85 0 -158 49zM228 352v-205q22 -15 53 -15q38 0 51.5 26t13.5 92q0 65 -13.5 91t-51.5 26q-31 0 -53 -15z" />
    <glyph glyph-name="c" unicode="c" horiz-adv-x="428" 
d="M17 250q0 133 59.5 199.5t193.5 66.5q81 0 133 -20l-2 -158q-43 17 -94 17q-50 0 -74 -24t-24 -81t24 -81t74 -24q51 0 94 17l2 -158q-52 -20 -133 -20q-134 0 -193.5 66.5t-59.5 199.5z" />
    <glyph glyph-name="d" unicode="d" horiz-adv-x="555" 
d="M523 0h-130l-21 33q-74 -49 -158 -49q-100 0 -148.5 62.5t-48.5 203.5t48.5 203.5t148.5 62.5q61 0 113 -27v261h196v-750zM327 147v205q-23 15 -53 15q-38 0 -51.5 -26t-13.5 -91q0 -66 13.5 -92t51.5 -26q30 0 53 15z" />
    <glyph glyph-name="e" unicode="e" horiz-adv-x="517" 
d="M493 194h-301q-2 -37 23 -52.5t87 -15.5q88 0 176 30l3 -137q-85 -35 -206 -35q-137 0 -197.5 64t-60.5 202q0 136 61.5 201t190.5 65q67 0 113 -18.5t70.5 -52.5t34.5 -74t10 -91q0 -47 -4 -86zM269 384q-35 0 -56.5 -23.5t-20.5 -66.5h137q5 43 -10.5 66.5t-49.5 23.5z
" />
    <glyph glyph-name="f" unicode="f" horiz-adv-x="403" 
d="M406 748l-3 -153q-25 14 -70 14q-54 0 -54 -48v-61h116v-149h-116v-351h-196v351h-79v122l79 22v88q0 92 49.5 137.5t156.5 45.5q75 0 117 -18z" />
    <glyph glyph-name="g" unicode="g" horiz-adv-x="549" 
d="M16 323q0 100 56 146.5t179 46.5q80 0 128 -16h164v-125l-59 -16q3 -18 3 -36q0 -101 -56.5 -147t-179.5 -46q-35 0 -51 1q-5 -7 -5 -15q0 -15 20 -16l201 -22q75 -8 105 -47.5t30 -105.5q0 -65 -45 -109t-115 -63t-160 -19q-246 0 -246 136q0 49 29.5 79.5t73.5 40.5
q-24 9 -37.5 32t-13.5 50t15.5 50.5t40.5 38.5q-77 45 -77 162zM342 -58l-150 18q-29 -13 -29 -41q0 -48 87 -48q50 0 82.5 13t32.5 34t-23 24zM194 320q0 -66 57 -66t57 66t-57 66t-57 -66z" />
    <glyph glyph-name="h" unicode="h" horiz-adv-x="554" 
d="M32 750h196v-260q54 26 119 26q102 0 140.5 -46t38.5 -129v-341h-196v323q0 40 -38 40q-35 0 -64 -18v-345h-196v750z" />
    <glyph glyph-name="i" unicode="i" horiz-adv-x="284" 
d="M269 149v-151q-35 -8 -73 -8q-74 0 -118 35t-44 108v367h196v-321q0 -30 39 -30zM22 648q0 46 32 78t78 32t78 -32t32 -78t-32 -78t-78 -32t-78 32t-32 78z" />
    <glyph glyph-name="j" unicode="j" horiz-adv-x="273" 
d="M-53 -266v159q54 0 73 20.5t19 63.5v523h196v-560q0 -105 -80 -155.5t-208 -50.5zM27 648q0 46 32 78t78 32t78 -32t32 -78t-32 -78t-78 -32t-78 32t-32 78z" />
    <glyph glyph-name="k" unicode="k" horiz-adv-x="569" 
d="M32 750h196l-5 -409l105 159h231l-178 -212l193 -288h-237l-90 177l-23 -33l4 -144h-196v750z" />
    <glyph glyph-name="l" unicode="l" horiz-adv-x="284" 
d="M269 149v-151q-35 -8 -73 -8q-74 0 -118 35t-44 108v617h196v-571q0 -30 39 -30z" />
    <glyph glyph-name="m" unicode="m" horiz-adv-x="826" 
d="M798 0h-196v334q0 29 -33 29q-31 0 -56 -18v-345h-196v334q0 29 -33 29q-31 0 -56 -18v-345h-196v500h130l18 -32q65 48 159 48q89 0 127 -41q62 41 157 41q99 0 137 -47t38 -128v-341z" />
    <glyph glyph-name="n" unicode="n" horiz-adv-x="554" 
d="M32 500h130l18 -32q77 48 167 48q102 0 140.5 -46t38.5 -129v-341h-196v323q0 40 -38 40q-35 0 -64 -18v-345h-196v500z" />
    <glyph glyph-name="o" unicode="o" horiz-adv-x="530" 
d="M265 132q33 0 45.5 25t12.5 93t-12.5 93t-45.5 25t-45.5 -25t-12.5 -93t12.5 -93t45.5 -25zM265 -16q-137 0 -192.5 65t-55.5 201t55.5 201t192.5 65t192.5 -65t55.5 -201t-55.5 -201t-192.5 -65z" />
    <glyph glyph-name="p" unicode="p" horiz-adv-x="555" 
d="M32 500h130l21 -33q73 49 158 49q100 0 148.5 -62.5t48.5 -203.5t-48.5 -203.5t-148.5 -62.5q-61 0 -113 27v-261h-196v750zM228 353v-205q22 -15 53 -15q38 0 51.5 26t13.5 91q0 66 -13.5 92t-51.5 26q-31 0 -53 -15z" />
    <glyph glyph-name="q" unicode="q" horiz-adv-x="555" 
d="M393 500h130v-750h-196v261q-52 -27 -113 -27q-100 0 -148.5 62.5t-48.5 203.5t48.5 203.5t148.5 62.5q84 0 158 -49zM327 148v205q-23 15 -53 15q-38 0 -51.5 -26t-13.5 -92q0 -65 13.5 -91t51.5 -26q30 0 53 15z" />
    <glyph glyph-name="r" unicode="r" horiz-adv-x="387" 
d="M379 508l-2 -161q-16 4 -49 4q-64 0 -100 -25v-326h-196v500h130l18 -32q55 48 145 48q38 0 54 -8z" />
    <glyph glyph-name="s" unicode="s" horiz-adv-x="471" 
d="M430 488l-3 -148q-81 32 -168 32q-56 0 -56 -30q0 -28 39 -31q124 -10 165 -40t41 -112q0 -175 -234 -175q-107 0 -191 34l3 148q95 -39 186 -39q57 0 57 30q0 28 -40 31q-121 11 -163.5 41.5t-42.5 110.5q0 83 55.5 129.5t172.5 46.5q110 0 179 -28z" />
    <glyph glyph-name="t" unicode="t" horiz-adv-x="406" 
d="M382 144l3 -146q-39 -14 -108 -14q-105 0 -151 44t-46 134v189h-79v122l79 22v100l196 52v-147h114v-149h-114v-167q0 -47 50 -47q28 0 56 7z" />
    <glyph glyph-name="u" unicode="u" horiz-adv-x="554" 
d="M522 0h-130l-18 32q-77 -48 -167 -48q-102 0 -140.5 46t-38.5 129v341h196v-323q0 -40 38 -40q35 0 64 18v345h196v-500z" />
    <glyph glyph-name="v" unicode="v" horiz-adv-x="530" 
d="M196 500l69 -304l69 304h200l-167 -504h-204l-167 504h200z" />
    <glyph glyph-name="w" unicode="w" horiz-adv-x="700" 
d="M434 500l48 -285l31 285h185l-101 -504h-195l-52 294l-52 -294h-195l-101 504h185l31 -285l48 285h168z" />
    <glyph glyph-name="x" unicode="x" horiz-adv-x="557" 
d="M221 500l57 -139l57 139h215l-141 -242l149 -258h-217l-63 146l-63 -146h-217l149 258l-141 242h215z" />
    <glyph glyph-name="y" unicode="y" horiz-adv-x="542" 
d="M-3 500h211l63 -288l66 288h207l-268 -750h-221l116 257z" />
    <glyph glyph-name="z" unicode="z" horiz-adv-x="490" 
d="M473 0h-456v133l198 209l-182 -7v165h428v-133l-198 -209l210 7v-165z" />
    <glyph glyph-name="braceleft" unicode="{" horiz-adv-x="285" 
d="M181 277q40 -22 38 -76l-17 -252q-3 -25 26 -25h34v-153h-80q-63 0 -100 30.5t-33 94.5l17 284q3 26 -23 26h-27v142h27q26 0 23 26l-17 284q-4 64 33 94.5t100 30.5h80v-153h-34q-29 0 -26 -25l17 -252q2 -54 -38 -76z" />
    <glyph glyph-name="bar" unicode="|" horiz-adv-x="282" 
d="M239 -200h-196v1000h196v-1000z" />
    <glyph glyph-name="braceright" unicode="}" horiz-adv-x="285" 
d="M104 277q-40 22 -38 76l17 252q3 25 -26 25h-34v153h80q63 0 100 -30.5t33 -94.5l-17 -284q-3 -26 23 -26h27v-142h-27q-26 0 -23 -26l17 -284q4 -64 -33 -94.5t-100 -30.5h-80v153h34q29 0 26 25l-17 252q-2 54 38 76z" />
    <glyph glyph-name="asciitilde" unicode="~" horiz-adv-x="500" 
d="M474 404v-157q-11 -11 -40.5 -20t-62.5 -9q-50 0 -126.5 30t-119.5 30q-29 0 -59.5 -11t-39.5 -21v157q11 11 41 20t62 9q51 0 127.5 -30t119.5 -30q28 0 58.5 11t39.5 21z" />
    <glyph glyph-name="nbspace" unicode="&#xa0;" horiz-adv-x="185" 
 />
    <glyph glyph-name="exclamdown" unicode="&#xa1;" horiz-adv-x="260" 
d="M65 270h130l47 -520h-224zM20 406q0 46 32 78t78 32t78 -32t32 -78t-32 -78t-78 -32t-78 32t-32 78z" />
    <glyph glyph-name="cent" unicode="&#xa2;" horiz-adv-x="513" 
d="M221 313q0 -53 28 -78t88 -25q71 0 143 26l2 -158q-68 -31 -178 -31h-16l-37 -109h-141l48 134q-127 55 -127 241q0 127 60.5 193t187.5 72l38 109h141l-43 -119q33 -6 67 -20l-2 -158q-69 25 -143 25q-60 0 -88 -25t-28 -77z" />
    <glyph glyph-name="sterling" unicode="&#xa3;" 
d="M278 251v-91h291v-160h-547v160h64v91h-64v122h64v38q0 107 61 168.5t207 61.5q126 0 203 -36l-2 -159q-93 31 -174 31q-103 0 -103 -76v-28h209v-122h-209z" />
    <glyph glyph-name="currency" unicode="&#xa4;" horiz-adv-x="800" 
d="M696 375q0 -88 -34 -153l104 -104l-116 -116l-107 107q-69 -32 -143 -32t-143 32l-107 -107l-116 116l104 104q-34 66 -34 153t34 153l-104 104l116 116l107 -107q69 32 143 32t143 -32l107 107l116 -116l-104 -104q34 -65 34 -153zM502 375q0 62 -25.5 89.5t-76.5 27.5
q-52 0 -77 -27.5t-25 -89.5t25 -89.5t77 -27.5q51 0 76.5 27.5t25.5 89.5z" />
    <glyph glyph-name="yen" unicode="&#xa5;" horiz-adv-x="662" 
d="M33 199v102h164l-14 24h-150v101h94l-111 199h218l97 -230l97 230h217l-111 -199h94v-101h-151l-13 -24h164v-102h-202l1 -199h-193l1 199h-202z" />
    <glyph glyph-name="brokenbar" unicode="&#xa6;" horiz-adv-x="248" 
d="M239 325h-196v475h196v-475zM239 -200h-196v475h196v-475z" />
    <glyph glyph-name="section" unicode="&#xa7;" horiz-adv-x="700" 
d="M407 465q145 -17 203.5 -65t58.5 -167q0 -130 -93 -191q6 -32 6 -69q0 -114 -73 -176.5t-222 -62.5q-143 0 -221 39l3 179q36 -17 93.5 -28.5t109.5 -11.5q115 0 115 60q0 31 -22 44t-72 19q-145 17 -203.5 65t-58.5 167q0 131 93 191q-6 30 -6 69q0 114 73 176.5
t222 62.5q143 0 221 -39l-3 -179q-36 17 -93.5 28.5t-109.5 11.5q-115 0 -115 -60q0 -31 22 -44t72 -19zM320 205q80 -11 116 -22q38 15 38 49q0 31 -22 44t-72 19q-68 7 -117 21q-37 -15 -37 -48q0 -31 22 -44t72 -19z" />
    <glyph glyph-name="dieresis" unicode="&#xa8;" horiz-adv-x="530" 
d="M30 648q0 46 32 78t78 32t78 -32t32 -78t-32 -78t-78 -32t-78 32t-32 78zM280 648q0 46 32 78t78 32t78 -32t32 -78t-32 -78t-78 -32t-78 32t-32 78z" />
    <glyph glyph-name="copyright" unicode="&#xa9;" horiz-adv-x="776" 
d="M387 -14q-71 0 -130 18t-106 55.5t-73.5 102t-26.5 150.5q0 87 26.5 151.5t73.5 102t106 55.5t130 18q72 0 131 -18t106.5 -55.5t74 -102t26.5 -151.5q0 -168 -94 -247t-244 -79zM389 63q113 0 184.5 60.5t71.5 188.5q0 66 -20 115.5t-56 78t-81 42.5t-99 14
q-115 0 -186.5 -60.5t-71.5 -189.5q0 -128 71.5 -188.5t186.5 -60.5zM196 313q0 199 201 199q77 0 126 -22l-2 -122q-54 18 -103 18q-78 0 -78 -73t78 -73q54 0 103 18l2 -122q-52 -23 -126 -23q-201 0 -201 200z" />
    <glyph glyph-name="ordfeminine" unicode="&#xaa;" horiz-adv-x="400" 
d="M15 484q0 64 34.5 90.5t112.5 33.5l65 6v12q0 25 -43 25q-68 0 -142 -31l-4 119q71 27 171 27q96 0 130 -35t34 -107v-249h-117l-10 19q-42 -33 -105 -33q-126 0 -126 123zM228 542l-40 -4q-41 -5 -41 -40q0 -36 34 -36q28 0 47 14v66z" />
    <glyph glyph-name="guillemotleft" unicode="&#xab;" horiz-adv-x="482" 
d="M43 195v110l190 145v-143l-57 -57l57 -57v-143zM243 195v110l190 145v-143l-57 -57l57 -57v-143z" />
    <glyph glyph-name="logicalnot" unicode="&#xac;" 
d="M40 513h520v-331h-182v149h-338v182z" />
    <glyph glyph-name="uni00AD" unicode="&#xad;" horiz-adv-x="332" 
d="M306 402v-154h-280v154h280z" />
    <glyph glyph-name="registered" unicode="&#xae;" horiz-adv-x="776" 
d="M387 -14q-71 0 -130 18t-106 55.5t-73.5 102t-26.5 150.5q0 87 26.5 151.5t73.5 102t106 55.5t130 18q72 0 131 -18t106.5 -55.5t74 -102t26.5 -151.5q0 -168 -94 -247t-244 -79zM404 242h-31v-117h-147v375h229q77 0 109.5 -34.5t32.5 -97.5q0 -33 -14 -62t-40 -43
l53 -116q49 62 49 165q0 66 -20 115.5t-56 78t-81 42.5t-99 14q-115 0 -186.5 -60.5t-71.5 -189.5q0 -128 71.5 -188.5t186.5 -60.5q120 0 186 62h-135zM450 368q0 23 -21 24h-56v-49h58q19 0 19 25z" />
    <glyph glyph-name="macron" unicode="&#xaf;" horiz-adv-x="530" 
d="M421 713v-130h-312v130h312z" />
    <glyph glyph-name="degree" unicode="&#xb0;" horiz-adv-x="426" 
d="M390 600q0 -166 -177 -166t-177 166t177 166t177 -166zM173 600q0 -35 40 -35t40 35t-40 35t-40 -35z" />
    <glyph glyph-name="plusminus" unicode="&#xb1;" 
d="M40 513h169v120h182v-120h169v-182h-169v-120h-182v120h-169v182zM560 0h-520v182h520v-182z" />
    <glyph glyph-name="uni00B2" unicode="&#xb2;" horiz-adv-x="435" 
d="M176 622q-64 0 -136 -29l-2 143q60 30 176 30q102 0 142.5 -37.5t40.5 -92.5q0 -103 -156 -159l167 5v-142h-382v107q105 51 148.5 83t43.5 57q0 35 -42 35z" />
    <glyph glyph-name="uni00B3" unicode="&#xb3;" horiz-adv-x="456" 
d="M188 466q82 0 82 19q0 15 -25 15h-152v91h143q26 0 26 14q0 19 -74 19q-31 0 -67.5 -5.5t-58.5 -10.5l-21 -6l-2 137q19 10 69 18.5t101 8.5q208 0 208 -117q0 -32 -15 -54.5t-37 -29.5q67 -27 67 -104q0 -66 -56 -101.5t-167 -35.5q-50 0 -104 9t-74 18l2 138
q72 -23 155 -23z" />
    <glyph glyph-name="acute" unicode="&#xb4;" horiz-adv-x="530" 
d="M330 546h-130l50 204h190z" />
    <glyph glyph-name="mu" unicode="&#xb5;" horiz-adv-x="554" 
d="M522 0h-130l-18 32q-70 -43 -154 -48l4 -234h-196v750h196v-323q0 -40 38 -40q35 0 64 18v345h196v-500z" />
    <glyph glyph-name="paragraph" unicode="&#xb6;" horiz-adv-x="597" 
d="M389 0v250h-25v-250h-121v256q-107 18 -156.5 84t-49.5 160q0 108 67.5 179t213.5 71h267v-750h-196z" />
    <glyph glyph-name="periodcentered" unicode="&#xb7;" horiz-adv-x="262" 
d="M20 325q0 46 32 78t78 32t78 -32t32 -78t-32 -78t-78 -32t-78 32t-32 78z" />
    <glyph glyph-name="cedilla" unicode="&#xb8;" horiz-adv-x="530" 
d="M217 -84l8 84h82l3 -47q101 -26 101 -98q0 -53 -39.5 -79t-106.5 -26q-66 0 -104 16v98q36 -11 79 -11q52 0 52 25q0 28 -75 38z" />
    <glyph glyph-name="uni00B9" unicode="&#xb9;" horiz-adv-x="339" 
d="M204 766h74v-426h-167v272l-98 -4v105z" />
    <glyph glyph-name="ordmasculine" unicode="&#xba;" horiz-adv-x="418" 
d="M209 486q22 0 31 16.5t9 61.5q0 44 -9 60.5t-31 16.5t-31 -16.5t-9 -60.5q0 -45 9 -61.5t31 -16.5zM209 361q-105 0 -149 48t-44 155t44 154.5t149 47.5t149 -47.5t44 -154.5t-44 -155t-149 -48z" />
    <glyph glyph-name="guillemotright" unicode="&#xbb;" horiz-adv-x="482" 
d="M239 305v-110l-190 -145v143l57 57l-57 57v143zM439 305v-110l-190 -145v143l57 57l-57 57v143z" />
    <glyph glyph-name="uni00BC" unicode="&#xbc;" horiz-adv-x="1047" 
d="M280 0h-143l532 750h142zM204 766h74v-426h-167v272l-98 -4v105zM561 65v109l199 252h197v-229h64v-132h-64v-65h-162v65h-234zM740 195l55 2l5 77z" />
    <glyph glyph-name="uni00BD" unicode="&#xbd;" horiz-adv-x="1045" 
d="M280 0h-143l532 750h142zM204 766h74v-426h-167v272l-98 -4v105zM784 282q-64 0 -136 -29l-2 143q60 30 176 30q102 0 142.5 -37.5t40.5 -92.5q0 -103 -156 -159l167 5v-142h-382v107q105 51 148.5 83t43.5 57q0 35 -42 35z" />
    <glyph glyph-name="uni00BE" unicode="&#xbe;" horiz-adv-x="1148" 
d="M381 0h-143l532 750h142zM188 466q82 0 82 19q0 15 -25 15h-152v91h143q26 0 26 14q0 19 -74 19q-31 0 -67.5 -5.5t-58.5 -10.5l-21 -6l-2 137q19 10 69 18.5t101 8.5q208 0 208 -117q0 -32 -15 -54.5t-37 -29.5q67 -27 67 -104q0 -66 -56 -101.5t-167 -35.5
q-50 0 -104 9t-74 18l2 138q72 -23 155 -23zM662 65v109l199 252h197v-229h64v-132h-64v-65h-162v65h-234zM841 195l55 2l5 77z" />
    <glyph glyph-name="questiondown" unicode="&#xbf;" horiz-adv-x="486" 
d="M270 37q-36 -15 -51 -28.5t-15 -41.5q0 -30 21 -45.5t73 -15.5q38 0 89.5 9.5t84.5 26.5l2 -174q-64 -34 -195 -34q-66 0 -115 12t-77.5 31t-46 48t-23 57.5t-5.5 64.5q0 39 9.5 70t21 49.5t36.5 37t41.5 27t51.5 24.5q30 14 41.5 30t11.5 44q0 19 -2 41h125
q29 -48 29 -96t-23 -79.5t-84 -57.5zM394 406q0 -46 -32 -78t-78 -32t-78 32t-32 78t32 78t78 32t78 -32t32 -78z" />
    <glyph glyph-name="Agrave" unicode="&#xc0;" horiz-adv-x="640" 
d="M240 786l-80 124h194l46 -124h-160zM399 136h-158l-28 -136h-206l184 754h258l184 -754h-206zM369 285l-49 286l-49 -286h98z" />
    <glyph glyph-name="Aacute" unicode="&#xc1;" horiz-adv-x="640" 
d="M400 786h-160l46 124h194zM399 136h-158l-28 -136h-206l184 754h258l184 -754h-206zM369 285l-49 286l-49 -286h98z" />
    <glyph glyph-name="Acircumflex" unicode="&#xc2;" horiz-adv-x="640" 
d="M255 786h-145l126 124h168l126 -124h-145l-65 40zM399 136h-158l-28 -136h-206l184 754h258l184 -754h-206zM369 285l-49 286l-49 -286h98z" />
    <glyph glyph-name="Atilde" unicode="&#xc3;" horiz-adv-x="640" 
d="M542 910v-6q0 -71 -33 -99t-94 -28q-43 0 -94.5 22t-69.5 22q-44 0 -44 -35h-109v6q0 71 33 99t94 28q43 0 94.5 -22t69.5 -22q44 0 44 35h109zM399 136h-158l-28 -136h-206l184 754h258l184 -754h-206zM369 285l-49 286l-49 -286h98z" />
    <glyph glyph-name="Adieresis" unicode="&#xc4;" horiz-adv-x="640" 
d="M335 848q0 42 28.5 57t81.5 15t81.5 -15t28.5 -57t-28.5 -57t-81.5 -15t-81.5 15t-28.5 57zM85 848q0 42 28.5 57t81.5 15t81.5 -15t28.5 -57t-28.5 -57t-81.5 -15t-81.5 15t-28.5 57zM399 136h-158l-28 -136h-206l184 754h258l184 -754h-206zM369 285l-49 286l-49 -286
h98z" />
    <glyph glyph-name="Aring" unicode="&#xc5;" horiz-adv-x="640" 
d="M320 777q-61 0 -88.5 14.5t-27.5 55.5t27.5 56.5t88.5 15.5t88.5 -15t27.5 -56t-27.5 -56t-88.5 -15zM320 831q28 0 28 16q0 17 -28 17t-28 -16q0 -17 28 -17zM399 136h-158l-28 -136h-206l184 754h258l184 -754h-206zM369 285l-49 286l-49 -286h98z" />
    <glyph glyph-name="AE" unicode="&#xc6;" horiz-adv-x="953" 
d="M896 473v-175h-268l13 -123h284v-175h-468l-15 136h-174l-47 -136h-217l299 750h622v-175h-326l11 -102h286zM403 562l-84 -277h108z" />
    <glyph glyph-name="Ccedilla" unicode="&#xc7;" horiz-adv-x="563" 
d="M288 -84l7 72q-136 17 -200.5 110.5t-65.5 276.5q1 203 82 297t251 94q96 0 174 -31l-2 -175q-78 27 -150 27q-80 0 -119 -46.5t-39 -165.5t38.5 -165.5t119.5 -46.5q72 0 150 27l2 -175q-68 -29 -157 -31l2 -31q101 -26 101 -98q0 -53 -39.5 -79t-106.5 -26
q-66 0 -104 16v98q36 -11 79 -11q52 0 52 25q0 28 -75 38z" />
    <glyph glyph-name="Egrave" unicode="&#xc8;" horiz-adv-x="571" 
d="M513 472v-173h-280v-126h308v-173h-504v750h504v-173h-308v-105h280zM218 786l-80 124h194l46 -124h-160z" />
    <glyph glyph-name="Eacute" unicode="&#xc9;" horiz-adv-x="571" 
d="M513 472v-173h-280v-126h308v-173h-504v750h504v-173h-308v-105h280zM378 786h-160l46 124h194z" />
    <glyph glyph-name="Ecircumflex" unicode="&#xca;" horiz-adv-x="571" 
d="M513 472v-173h-280v-126h308v-173h-504v750h504v-173h-308v-105h280zM233 786h-145l126 124h168l126 -124h-145l-65 40z" />
    <glyph glyph-name="Edieresis" unicode="&#xcb;" horiz-adv-x="571" 
d="M513 472v-173h-280v-126h308v-173h-504v750h504v-173h-308v-105h280zM63 848q0 42 28.5 57t81.5 15t81.5 -15t28.5 -57t-28.5 -57t-81.5 -15t-81.5 15t-28.5 57zM313 848q0 42 28.5 57t81.5 15t81.5 -15t28.5 -57t-28.5 -57t-81.5 -15t-81.5 15t-28.5 57z" />
    <glyph glyph-name="Igrave" unicode="&#xcc;" horiz-adv-x="282" 
d="M239 0h-196v750h196v-750zM61 786l-80 124h194l46 -124h-160z" />
    <glyph glyph-name="Iacute" unicode="&#xcd;" horiz-adv-x="282" 
d="M239 0h-196v750h196v-750zM221 786h-160l46 124h194z" />
    <glyph glyph-name="Icircumflex" unicode="&#xce;" horiz-adv-x="282" 
d="M239 0h-196v750h196v-750zM76 786h-145l126 124h168l126 -124h-145l-65 40z" />
    <glyph glyph-name="Idieresis" unicode="&#xcf;" horiz-adv-x="282" 
d="M239 0h-196v750h196v-750zM-94 848q0 42 28.5 57t81.5 15t81.5 -15t28.5 -57t-28.5 -57t-81.5 -15t-81.5 15t-28.5 57zM156 848q0 42 28.5 57t81.5 15t81.5 -15t28.5 -57t-28.5 -57t-81.5 -15t-81.5 15t-28.5 57z" />
    <glyph glyph-name="Eth" unicode="&#xd0;" horiz-adv-x="696" 
d="M10 304v143h77v303h256q96 0 161.5 -28t100.5 -81t49.5 -117t14.5 -149q0 -68 -8.5 -121.5t-30.5 -102t-58.5 -81t-94 -51.5t-134.5 -19h-256v304h-77zM283 579v-132h127v-143h-127v-133h61q71 0 97.5 48.5t26.5 155.5q0 106 -27 155t-97 49h-61z" />
    <glyph glyph-name="Ntilde" unicode="&#xd1;" horiz-adv-x="660" 
d="M37 750h189l210 -390l-9 390h196v-750h-189l-210 390l9 -390h-196v750zM552 910v-6q0 -71 -33 -99t-94 -28q-43 0 -94.5 22t-69.5 22q-44 0 -44 -35h-109v6q0 71 33 99t94 28q43 0 94.5 -22t69.5 -22q44 0 44 35h109z" />
    <glyph glyph-name="Ograve" unicode="&#xd2;" horiz-adv-x="666" 
d="M29 375q0 75 7.5 132t28 107.5t54.5 82.5t87.5 50.5t126.5 18.5t126.5 -18.5t87.5 -50.5t54.5 -82.5t28 -107.5t7.5 -132t-7.5 -132t-28 -107.5t-54.5 -82.5t-87.5 -50.5t-126.5 -18.5t-126.5 18.5t-87.5 50.5t-54.5 82.5t-28 107.5t-7.5 132zM438 375q0 125 -22.5 171
t-82.5 46t-82.5 -46t-22.5 -171t22.5 -171t82.5 -46t82.5 46t22.5 171zM253 786l-80 124h194l46 -124h-160z" />
    <glyph glyph-name="Oacute" unicode="&#xd3;" horiz-adv-x="666" 
d="M29 375q0 75 7.5 132t28 107.5t54.5 82.5t87.5 50.5t126.5 18.5t126.5 -18.5t87.5 -50.5t54.5 -82.5t28 -107.5t7.5 -132t-7.5 -132t-28 -107.5t-54.5 -82.5t-87.5 -50.5t-126.5 -18.5t-126.5 18.5t-87.5 50.5t-54.5 82.5t-28 107.5t-7.5 132zM438 375q0 125 -22.5 171
t-82.5 46t-82.5 -46t-22.5 -171t22.5 -171t82.5 -46t82.5 46t22.5 171zM413 786h-160l46 124h194z" />
    <glyph glyph-name="Ocircumflex" unicode="&#xd4;" horiz-adv-x="666" 
d="M29 375q0 75 7.5 132t28 107.5t54.5 82.5t87.5 50.5t126.5 18.5t126.5 -18.5t87.5 -50.5t54.5 -82.5t28 -107.5t7.5 -132t-7.5 -132t-28 -107.5t-54.5 -82.5t-87.5 -50.5t-126.5 -18.5t-126.5 18.5t-87.5 50.5t-54.5 82.5t-28 107.5t-7.5 132zM438 375q0 125 -22.5 171
t-82.5 46t-82.5 -46t-22.5 -171t22.5 -171t82.5 -46t82.5 46t22.5 171zM268 786h-145l126 124h168l126 -124h-145l-65 40z" />
    <glyph glyph-name="Otilde" unicode="&#xd5;" horiz-adv-x="666" 
d="M29 375q0 75 7.5 132t28 107.5t54.5 82.5t87.5 50.5t126.5 18.5t126.5 -18.5t87.5 -50.5t54.5 -82.5t28 -107.5t7.5 -132t-7.5 -132t-28 -107.5t-54.5 -82.5t-87.5 -50.5t-126.5 -18.5t-126.5 18.5t-87.5 50.5t-54.5 82.5t-28 107.5t-7.5 132zM438 375q0 125 -22.5 171
t-82.5 46t-82.5 -46t-22.5 -171t22.5 -171t82.5 -46t82.5 46t22.5 171zM555 910v-6q0 -71 -33 -99t-94 -28q-43 0 -94.5 22t-69.5 22q-44 0 -44 -35h-109v6q0 71 33 99t94 28q43 0 94.5 -22t69.5 -22q44 0 44 35h109z" />
    <glyph glyph-name="Odieresis" unicode="&#xd6;" horiz-adv-x="666" 
d="M29 375q0 75 7.5 132t28 107.5t54.5 82.5t87.5 50.5t126.5 18.5t126.5 -18.5t87.5 -50.5t54.5 -82.5t28 -107.5t7.5 -132t-7.5 -132t-28 -107.5t-54.5 -82.5t-87.5 -50.5t-126.5 -18.5t-126.5 18.5t-87.5 50.5t-54.5 82.5t-28 107.5t-7.5 132zM438 375q0 125 -22.5 171
t-82.5 46t-82.5 -46t-22.5 -171t22.5 -171t82.5 -46t82.5 46t22.5 171zM98 848q0 42 28.5 57t81.5 15t81.5 -15t28.5 -57t-28.5 -57t-81.5 -15t-81.5 15t-28.5 57zM348 848q0 42 28.5 57t81.5 15t81.5 -15t28.5 -57t-28.5 -57t-81.5 -15t-81.5 15t-28.5 57z" />
    <glyph glyph-name="multiply" unicode="&#xd7;" 
d="M436 76l-136 136l-136 -136l-129 129l136 136l-136 136l129 129l136 -136l136 136l129 -129l-136 -136l136 -136z" />
    <glyph glyph-name="Oslash" unicode="&#xd8;" horiz-adv-x="667" 
d="M29 375q0 75 7.5 132t28 107.5t54.5 82.5t87.5 50.5t126.5 18.5q102 0 168 -36l13 20h103l-48 -78q68 -89 68 -297q0 -75 -7.5 -132t-28 -107.5t-54.5 -82.5t-87.5 -50.5t-126.5 -18.5q-102 0 -169 36l-12 -20h-103l48 77q-68 89 -68 298zM228 375q0 -46 3 -82l170 274
q-22 25 -68 25q-60 0 -82.5 -46t-22.5 -171zM438 375q0 47 -3 81l-170 -274q23 -24 68 -24q60 0 82.5 46t22.5 171z" />
    <glyph glyph-name="Ugrave" unicode="&#xd9;" horiz-adv-x="648" 
d="M324 157q44 0 69.5 21.5t25.5 79.5v492h196v-507q0 -60 -17.5 -106.5t-45.5 -74.5t-67.5 -46.5t-78 -25t-82.5 -6.5q-55 0 -103 12t-92 39t-70 80.5t-26 127.5v507h196v-492q0 -58 25.5 -79.5t69.5 -21.5zM244 786l-80 124h194l46 -124h-160z" />
    <glyph glyph-name="Uacute" unicode="&#xda;" horiz-adv-x="648" 
d="M324 157q44 0 69.5 21.5t25.5 79.5v492h196v-507q0 -60 -17.5 -106.5t-45.5 -74.5t-67.5 -46.5t-78 -25t-82.5 -6.5q-55 0 -103 12t-92 39t-70 80.5t-26 127.5v507h196v-492q0 -58 25.5 -79.5t69.5 -21.5zM404 786h-160l46 124h194z" />
    <glyph glyph-name="Ucircumflex" unicode="&#xdb;" horiz-adv-x="648" 
d="M324 157q44 0 69.5 21.5t25.5 79.5v492h196v-507q0 -60 -17.5 -106.5t-45.5 -74.5t-67.5 -46.5t-78 -25t-82.5 -6.5q-55 0 -103 12t-92 39t-70 80.5t-26 127.5v507h196v-492q0 -58 25.5 -79.5t69.5 -21.5zM259 786h-145l126 124h168l126 -124h-145l-65 40z" />
    <glyph glyph-name="Udieresis" unicode="&#xdc;" horiz-adv-x="648" 
d="M324 157q44 0 69.5 21.5t25.5 79.5v492h196v-507q0 -60 -17.5 -106.5t-45.5 -74.5t-67.5 -46.5t-78 -25t-82.5 -6.5q-55 0 -103 12t-92 39t-70 80.5t-26 127.5v507h196v-492q0 -58 25.5 -79.5t69.5 -21.5zM89 848q0 42 28.5 57t81.5 15t81.5 -15t28.5 -57t-28.5 -57
t-81.5 -15t-81.5 15t-28.5 57zM339 848q0 42 28.5 57t81.5 15t81.5 -15t28.5 -57t-28.5 -57t-81.5 -15t-81.5 15t-28.5 57z" />
    <glyph glyph-name="Yacute" unicode="&#xdd;" horiz-adv-x="670" 
d="M219 750l114 -282l114 282h219l-237 -458l2 -292h-196l2 292l-237 458h219zM414 786h-160l46 124h194z" />
    <glyph glyph-name="Thorn" unicode="&#xde;" 
d="M233 125v-125h-196v750h196v-125h71q146 0 213.5 -71t67.5 -179q0 -109 -67.5 -179.5t-213.5 -70.5h-71zM233 453v-158h72q39 0 55.5 24.5t16.5 54.5q0 28 -16.5 53.5t-55.5 25.5h-72z" />
    <glyph glyph-name="germandbls" unicode="&#xdf;" horiz-adv-x="625" 
d="M532 571q0 -35 -17 -67t-37 -51t-37 -39.5t-17 -35.5q0 -20 11.5 -31t46.5 -22q74 -23 102.5 -55.5t28.5 -108.5q0 -84 -52 -130.5t-152 -46.5q-88 0 -158 34l3 150q76 -39 128 -39q49 0 49 33q0 13 -9.5 23t-16.5 13t-23 8q-73 22 -102 54t-29 99q0 33 11 59t27.5 42.5
t32.5 31t27 31.5t11 37q0 56 -66 56q-68 0 -68 -56v-560h-196v564q0 202 256 202q246 0 246 -195z" />
    <glyph glyph-name="agrave" unicode="&#xe0;" horiz-adv-x="511" 
d="M191 546l-110 204h190l50 -204h-130zM18 145q0 46 13.5 77.5t41.5 49t60 26t79 12.5l89 8v20q0 19 -14 27.5t-54 8.5q-95 0 -177 -41l-2 148q33 14 92 24.5t116 10.5q129 0 175 -46.5t46 -141.5v-328h-131l-19 32q-57 -48 -147 -48q-87 0 -127.5 44t-40.5 117zM302 223
l-59 -7q-29 -3 -42.5 -16t-13.5 -43q0 -50 49 -50q44 0 66 22v94z" />
    <glyph glyph-name="aacute" unicode="&#xe1;" horiz-adv-x="511" 
d="M321 546h-130l50 204h190zM18 145q0 46 13.5 77.5t41.5 49t60 26t79 12.5l89 8v20q0 19 -14 27.5t-54 8.5q-95 0 -177 -41l-2 148q33 14 92 24.5t116 10.5q129 0 175 -46.5t46 -141.5v-328h-131l-19 32q-57 -48 -147 -48q-87 0 -127.5 44t-40.5 117zM302 223l-59 -7
q-29 -3 -42.5 -16t-13.5 -43q0 -50 49 -50q44 0 66 22v94z" />
    <glyph glyph-name="acircumflex" unicode="&#xe2;" horiz-adv-x="511" 
d="M181 546h-135l136 204h148l136 -204h-135l-75 80zM18 145q0 46 13.5 77.5t41.5 49t60 26t79 12.5l89 8v20q0 19 -14 27.5t-54 8.5q-95 0 -177 -41l-2 148q33 14 92 24.5t116 10.5q129 0 175 -46.5t46 -141.5v-328h-131l-19 32q-57 -48 -147 -48q-87 0 -127.5 44
t-40.5 117zM302 223l-59 -7q-29 -3 -42.5 -16t-13.5 -43q0 -50 49 -50q44 0 66 22v94z" />
    <glyph glyph-name="atilde" unicode="&#xe3;" horiz-adv-x="511" 
d="M34 563v20q0 89 36.5 132t101.5 43q29 0 54 -11t38.5 -25t29.5 -25t31 -11q44 0 44 47h109v-20q0 -89 -36.5 -132t-101.5 -43q-29 0 -54 11t-38.5 25t-29.5 25t-31 11q-44 0 -44 -47h-109zM18 145q0 46 13.5 77.5t41.5 49t60 26t79 12.5l89 8v20q0 19 -14 27.5t-54 8.5
q-95 0 -177 -41l-2 148q33 14 92 24.5t116 10.5q129 0 175 -46.5t46 -141.5v-328h-131l-19 32q-57 -48 -147 -48q-87 0 -127.5 44t-40.5 117zM302 223l-59 -7q-29 -3 -42.5 -16t-13.5 -43q0 -50 49 -50q44 0 66 22v94z" />
    <glyph glyph-name="adieresis" unicode="&#xe4;" horiz-adv-x="511" 
d="M21 648q0 46 32 78t78 32t78 -32t32 -78t-32 -78t-78 -32t-78 32t-32 78zM271 648q0 46 32 78t78 32t78 -32t32 -78t-32 -78t-78 -32t-78 32t-32 78zM18 145q0 46 13.5 77.5t41.5 49t60 26t79 12.5l89 8v20q0 19 -14 27.5t-54 8.5q-95 0 -177 -41l-2 148q33 14 92 24.5
t116 10.5q129 0 175 -46.5t46 -141.5v-328h-131l-19 32q-57 -48 -147 -48q-87 0 -127.5 44t-40.5 117zM302 223l-59 -7q-29 -3 -42.5 -16t-13.5 -43q0 -50 49 -50q44 0 66 22v94z" />
    <glyph glyph-name="aring" unicode="&#xe5;" horiz-adv-x="511" 
d="M256 620q28 0 28 27t-28 27t-28 -26q0 -28 28 -28zM256 537q-116 0 -116 110q0 111 116 111t116 -110q0 -111 -116 -111zM18 145q0 46 13.5 77.5t41.5 49t60 26t79 12.5l89 8v20q0 19 -14 27.5t-54 8.5q-95 0 -177 -41l-2 148q33 14 92 24.5t116 10.5q129 0 175 -46.5
t46 -141.5v-328h-131l-19 32q-57 -48 -147 -48q-87 0 -127.5 44t-40.5 117zM302 223l-59 -7q-29 -3 -42.5 -16t-13.5 -43q0 -50 49 -50q44 0 66 22v94z" />
    <glyph glyph-name="ae" unicode="&#xe6;" horiz-adv-x="798" 
d="M311 136q-10 38 -11 69h-57q-57 0 -57 -50q0 -23 14 -35.5t36 -12.5q46 0 75 29zM556 -16q-125 0 -187 53q-72 -53 -183 -53q-87 0 -127.5 44t-40.5 117q0 89 49 122t145 33h89v39q0 17 -13.5 26t-54.5 9q-93 0 -177 -41l-2 148q33 14 92 24.5t116 10.5q88 0 143 -35
q55 35 145 35q67 0 113 -17.5t70.5 -50.5t34.5 -72t10 -90q0 -42 -4 -81h-301q-2 -38 24 -58.5t86 -20.5q88 0 176 30l3 -137q-85 -35 -206 -35zM550 384q-35 0 -56.5 -20.5t-20.5 -63.5h137q10 84 -60 84z" />
    <glyph glyph-name="ccedilla" unicode="&#xe7;" horiz-adv-x="428" 
d="M192 -84l7 74q-96 16 -139 81t-43 179q0 133 59.5 199.5t193.5 66.5q81 0 133 -20l-2 -158q-43 17 -94 17q-50 0 -74 -24t-24 -81t24 -81t74 -24q51 0 94 17l2 -158q-49 -19 -120 -20l2 -31q101 -26 101 -98q0 -53 -39.5 -79t-106.5 -26q-66 0 -104 16v98q36 -11 79 -11
q52 0 52 25q0 28 -75 38z" />
    <glyph glyph-name="egrave" unicode="&#xe8;" horiz-adv-x="517" 
d="M197 546l-110 204h190l50 -204h-130zM493 194h-301q-2 -37 23 -52.5t87 -15.5q88 0 176 30l3 -137q-85 -35 -206 -35q-137 0 -197.5 64t-60.5 202q0 136 61.5 201t190.5 65q67 0 113 -18.5t70.5 -52.5t34.5 -74t10 -91q0 -47 -4 -86zM269 384q-35 0 -56.5 -23.5
t-20.5 -66.5h137q5 43 -10.5 66.5t-49.5 23.5z" />
    <glyph glyph-name="eacute" unicode="&#xe9;" horiz-adv-x="517" 
d="M327 546h-130l50 204h190zM493 194h-301q-2 -37 23 -52.5t87 -15.5q88 0 176 30l3 -137q-85 -35 -206 -35q-137 0 -197.5 64t-60.5 202q0 136 61.5 201t190.5 65q67 0 113 -18.5t70.5 -52.5t34.5 -74t10 -91q0 -47 -4 -86zM269 384q-35 0 -56.5 -23.5t-20.5 -66.5h137
q5 43 -10.5 66.5t-49.5 23.5z" />
    <glyph glyph-name="ecircumflex" unicode="&#xea;" horiz-adv-x="517" 
d="M187 546h-135l136 204h148l136 -204h-135l-75 80zM493 194h-301q-2 -37 23 -52.5t87 -15.5q88 0 176 30l3 -137q-85 -35 -206 -35q-137 0 -197.5 64t-60.5 202q0 136 61.5 201t190.5 65q67 0 113 -18.5t70.5 -52.5t34.5 -74t10 -91q0 -47 -4 -86zM269 384
q-35 0 -56.5 -23.5t-20.5 -66.5h137q5 43 -10.5 66.5t-49.5 23.5z" />
    <glyph glyph-name="edieresis" unicode="&#xeb;" horiz-adv-x="517" 
d="M27 648q0 46 32 78t78 32t78 -32t32 -78t-32 -78t-78 -32t-78 32t-32 78zM277 648q0 46 32 78t78 32t78 -32t32 -78t-32 -78t-78 -32t-78 32t-32 78zM493 194h-301q-2 -37 23 -52.5t87 -15.5q88 0 176 30l3 -137q-85 -35 -206 -35q-137 0 -197.5 64t-60.5 202
q0 136 61.5 201t190.5 65q67 0 113 -18.5t70.5 -52.5t34.5 -74t10 -91q0 -47 -4 -86zM269 384q-35 0 -56.5 -23.5t-20.5 -66.5h137q5 43 -10.5 66.5t-49.5 23.5z" />
    <glyph glyph-name="igrave" unicode="&#xec;" horiz-adv-x="284" 
d="M269 149v-151q-35 -8 -73 -8q-74 0 -118 35t-44 108v367h196v-321q0 -30 39 -30zM67 546l-110 204h190l50 -204h-130z" />
    <glyph glyph-name="iacute" unicode="&#xed;" horiz-adv-x="284" 
d="M269 149v-151q-35 -8 -73 -8q-74 0 -118 35t-44 108v367h196v-321q0 -30 39 -30zM197 546h-130l50 204h190z" />
    <glyph glyph-name="icircumflex" unicode="&#xee;" horiz-adv-x="284" 
d="M269 149v-151q-35 -8 -73 -8q-74 0 -118 35t-44 108v367h196v-321q0 -30 39 -30zM57 546h-135l136 204h148l136 -204h-135l-75 80z" />
    <glyph glyph-name="idieresis" unicode="&#xef;" horiz-adv-x="284" 
d="M269 149v-151q-35 -8 -73 -8q-74 0 -118 35t-44 108v367h196v-321q0 -30 39 -30zM-103 648q0 46 32 78t78 32t78 -32t32 -78t-32 -78t-78 -32t-78 32t-32 78zM147 648q0 46 32 78t78 32t78 -32t32 -78t-32 -78t-78 -32t-78 32t-32 78z" />
    <glyph glyph-name="eth" unicode="&#xf0;" horiz-adv-x="530" 
d="M513 250q-1 -136 -57 -201t-191 -65q-137 0 -192.5 65t-55.5 201q0 133 51.5 199.5t163.5 66.5q44 0 66 -8q-14 29 -39 62l-171 -60v107l96 35q-65 57 -148 98h236q39 -23 64 -45l128 45v-107l-51 -19q100 -142 100 -374zM207 250q0 -68 12.5 -93t45.5 -25t45 25t12 93
t-12 93t-45 25t-45.5 -25t-12.5 -93z" />
    <glyph glyph-name="ntilde" unicode="&#xf1;" horiz-adv-x="554" 
d="M32 500h130l18 -32q77 48 167 48q102 0 140.5 -46t38.5 -129v-341h-196v323q0 40 -38 40q-35 0 -64 -18v-345h-196v500zM57 563v20q0 89 36.5 132t101.5 43q29 0 54 -11t38.5 -25t29.5 -25t31 -11q44 0 44 47h109v-20q0 -89 -36.5 -132t-101.5 -43q-29 0 -54 11t-38.5 25
t-29.5 25t-31 11q-44 0 -44 -47h-109z" />
    <glyph glyph-name="ograve" unicode="&#xf2;" horiz-adv-x="530" 
d="M265 -16q-137 0 -192.5 65t-55.5 201t55.5 201t192.5 65t192.5 -65t55.5 -201t-55.5 -201t-192.5 -65zM200 546l-110 204h190l50 -204h-130zM265 132q33 0 45.5 25t12.5 93t-12.5 93t-45.5 25t-45.5 -25t-12.5 -93t12.5 -93t45.5 -25z" />
    <glyph glyph-name="oacute" unicode="&#xf3;" horiz-adv-x="530" 
d="M265 -16q-137 0 -192.5 65t-55.5 201t55.5 201t192.5 65t192.5 -65t55.5 -201t-55.5 -201t-192.5 -65zM330 546h-130l50 204h190zM265 132q33 0 45.5 25t12.5 93t-12.5 93t-45.5 25t-45.5 -25t-12.5 -93t12.5 -93t45.5 -25z" />
    <glyph glyph-name="ocircumflex" unicode="&#xf4;" horiz-adv-x="530" 
d="M265 132q33 0 45.5 25t12.5 93t-12.5 93t-45.5 25t-45.5 -25t-12.5 -93t12.5 -93t45.5 -25zM265 -16q-137 0 -192.5 65t-55.5 201t55.5 201t192.5 65t192.5 -65t55.5 -201t-55.5 -201t-192.5 -65zM190 546h-135l136 204h148l136 -204h-135l-75 80z" />
    <glyph glyph-name="otilde" unicode="&#xf5;" horiz-adv-x="530" 
d="M265 132q33 0 45.5 25t12.5 93t-12.5 93t-45.5 25t-45.5 -25t-12.5 -93t12.5 -93t45.5 -25zM265 -16q-137 0 -192.5 65t-55.5 201t55.5 201t192.5 65t192.5 -65t55.5 -201t-55.5 -201t-192.5 -65zM43 563v20q0 89 36.5 132t101.5 43q29 0 54 -11t38.5 -25t29.5 -25
t31 -11q44 0 44 47h109v-20q0 -89 -36.5 -132t-101.5 -43q-29 0 -54 11t-38.5 25t-29.5 25t-31 11q-44 0 -44 -47h-109z" />
    <glyph glyph-name="odieresis" unicode="&#xf6;" horiz-adv-x="530" 
d="M265 132q33 0 45.5 25t12.5 93t-12.5 93t-45.5 25t-45.5 -25t-12.5 -93t12.5 -93t45.5 -25zM265 -16q-137 0 -192.5 65t-55.5 201t55.5 201t192.5 65t192.5 -65t55.5 -201t-55.5 -201t-192.5 -65zM30 648q0 46 32 78t78 32t78 -32t32 -78t-32 -78t-78 -32t-78 32t-32 78z
M280 648q0 46 32 78t78 32t78 -32t32 -78t-32 -78t-78 -32t-78 32t-32 78z" />
    <glyph glyph-name="divide" unicode="&#xf7;" 
d="M560 250h-520v182h520v-182zM190 120q0 46 32 78t78 32t78 -32t32 -78t-32 -78t-78 -32t-78 32t-32 78zM190 562q0 46 32 78t78 32t78 -32t32 -78t-32 -78t-78 -32t-78 32t-32 78z" />
    <glyph glyph-name="oslash" unicode="&#xf8;" horiz-adv-x="530" 
d="M112 0h-99l50 61q-46 63 -46 189q0 136 55.5 201t192.5 65q87 0 143 -28l10 12h99l-50 -62q46 -61 46 -188q0 -136 -55.5 -201t-192.5 -65q-88 0 -144 28zM265 132q33 0 45.5 25t12.5 93v10l-95 -116q12 -12 37 -12zM207 250v-11l94 117q-13 12 -36 12q-33 0 -45.5 -25
t-12.5 -93z" />
    <glyph glyph-name="ugrave" unicode="&#xf9;" horiz-adv-x="554" 
d="M522 0h-130l-18 32q-77 -48 -167 -48q-102 0 -140.5 46t-38.5 129v341h196v-323q0 -40 38 -40q35 0 64 18v345h196v-500zM210 546l-110 204h190l50 -204h-130z" />
    <glyph glyph-name="uacute" unicode="&#xfa;" horiz-adv-x="554" 
d="M522 0h-130l-18 32q-77 -48 -167 -48q-102 0 -140.5 46t-38.5 129v341h196v-323q0 -40 38 -40q35 0 64 18v345h196v-500zM340 546h-130l50 204h190z" />
    <glyph glyph-name="ucircumflex" unicode="&#xfb;" horiz-adv-x="554" 
d="M522 0h-130l-18 32q-77 -48 -167 -48q-102 0 -140.5 46t-38.5 129v341h196v-323q0 -40 38 -40q35 0 64 18v345h196v-500zM200 546h-135l136 204h148l136 -204h-135l-75 80z" />
    <glyph glyph-name="udieresis" unicode="&#xfc;" horiz-adv-x="554" 
d="M522 0h-130l-18 32q-77 -48 -167 -48q-102 0 -140.5 46t-38.5 129v341h196v-323q0 -40 38 -40q35 0 64 18v345h196v-500zM40 648q0 46 32 78t78 32t78 -32t32 -78t-32 -78t-78 -32t-78 32t-32 78zM290 648q0 46 32 78t78 32t78 -32t32 -78t-32 -78t-78 -32t-78 32t-32 78
z" />
    <glyph glyph-name="yacute" unicode="&#xfd;" horiz-adv-x="542" 
d="M-3 500h211l63 -288l66 288h207l-268 -750h-221l116 257zM337 546h-130l50 204h190z" />
    <glyph glyph-name="thorn" unicode="&#xfe;" horiz-adv-x="555" 
d="M538 250q0 -141 -48.5 -203.5t-148.5 -62.5q-61 0 -113 27v-261h-196v1000h196v-261q52 27 113 27q100 0 148.5 -62.5t48.5 -203.5zM346 250q0 65 -13.5 91t-51.5 26q-31 0 -53 -15v-204q22 -15 53 -15q38 0 51.5 26t13.5 91z" />
    <glyph glyph-name="ydieresis" unicode="&#xff;" horiz-adv-x="542" 
d="M-3 500h211l63 -288l66 288h207l-268 -750h-221l116 257zM37 648q0 46 32 78t78 32t78 -32t32 -78t-32 -78t-78 -32t-78 32t-32 78zM287 648q0 46 32 78t78 32t78 -32t32 -78t-32 -78t-78 -32t-78 32t-32 78z" />
    <glyph glyph-name="Amacron" unicode="&#x100;" horiz-adv-x="640" 
d="M476 910v-124h-312v124h312zM399 136h-158l-28 -136h-206l184 754h258l184 -754h-206zM369 285l-49 286l-49 -286h98z" />
    <glyph glyph-name="amacron" unicode="&#x101;" horiz-adv-x="511" 
d="M412 713v-130h-312v130h312zM18 145q0 46 13.5 77.5t41.5 49t60 26t79 12.5l89 8v20q0 19 -14 27.5t-54 8.5q-95 0 -177 -41l-2 148q33 14 92 24.5t116 10.5q129 0 175 -46.5t46 -141.5v-328h-131l-19 32q-57 -48 -147 -48q-87 0 -127.5 44t-40.5 117zM302 223l-59 -7
q-29 -3 -42.5 -16t-13.5 -43q0 -50 49 -50q44 0 66 22v94z" />
    <glyph glyph-name="Abreve" unicode="&#x102;" horiz-adv-x="640" 
d="M320 776q-116 0 -162.5 26t-47.5 108h124q0 -22 19 -31t67 -9t67 9t19 31h124q-1 -82 -47.5 -108t-162.5 -26zM399 136h-158l-28 -136h-206l184 754h258l184 -754h-206zM369 285l-49 286l-49 -286h98z" />
    <glyph glyph-name="abreve" unicode="&#x103;" horiz-adv-x="511" 
d="M256 546q-109 0 -159 48t-51 156h124q0 -44 19 -62t67 -18t67 18t19 62h124q-1 -108 -51 -156t-159 -48zM18 145q0 46 13.5 77.5t41.5 49t60 26t79 12.5l89 8v20q0 19 -14 27.5t-54 8.5q-95 0 -177 -41l-2 148q33 14 92 24.5t116 10.5q129 0 175 -46.5t46 -141.5v-328
h-131l-19 32q-57 -48 -147 -48q-87 0 -127.5 44t-40.5 117zM302 223l-59 -7q-29 -3 -42.5 -16t-13.5 -43q0 -50 49 -50q44 0 66 22v94z" />
    <glyph glyph-name="Aogonek" unicode="&#x104;" horiz-adv-x="640" 
d="M399 136h-158l-28 -136h-206l184 754h258l184 -754q-53 -14 -81.5 -42t-28.5 -57q0 -46 60 -46q30 0 60 9v-98q-41 -16 -102 -16q-71 0 -114.5 32t-43.5 91q0 60 48 106zM369 285l-49 286l-49 -286h98z" />
    <glyph glyph-name="aogonek" unicode="&#x105;" horiz-adv-x="511" 
d="M18 145q0 46 13.5 77.5t41.5 49t60 26t79 12.5l89 8v20q0 19 -14 27.5t-54 8.5q-95 0 -177 -41l-2 148q33 14 92 24.5t116 10.5q129 0 175 -46.5t46 -141.5v-328q-53 -14 -81.5 -42t-28.5 -57q0 -46 60 -46q30 0 60 9v-98q-41 -16 -102 -16q-71 0 -114.5 32t-43.5 91
q0 89 107 147l-7 12q-57 -48 -147 -48q-87 0 -127.5 44t-40.5 117zM302 223l-59 -7q-29 -3 -42.5 -16t-13.5 -43q0 -50 49 -50q44 0 66 22v94z" />
    <glyph glyph-name="Cacute" unicode="&#x106;" horiz-adv-x="563" 
d="M29 375q1 203 82 297t251 94q96 0 174 -31l-2 -175q-78 27 -150 27q-80 0 -119 -46.5t-39 -165.5t38.5 -165.5t119.5 -46.5q72 0 150 27l2 -175q-72 -31 -174 -31q-170 0 -251 94t-82 297zM416 786h-160l46 124h194z" />
    <glyph glyph-name="cacute" unicode="&#x107;" horiz-adv-x="428" 
d="M17 250q0 133 59.5 199.5t193.5 66.5q81 0 133 -20l-2 -158q-43 17 -94 17q-50 0 -74 -24t-24 -81t24 -81t74 -24q51 0 94 17l2 -158q-52 -20 -133 -20q-134 0 -193.5 66.5t-59.5 199.5zM305 546h-130l50 204h190z" />
    <glyph glyph-name="Ccircumflex" unicode="&#x108;" horiz-adv-x="563" 
d="M29 375q1 203 82 297t251 94q96 0 174 -31l-2 -175q-78 27 -150 27q-80 0 -119 -46.5t-39 -165.5t38.5 -165.5t119.5 -46.5q72 0 150 27l2 -175q-72 -31 -174 -31q-170 0 -251 94t-82 297zM271 786h-145l126 124h168l126 -124h-145l-65 40z" />
    <glyph glyph-name="ccircumflex" unicode="&#x109;" horiz-adv-x="428" 
d="M17 250q0 133 59.5 199.5t193.5 66.5q81 0 133 -20l-2 -158q-43 17 -94 17q-50 0 -74 -24t-24 -81t24 -81t74 -24q51 0 94 17l2 -158q-52 -20 -133 -20q-134 0 -193.5 66.5t-59.5 199.5zM165 546h-135l136 204h148l136 -204h-135l-75 80z" />
    <glyph glyph-name="Cdotaccent" unicode="&#x10a;" horiz-adv-x="563" 
d="M29 375q1 203 82 297t251 94q96 0 174 -31l-2 -175q-78 27 -150 27q-80 0 -119 -46.5t-39 -165.5t38.5 -165.5t119.5 -46.5q72 0 150 27l2 -175q-72 -31 -174 -31q-170 0 -251 94t-82 297zM226 848q0 42 28.5 57t81.5 15t81.5 -15t28.5 -57t-28.5 -57t-81.5 -15t-81.5 15
t-28.5 57z" />
    <glyph glyph-name="cdotaccent" unicode="&#x10b;" horiz-adv-x="428" 
d="M17 250q0 133 59.5 199.5t193.5 66.5q81 0 133 -20l-2 -158q-43 17 -94 17q-50 0 -74 -24t-24 -81t24 -81t74 -24q51 0 94 17l2 -158q-52 -20 -133 -20q-134 0 -193.5 66.5t-59.5 199.5zM130 648q0 46 32 78t78 32t78 -32t32 -78t-32 -78t-78 -32t-78 32t-32 78z" />
    <glyph glyph-name="Ccaron" unicode="&#x10c;" horiz-adv-x="563" 
d="M29 375q1 203 82 297t251 94q96 0 174 -31l-2 -175q-78 27 -150 27q-80 0 -119 -46.5t-39 -165.5t38.5 -165.5t119.5 -46.5q72 0 150 27l2 -175q-72 -31 -174 -31q-170 0 -251 94t-82 297zM401 910h145l-126 -124h-168l-126 124h145l65 -40z" />
    <glyph glyph-name="ccaron" unicode="&#x10d;" horiz-adv-x="428" 
d="M17 250q0 133 59.5 199.5t193.5 66.5q81 0 133 -20l-2 -158q-43 17 -94 17q-50 0 -74 -24t-24 -81t24 -81t74 -24q51 0 94 17l2 -158q-52 -20 -133 -20q-134 0 -193.5 66.5t-59.5 199.5zM315 750h135l-136 -204h-148l-136 204h135l75 -80z" />
    <glyph glyph-name="Dcaron" unicode="&#x10e;" horiz-adv-x="646" 
d="M293 0h-256v750h256q96 0 161.5 -28t100.5 -81t49.5 -117t14.5 -149q0 -68 -8.5 -121.5t-30.5 -102t-58.5 -81t-94 -51.5t-134.5 -19zM233 579v-408h61q71 0 97.5 48.5t26.5 155.5q0 106 -27 155t-97 49h-61zM355 910h145l-126 -124h-168l-126 124h145l65 -40z" />
    <glyph glyph-name="dcaron" unicode="&#x10f;" horiz-adv-x="555" 
d="M523 0h-130l-21 33q-74 -49 -158 -49q-100 0 -148.5 62.5t-48.5 203.5t48.5 203.5t148.5 62.5q61 0 113 -27v261h196v-750zM327 147v205q-23 15 -53 15q-38 0 -51.5 -26t-13.5 -91q0 -66 13.5 -92t51.5 -26q30 0 53 15zM569 750h113l-48 -200h-81z" />
    <glyph glyph-name="Dcroat" unicode="&#x110;" horiz-adv-x="696" 
d="M10 304v143h77v303h256q96 0 161.5 -28t100.5 -81t49.5 -117t14.5 -149q0 -68 -8.5 -121.5t-30.5 -102t-58.5 -81t-94 -51.5t-134.5 -19h-256v304h-77zM283 579v-132h127v-143h-127v-133h61q71 0 97.5 48.5t26.5 155.5q0 106 -27 155t-97 49h-61z" />
    <glyph glyph-name="dcroat" unicode="&#x111;" horiz-adv-x="555" 
d="M224 546v124h103v80h196v-80h70v-124h-70v-546h-130l-21 33q-74 -49 -158 -49q-100 0 -148.5 62.5t-48.5 203.5t48.5 203.5t148.5 62.5q61 0 113 -27v57h-103zM327 147v205q-23 15 -53 15q-38 0 -51.5 -26t-13.5 -91q0 -66 13.5 -92t51.5 -26q30 0 53 15z" />
    <glyph glyph-name="Emacron" unicode="&#x112;" horiz-adv-x="571" 
d="M513 472v-173h-280v-126h308v-173h-504v750h504v-173h-308v-105h280zM454 910v-124h-312v124h312z" />
    <glyph glyph-name="emacron" unicode="&#x113;" horiz-adv-x="517" 
d="M418 713v-130h-312v130h312zM493 194h-301q-2 -37 23 -52.5t87 -15.5q88 0 176 30l3 -137q-85 -35 -206 -35q-137 0 -197.5 64t-60.5 202q0 136 61.5 201t190.5 65q67 0 113 -18.5t70.5 -52.5t34.5 -74t10 -91q0 -47 -4 -86zM269 384q-35 0 -56.5 -23.5t-20.5 -66.5h137
q5 43 -10.5 66.5t-49.5 23.5z" />
    <glyph glyph-name="Ebreve" unicode="&#x114;" horiz-adv-x="571" 
d="M513 472v-173h-280v-126h308v-173h-504v750h504v-173h-308v-105h280zM298 776q-116 0 -162.5 26t-47.5 108h124q0 -22 19 -31t67 -9t67 9t19 31h124q-1 -82 -47.5 -108t-162.5 -26z" />
    <glyph glyph-name="ebreve" unicode="&#x115;" horiz-adv-x="517" 
d="M262 546q-109 0 -159 48t-51 156h124q0 -44 19 -62t67 -18t67 18t19 62h124q-1 -108 -51 -156t-159 -48zM493 194h-301q-2 -37 23 -52.5t87 -15.5q88 0 176 30l3 -137q-85 -35 -206 -35q-137 0 -197.5 64t-60.5 202q0 136 61.5 201t190.5 65q67 0 113 -18.5t70.5 -52.5
t34.5 -74t10 -91q0 -47 -4 -86zM269 384q-35 0 -56.5 -23.5t-20.5 -66.5h137q5 43 -10.5 66.5t-49.5 23.5z" />
    <glyph glyph-name="Edotaccent" unicode="&#x116;" horiz-adv-x="571" 
d="M513 472v-173h-280v-126h308v-173h-504v750h504v-173h-308v-105h280zM188 848q0 42 28.5 57t81.5 15t81.5 -15t28.5 -57t-28.5 -57t-81.5 -15t-81.5 15t-28.5 57z" />
    <glyph glyph-name="edotaccent" unicode="&#x117;" horiz-adv-x="517" 
d="M152 648q0 46 32 78t78 32t78 -32t32 -78t-32 -78t-78 -32t-78 32t-32 78zM493 194h-301q-2 -37 23 -52.5t87 -15.5q88 0 176 30l3 -137q-85 -35 -206 -35q-137 0 -197.5 64t-60.5 202q0 136 61.5 201t190.5 65q67 0 113 -18.5t70.5 -52.5t34.5 -74t10 -91q0 -47 -4 -86z
M269 384q-35 0 -56.5 -23.5t-20.5 -66.5h137q5 43 -10.5 66.5t-49.5 23.5z" />
    <glyph glyph-name="Eogonek" unicode="&#x118;" horiz-adv-x="571" 
d="M513 472v-173h-280v-126h308v-173q-53 -14 -81.5 -42t-28.5 -57q0 -46 60 -46q30 0 60 9v-98q-41 -16 -102 -16q-71 0 -114.5 32t-43.5 91q0 74 75 127h-329v750h504v-173h-308v-105h280z" />
    <glyph glyph-name="eogonek" unicode="&#x119;" horiz-adv-x="517" 
d="M17 250q0 136 61.5 201t190.5 65q67 0 113 -18.5t70.5 -52.5t34.5 -74t10 -91q0 -47 -4 -86h-301q-2 -37 23 -52.5t87 -15.5q88 0 176 30l3 -137q-34 -14 -67 -20q-51 -15 -78 -42.5t-27 -55.5q0 -46 60 -46q30 0 60 9v-98q-41 -16 -102 -16q-71 0 -114.5 32t-43.5 91
q0 64 57 113q-110 10 -159.5 74.5t-49.5 189.5zM269 384q-35 0 -56.5 -23.5t-20.5 -66.5h137q5 43 -10.5 66.5t-49.5 23.5z" />
    <glyph glyph-name="Ecaron" unicode="&#x11a;" horiz-adv-x="571" 
d="M513 472v-173h-280v-126h308v-173h-504v750h504v-173h-308v-105h280zM363 910h145l-126 -124h-168l-126 124h145l65 -40z" />
    <glyph glyph-name="ecaron" unicode="&#x11b;" horiz-adv-x="517" 
d="M337 750h135l-136 -204h-148l-136 204h135l75 -80zM493 194h-301q-2 -37 23 -52.5t87 -15.5q88 0 176 30l3 -137q-85 -35 -206 -35q-137 0 -197.5 64t-60.5 202q0 136 61.5 201t190.5 65q67 0 113 -18.5t70.5 -52.5t34.5 -74t10 -91q0 -47 -4 -86zM269 384
q-35 0 -56.5 -23.5t-20.5 -66.5h137q5 43 -10.5 66.5t-49.5 23.5z" />
    <glyph glyph-name="Gcircumflex" unicode="&#x11c;" horiz-adv-x="645" 
d="M287 786h-145l126 124h168l126 -124h-145l-65 40zM359 -16q-169 0 -249.5 96.5t-80.5 294.5t80.5 294.5t251.5 96.5q146 0 236 -40l-2 -178q-108 39 -205 39q-89 0 -126.5 -49.5t-37.5 -163.5q0 -125 40 -173t134 -48l13 1v134h-94v161h290v-410q-89 -55 -250 -55z" />
    <glyph glyph-name="gcircumflex" unicode="&#x11d;" horiz-adv-x="549" 
d="M16 323q0 100 56 146.5t179 46.5q80 0 128 -16h164v-125l-59 -16q3 -18 3 -36q0 -101 -56.5 -147t-179.5 -46q-35 0 -51 1q-5 -7 -5 -15q0 -15 20 -16l201 -22q75 -8 105 -47.5t30 -105.5q0 -65 -45 -109t-115 -63t-160 -19q-246 0 -246 136q0 49 29.5 79.5t73.5 40.5
q-24 9 -37.5 32t-13.5 50t15.5 50.5t40.5 38.5q-77 45 -77 162zM342 -58l-150 18q-29 -13 -29 -41q0 -48 87 -48q50 0 82.5 13t32.5 34t-23 24zM194 320q0 -66 57 -66t57 66t-57 66t-57 -66zM176 546h-135l136 204h148l136 -204h-135l-75 80z" />
    <glyph glyph-name="Gbreve" unicode="&#x11e;" horiz-adv-x="645" 
d="M352 776q-116 0 -162.5 26t-47.5 108h124q0 -22 19 -31t67 -9t67 9t19 31h124q-1 -82 -47.5 -108t-162.5 -26zM359 -16q-169 0 -249.5 96.5t-80.5 294.5t80.5 294.5t251.5 96.5q146 0 236 -40l-2 -178q-108 39 -205 39q-89 0 -126.5 -49.5t-37.5 -163.5q0 -125 40 -173
t134 -48l13 1v134h-94v161h290v-410q-89 -55 -250 -55z" />
    <glyph glyph-name="gbreve" unicode="&#x11f;" horiz-adv-x="549" 
d="M16 323q0 100 56 146.5t179 46.5q80 0 128 -16h164v-125l-59 -16q3 -18 3 -36q0 -101 -56.5 -147t-179.5 -46q-35 0 -51 1q-5 -7 -5 -15q0 -15 20 -16l201 -22q75 -8 105 -47.5t30 -105.5q0 -65 -45 -109t-115 -63t-160 -19q-246 0 -246 136q0 49 29.5 79.5t73.5 40.5
q-24 9 -37.5 32t-13.5 50t15.5 50.5t40.5 38.5q-77 45 -77 162zM342 -58l-150 18q-29 -13 -29 -41q0 -48 87 -48q50 0 82.5 13t32.5 34t-23 24zM194 320q0 -66 57 -66t57 66t-57 66t-57 -66zM251 546q-109 0 -159 48t-51 156h124q0 -44 19 -62t67 -18t67 18t19 62h124
q-1 -108 -51 -156t-159 -48z" />
    <glyph glyph-name="Gdotaccent" unicode="&#x120;" horiz-adv-x="645" 
d="M242 848q0 42 28.5 57t81.5 15t81.5 -15t28.5 -57t-28.5 -57t-81.5 -15t-81.5 15t-28.5 57zM359 -16q-169 0 -249.5 96.5t-80.5 294.5t80.5 294.5t251.5 96.5q146 0 236 -40l-2 -178q-108 39 -205 39q-89 0 -126.5 -49.5t-37.5 -163.5q0 -125 40 -173t134 -48l13 1v134
h-94v161h290v-410q-89 -55 -250 -55z" />
    <glyph glyph-name="gdotaccent" unicode="&#x121;" horiz-adv-x="549" 
d="M16 323q0 100 56 146.5t179 46.5q80 0 128 -16h164v-125l-59 -16q3 -18 3 -36q0 -101 -56.5 -147t-179.5 -46q-35 0 -51 1q-5 -7 -5 -15q0 -15 20 -16l201 -22q75 -8 105 -47.5t30 -105.5q0 -65 -45 -109t-115 -63t-160 -19q-246 0 -246 136q0 49 29.5 79.5t73.5 40.5
q-24 9 -37.5 32t-13.5 50t15.5 50.5t40.5 38.5q-77 45 -77 162zM342 -58l-150 18q-29 -13 -29 -41q0 -48 87 -48q50 0 82.5 13t32.5 34t-23 24zM194 320q0 -66 57 -66t57 66t-57 66t-57 -66zM141 648q0 46 32 78t78 32t78 -32t32 -78t-32 -78t-78 -32t-78 32t-32 78z" />
    <glyph glyph-name="Gcommaaccent" unicode="&#x122;" horiz-adv-x="645" 
d="M388 -250h-146l20 204h186zM359 -16q-169 0 -249.5 96.5t-80.5 294.5t80.5 294.5t251.5 96.5q146 0 236 -40l-2 -178q-108 39 -205 39q-89 0 -126.5 -49.5t-37.5 -163.5q0 -125 40 -173t134 -48l13 1v134h-94v161h290v-410q-89 -55 -250 -55z" />
    <glyph glyph-name="gcommaaccent" unicode="&#x123;" horiz-adv-x="549" 
d="M16 323q0 100 56 146.5t179 46.5q80 0 128 -16h164v-125l-59 -16q3 -18 3 -36q0 -101 -56.5 -147t-179.5 -46q-35 0 -51 1q-5 -7 -5 -15q0 -15 20 -16l201 -22q75 -8 105 -47.5t30 -105.5q0 -65 -45 -109t-115 -63t-160 -19q-246 0 -246 136q0 49 29.5 79.5t73.5 40.5
q-24 9 -37.5 32t-13.5 50t15.5 50.5t40.5 38.5q-77 45 -77 162zM215 750h146l-20 -204h-186zM342 -58l-150 18q-29 -13 -29 -41q0 -48 87 -48q50 0 82.5 13t32.5 34t-23 24zM194 320q0 -66 57 -66t57 66t-57 66t-57 -66z" />
    <glyph glyph-name="Hcircumflex" unicode="&#x124;" horiz-adv-x="646" 
d="M609 0h-196v299h-180v-299h-196v750h196v-278h180v278h196v-750zM258 786h-145l126 124h168l126 -124h-145l-65 40z" />
    <glyph glyph-name="hcircumflex" unicode="&#x125;" horiz-adv-x="554" 
d="M32 750h196v-260q54 26 119 26q102 0 140.5 -46t38.5 -129v-341h-196v323q0 40 -38 40q-35 0 -64 -18v-345h-196v750zM65 786h-145l126 124h168l126 -124h-145l-65 40z" />
    <glyph glyph-name="Hbar" unicode="&#x126;" horiz-adv-x="647" 
d="M233 0h-196v750h196v-70h180v70h196v-750h-196v299h-180v-299zM233 472h180v65h-180v-65z" />
    <glyph glyph-name="hbar" unicode="&#x127;" horiz-adv-x="554" 
d="M-38 546v124h70v80h196v-80h103v-124h-103v-56q54 26 119 26q102 0 140.5 -46t38.5 -129v-341h-196v323q0 40 -38 40q-35 0 -64 -18v-345h-196v546h-70z" />
    <glyph glyph-name="Itilde" unicode="&#x128;" horiz-adv-x="282" 
d="M239 0h-196v750h196v-750zM363 910v-6q0 -71 -33 -99t-94 -28q-43 0 -94.5 22t-69.5 22q-44 0 -44 -35h-109v6q0 71 33 99t94 28q43 0 94.5 -22t69.5 -22q44 0 44 35h109z" />
    <glyph glyph-name="itilde" unicode="&#x129;" horiz-adv-x="284" 
d="M269 149v-151q-35 -8 -73 -8q-74 0 -118 35t-44 108v367h196v-321q0 -30 39 -30zM-90 563v20q0 89 36.5 132t101.5 43q29 0 54 -11t38.5 -25t29.5 -25t31 -11q44 0 44 47h109v-20q0 -89 -36.5 -132t-101.5 -43q-29 0 -54 11t-38.5 25t-29.5 25t-31 11q-44 0 -44 -47h-109
z" />
    <glyph glyph-name="Imacron" unicode="&#x12a;" horiz-adv-x="282" 
d="M239 0h-196v750h196v-750zM297 910v-124h-312v124h312z" />
    <glyph glyph-name="imacron" unicode="&#x12b;" horiz-adv-x="284" 
d="M269 149v-151q-35 -8 -73 -8q-74 0 -118 35t-44 108v367h196v-321q0 -30 39 -30zM288 713v-130h-312v130h312z" />
    <glyph glyph-name="Ibreve" unicode="&#x12c;" horiz-adv-x="282" 
d="M239 0h-196v750h196v-750zM141 776q-116 0 -162.5 26t-47.5 108h124q0 -22 19 -31t67 -9t67 9t19 31h124q-1 -82 -47.5 -108t-162.5 -26z" />
    <glyph glyph-name="Iogonek" unicode="&#x12e;" horiz-adv-x="282" 
d="M239 0q-52 -14 -76 -41.5t-24 -57.5q0 -46 60 -46q30 0 60 9v-98q-41 -16 -102 -16q-71 0 -114.5 32t-43.5 91q0 61 44 105v772h196v-750z" />
    <glyph glyph-name="iogonek" unicode="&#x12f;" horiz-adv-x="284" 
d="M269 149v-151h-2q-52 -13 -80 -40.5t-28 -56.5q0 -46 60 -46q30 0 60 9v-98q-41 -16 -102 -16q-71 0 -114.5 32t-43.5 91q0 81 86 134q-71 34 -71 126v367h196v-321q0 -30 39 -30zM22 648q0 46 32 78t78 32t78 -32t32 -78t-32 -78t-78 -32t-78 32t-32 78z" />
    <glyph glyph-name="Idotaccent" unicode="&#x130;" horiz-adv-x="282" 
d="M239 0h-196v750h196v-750zM31 848q0 42 28.5 57t81.5 15t81.5 -15t28.5 -57t-28.5 -57t-81.5 -15t-81.5 15t-28.5 57z" />
    <glyph glyph-name="dotlessi" unicode="&#x131;" horiz-adv-x="284" 
d="M269 149v-151q-35 -8 -73 -8q-74 0 -118 35t-44 108v367h196v-321q0 -30 39 -30z" />
    <glyph glyph-name="IJ" unicode="&#x132;" horiz-adv-x="657" 
d="M239 0h-196v750h196v-750zM273 4l3 173q46 -16 88 -16q64 0 64 62v527h196v-575q0 -97 -57 -144t-178 -47q-73 0 -116 20z" />
    <glyph glyph-name="ij" unicode="&#x133;" horiz-adv-x="538" 
d="M269 149v-151q-35 -8 -73 -8q-74 0 -118 35t-44 108v367h196v-321q0 -30 39 -30zM22 648q0 46 32 78t78 32t78 -32t32 -78t-32 -78t-78 -32t-78 32t-32 78zM212 -266v159q54 0 73 20.5t19 63.5v523h196v-560q0 -105 -80 -155.5t-208 -50.5zM292 648q0 46 32 78t78 32
t78 -32t32 -78t-32 -78t-78 -32t-78 32t-32 78z" />
    <glyph glyph-name="Jcircumflex" unicode="&#x134;" horiz-adv-x="387" 
d="M3 4l3 173q46 -16 88 -16q64 0 64 62v527h196v-575q0 -97 -57 -144t-178 -47q-73 0 -116 20zM191 786h-145l126 124h168l126 -124h-145l-65 40z" />
    <glyph glyph-name="jcircumflex" unicode="&#x135;" horiz-adv-x="273" 
d="M-53 -266v159q54 0 73 20.5t19 63.5v523h196v-560q0 -105 -80 -155.5t-208 -50.5zM62 546h-135l136 204h148l136 -204h-135l-75 80z" />
    <glyph glyph-name="Kcommaaccent" unicode="&#x136;" horiz-adv-x="663" 
d="M424 0l-152 276l-40 -59v-217h-195v750h195v-301l184 301h234l-242 -329l260 -421h-244zM356 -250h-146l20 204h186z" />
    <glyph glyph-name="kcommaaccent" unicode="&#x137;" horiz-adv-x="569" 
d="M32 750h196l-5 -409l105 159h231l-178 -212l193 -288h-237l-90 177l-23 -33l4 -144h-196v750zM319 -250h-146l20 204h186z" />
    <glyph glyph-name="kgreenlandic" unicode="&#x138;" horiz-adv-x="569" 
d="M32 500h196l-5 -159l105 159h231l-178 -212l193 -288h-237l-90 177l-23 -33l4 -144h-196v500z" />
    <glyph glyph-name="Lacute" unicode="&#x139;" horiz-adv-x="525" 
d="M233 750v-577h282v-173h-478v750h196zM215 786h-160l46 124h194z" />
    <glyph glyph-name="lacute" unicode="&#x13a;" horiz-adv-x="284" 
d="M269 149v-151q-35 -8 -73 -8q-74 0 -118 35t-44 108v617h196v-571q0 -30 39 -30zM212 786h-160l46 124h194z" />
    <glyph glyph-name="Lcommaaccent" unicode="&#x13b;" horiz-adv-x="525" 
d="M233 750v-577h282v-173h-478v750h196zM312 -250h-146l20 204h186z" />
    <glyph glyph-name="lcommaaccent" unicode="&#x13c;" horiz-adv-x="284" 
d="M269 149v-151q-35 -8 -73 -8q-74 0 -118 35t-44 108v617h196v-571q0 -30 39 -30zM181 -250h-146l20 204h186z" />
    <glyph glyph-name="Lcaron" unicode="&#x13d;" horiz-adv-x="525" 
d="M233 750v-577h282v-173h-478v750h196zM299 750h113l-48 -200h-81z" />
    <glyph glyph-name="lcaron" unicode="&#x13e;" horiz-adv-x="284" 
d="M269 149v-151q-35 -8 -73 -8q-74 0 -118 35t-44 108v617h196v-571q0 -30 39 -30zM276 750h113l-48 -200h-81z" />
    <glyph glyph-name="Ldot" unicode="&#x13f;" horiz-adv-x="537" 
d="M233 750v-577h282v-173h-478v750h196zM294 375q0 46 32 78t78 32t78 -32t32 -78t-32 -78t-78 -32t-78 32t-32 78z" />
    <glyph glyph-name="ldot" unicode="&#x140;" horiz-adv-x="470" 
d="M269 149v-151q-35 -8 -73 -8q-74 0 -118 35t-44 108v617h196v-571q0 -30 39 -30zM257 325q0 46 32 78t78 32t78 -32t32 -78t-32 -78t-78 -32t-78 32t-32 78z" />
    <glyph glyph-name="Lslash" unicode="&#x141;" horiz-adv-x="565" 
d="M273 750v-310l166 76v-121l-166 -76v-146h282v-173h-478v229l-79 -36v121l79 36v400h196z" />
    <glyph glyph-name="lslash" unicode="&#x142;" horiz-adv-x="354" 
d="M302 149v-151q-35 -8 -73 -8q-74 0 -118 35t-44 108v106l-68 -36v124l68 36v387h196v-283l93 49v-124l-93 -49v-164q0 -30 39 -30z" />
    <glyph glyph-name="Nacute" unicode="&#x143;" horiz-adv-x="660" 
d="M37 750h189l210 -390l-9 390h196v-750h-189l-210 390l9 -390h-196v750zM410 786h-160l46 124h194z" />
    <glyph glyph-name="nacute" unicode="&#x144;" horiz-adv-x="554" 
d="M32 500h130l18 -32q77 48 167 48q102 0 140.5 -46t38.5 -129v-341h-196v323q0 40 -38 40q-35 0 -64 -18v-345h-196v500zM344 546h-130l50 204h190z" />
    <glyph glyph-name="Ncommaaccent" unicode="&#x145;" horiz-adv-x="660" 
d="M37 750h189l210 -390l-9 390h196v-750h-189l-210 390l9 -390h-196v750zM366 -250h-146l20 204h186z" />
    <glyph glyph-name="ncommaaccent" unicode="&#x146;" horiz-adv-x="554" 
d="M32 500h130l18 -32q77 48 167 48q102 0 140.5 -46t38.5 -129v-341h-196v323q0 40 -38 40q-35 0 -64 -18v-345h-196v500zM315 -250h-146l20 204h186z" />
    <glyph glyph-name="Ncaron" unicode="&#x147;" horiz-adv-x="660" 
d="M37 750h189l210 -390l-9 390h196v-750h-189l-210 390l9 -390h-196v750zM395 910h145l-126 -124h-168l-126 124h145l65 -40z" />
    <glyph glyph-name="ncaron" unicode="&#x148;" horiz-adv-x="554" 
d="M32 500h130l18 -32q77 48 167 48q102 0 140.5 -46t38.5 -129v-341h-196v323q0 40 -38 40q-35 0 -64 -18v-345h-196v500zM354 750h135l-136 -204h-148l-136 204h135l75 -80z" />
    <glyph glyph-name="Eng" unicode="&#x14a;" horiz-adv-x="657" 
d="M335 -266v159q54 0 73 20.5t19 63.5v36l-203 377l9 -390h-196v750h189l210 -390l-9 390h196v-810q0 -105 -80 -155.5t-208 -50.5z" />
    <glyph glyph-name="eng" unicode="&#x14b;" horiz-adv-x="554" 
d="M238 -266v159q54 0 73 20.5t19 63.5v346q0 40 -38 40q-35 0 -64 -18v-345h-196v500h130l18 -32q77 48 167 48q102 0 140.5 -46t38.5 -129v-401q0 -105 -80 -155.5t-208 -50.5z" />
    <glyph glyph-name="Omacron" unicode="&#x14c;" horiz-adv-x="666" 
d="M29 375q0 75 7.5 132t28 107.5t54.5 82.5t87.5 50.5t126.5 18.5t126.5 -18.5t87.5 -50.5t54.5 -82.5t28 -107.5t7.5 -132t-7.5 -132t-28 -107.5t-54.5 -82.5t-87.5 -50.5t-126.5 -18.5t-126.5 18.5t-87.5 50.5t-54.5 82.5t-28 107.5t-7.5 132zM438 375q0 125 -22.5 171
t-82.5 46t-82.5 -46t-22.5 -171t22.5 -171t82.5 -46t82.5 46t22.5 171zM489 910v-124h-312v124h312z" />
    <glyph glyph-name="omacron" unicode="&#x14d;" horiz-adv-x="530" 
d="M265 -16q-137 0 -192.5 65t-55.5 201t55.5 201t192.5 65t192.5 -65t55.5 -201t-55.5 -201t-192.5 -65zM421 713v-130h-312v130h312zM265 132q33 0 45.5 25t12.5 93t-12.5 93t-45.5 25t-45.5 -25t-12.5 -93t12.5 -93t45.5 -25z" />
    <glyph glyph-name="Obreve" unicode="&#x14e;" horiz-adv-x="666" 
d="M29 375q0 75 7.5 132t28 107.5t54.5 82.5t87.5 50.5t126.5 18.5t126.5 -18.5t87.5 -50.5t54.5 -82.5t28 -107.5t7.5 -132t-7.5 -132t-28 -107.5t-54.5 -82.5t-87.5 -50.5t-126.5 -18.5t-126.5 18.5t-87.5 50.5t-54.5 82.5t-28 107.5t-7.5 132zM438 375q0 125 -22.5 171
t-82.5 46t-82.5 -46t-22.5 -171t22.5 -171t82.5 -46t82.5 46t22.5 171zM333 776q-116 0 -162.5 26t-47.5 108h124q0 -22 19 -31t67 -9t67 9t19 31h124q-1 -82 -47.5 -108t-162.5 -26z" />
    <glyph glyph-name="obreve" unicode="&#x14f;" horiz-adv-x="530" 
d="M265 132q33 0 45.5 25t12.5 93t-12.5 93t-45.5 25t-45.5 -25t-12.5 -93t12.5 -93t45.5 -25zM265 -16q-137 0 -192.5 65t-55.5 201t55.5 201t192.5 65t192.5 -65t55.5 -201t-55.5 -201t-192.5 -65zM265 546q-109 0 -159 48t-51 156h124q0 -44 19 -62t67 -18t67 18t19 62
h124q-1 -108 -51 -156t-159 -48z" />
    <glyph glyph-name="Ohungarumlaut" unicode="&#x150;" horiz-adv-x="666" 
d="M29 375q0 75 7.5 132t28 107.5t54.5 82.5t87.5 50.5t126.5 18.5t126.5 -18.5t87.5 -50.5t54.5 -82.5t28 -107.5t7.5 -132t-7.5 -132t-28 -107.5t-54.5 -82.5t-87.5 -50.5t-126.5 -18.5t-126.5 18.5t-87.5 50.5t-54.5 82.5t-28 107.5t-7.5 132zM438 375q0 125 -22.5 171
t-82.5 46t-82.5 -46t-22.5 -171t22.5 -171t82.5 -46t82.5 46t22.5 171zM518 786h-160l46 124h194zM308 786h-160l46 124h194z" />
    <glyph glyph-name="ohungarumlaut" unicode="&#x151;" horiz-adv-x="530" 
d="M265 -16q-137 0 -192.5 65t-55.5 201t55.5 201t192.5 65t192.5 -65t55.5 -201t-55.5 -201t-192.5 -65zM430 546h-130l50 204h190zM230 546h-130l50 204h190zM265 132q33 0 45.5 25t12.5 93t-12.5 93t-45.5 25t-45.5 -25t-12.5 -93t12.5 -93t45.5 -25z" />
    <glyph glyph-name="OE" unicode="&#x152;" horiz-adv-x="907" 
d="M849 472v-173h-260v-126h288v-173h-524q-96 0 -161.5 28t-100.5 81t-49.5 117t-14.5 149q0 68 8.5 121.5t30.5 102t58.5 81t94 51.5t134.5 19h524v-173h-288v-105h260zM393 171v408h-41q-71 0 -97.5 -48.5t-26.5 -155.5q0 -106 27 -155t97 -49h41z" />
    <glyph glyph-name="oe" unicode="&#x153;" horiz-adv-x="827" 
d="M265 132q33 0 45.5 25t12.5 93t-12.5 93t-45.5 25t-45.5 -25t-12.5 -93t12.5 -93t45.5 -25zM585 -16q-112 0 -163 45q-50 -45 -157 -45q-137 0 -192.5 65t-55.5 201t55.5 201t192.5 65q107 0 157 -45q48 45 157 45q67 0 113 -18.5t70.5 -52.5t34.5 -74t10 -91
q0 -47 -4 -86h-301q-2 -37 23 -52.5t87 -15.5q88 0 176 30l3 -137q-85 -35 -206 -35zM579 384q-35 0 -56.5 -23.5t-20.5 -66.5h137q5 43 -10.5 66.5t-49.5 23.5z" />
    <glyph glyph-name="Racute" unicode="&#x154;" horiz-adv-x="627" 
d="M366 786h-160l46 124h194zM233 273v-273h-196v750h277q150 0 213 -61.5t63 -178.5q0 -146 -98 -200l135 -310h-227l-98 273h-69zM233 587v-157h84q64 0 64 79q0 78 -64 78h-84z" />
    <glyph glyph-name="racute" unicode="&#x155;" horiz-adv-x="387" 
d="M379 508l-2 -161q-16 4 -49 4q-64 0 -100 -25v-326h-196v500h130l18 -32q55 48 145 48q38 0 54 -8zM268 546h-130l50 204h190z" />
    <glyph glyph-name="Rcommaaccent" unicode="&#x156;" horiz-adv-x="627" 
d="M351 -250h-146l20 204h186zM233 273v-273h-196v750h277q150 0 213 -61.5t63 -178.5q0 -146 -98 -200l135 -310h-227l-98 273h-69zM233 587v-157h84q64 0 64 79q0 78 -64 78h-84z" />
    <glyph glyph-name="rcommaaccent" unicode="&#x157;" horiz-adv-x="387" 
d="M379 508l-2 -161q-16 4 -49 4q-64 0 -100 -25v-326h-196v500h130l18 -32q55 48 145 48q38 0 54 -8zM166 -250h-146l20 204h186z" />
    <glyph glyph-name="Rcaron" unicode="&#x158;" horiz-adv-x="627" 
d="M351 910h145l-126 -124h-168l-126 124h145l65 -40zM233 273v-273h-196v750h277q150 0 213 -61.5t63 -178.5q0 -146 -98 -200l135 -310h-227l-98 273h-69zM233 587v-157h84q64 0 64 79q0 78 -64 78h-84z" />
    <glyph glyph-name="rcaron" unicode="&#x159;" horiz-adv-x="387" 
d="M379 508l-2 -161q-16 4 -49 4q-64 0 -100 -25v-326h-196v500h130l18 -32q55 48 145 48q38 0 54 -8zM278 750h135l-136 -204h-148l-136 204h135l75 -80z" />
    <glyph glyph-name="Sacute" unicode="&#x15a;" horiz-adv-x="597" 
d="M316 465q141 -17 200 -62.5t59 -165.5q0 -136 -78.5 -194.5t-223.5 -58.5q-160 0 -246 52l2 183q100 -57 227 -57q123 0 123 65q0 33 -21.5 47.5t-68.5 20.5q-145 17 -203.5 65t-58.5 167q0 114 73 176.5t222 62.5q143 0 221 -39l-3 -179q-36 17 -93.5 28.5t-109.5 11.5
q-115 0 -115 -60q0 -31 22 -44t72 -19zM385 786h-160l46 124h194z" />
    <glyph glyph-name="sacute" unicode="&#x15b;" horiz-adv-x="471" 
d="M295 546h-130l50 204h190zM430 488l-3 -148q-81 32 -168 32q-56 0 -56 -30q0 -28 39 -31q124 -10 165 -40t41 -112q0 -175 -234 -175q-107 0 -191 34l3 148q95 -39 186 -39q57 0 57 30q0 28 -40 31q-121 11 -163.5 41.5t-42.5 110.5q0 83 55.5 129.5t172.5 46.5
q110 0 179 -28z" />
    <glyph glyph-name="Scircumflex" unicode="&#x15c;" horiz-adv-x="597" 
d="M316 465q141 -17 200 -62.5t59 -165.5q0 -136 -78.5 -194.5t-223.5 -58.5q-160 0 -246 52l2 183q100 -57 227 -57q123 0 123 65q0 33 -21.5 47.5t-68.5 20.5q-145 17 -203.5 65t-58.5 167q0 114 73 176.5t222 62.5q143 0 221 -39l-3 -179q-36 17 -93.5 28.5t-109.5 11.5
q-115 0 -115 -60q0 -31 22 -44t72 -19zM240 786h-145l126 124h168l126 -124h-145l-65 40z" />
    <glyph glyph-name="scircumflex" unicode="&#x15d;" horiz-adv-x="471" 
d="M155 546h-135l136 204h148l136 -204h-135l-75 80zM430 488l-3 -148q-81 32 -168 32q-56 0 -56 -30q0 -28 39 -31q124 -10 165 -40t41 -112q0 -175 -234 -175q-107 0 -191 34l3 148q95 -39 186 -39q57 0 57 30q0 28 -40 31q-121 11 -163.5 41.5t-42.5 110.5
q0 83 55.5 129.5t172.5 46.5q110 0 179 -28z" />
    <glyph glyph-name="Scedilla" unicode="&#x15e;" horiz-adv-x="597" 
d="M247 -84l6 68q-147 3 -226 52l2 183q100 -57 227 -57q123 0 123 65q0 33 -21.5 47.5t-68.5 20.5q-145 17 -203.5 65t-58.5 167q0 114 73 176.5t222 62.5q143 0 221 -39l-3 -179q-36 17 -93.5 28.5t-109.5 11.5q-115 0 -115 -60q0 -31 22 -44t72 -19q141 -17 200 -62.5
t59 -165.5t-61 -179.5t-176 -70.5l2 -34q101 -26 101 -98q0 -53 -39.5 -79t-106.5 -26q-66 0 -104 16v98q36 -11 79 -11q52 0 52 25q0 28 -75 38z" />
    <glyph glyph-name="scedilla" unicode="&#x15f;" horiz-adv-x="471" 
d="M182 -84l6 69q-92 2 -165 33l3 148q95 -39 186 -39q57 0 57 30q0 28 -40 31q-121 11 -163.5 41.5t-42.5 110.5q0 83 55.5 129.5t172.5 46.5q110 0 179 -28l-3 -148q-81 32 -168 32q-56 0 -56 -30q0 -28 39 -31q124 -10 165 -40t41 -112q0 -152 -175 -172l2 -34
q101 -26 101 -98q0 -53 -39.5 -79t-106.5 -26q-66 0 -104 16v98q36 -11 79 -11q52 0 52 25q0 28 -75 38z" />
    <glyph glyph-name="Scaron" unicode="&#x160;" horiz-adv-x="597" 
d="M316 465q141 -17 200 -62.5t59 -165.5q0 -136 -78.5 -194.5t-223.5 -58.5q-160 0 -246 52l2 183q100 -57 227 -57q123 0 123 65q0 33 -21.5 47.5t-68.5 20.5q-145 17 -203.5 65t-58.5 167q0 114 73 176.5t222 62.5q143 0 221 -39l-3 -179q-36 17 -93.5 28.5t-109.5 11.5
q-115 0 -115 -60q0 -31 22 -44t72 -19zM370 910h145l-126 -124h-168l-126 124h145l65 -40z" />
    <glyph glyph-name="scaron" unicode="&#x161;" horiz-adv-x="471" 
d="M305 750h135l-136 -204h-148l-136 204h135l75 -80zM430 488l-3 -148q-81 32 -168 32q-56 0 -56 -30q0 -28 39 -31q124 -10 165 -40t41 -112q0 -175 -234 -175q-107 0 -191 34l3 148q95 -39 186 -39q57 0 57 30q0 28 -40 31q-121 11 -163.5 41.5t-42.5 110.5
q0 83 55.5 129.5t172.5 46.5q110 0 179 -28z" />
    <glyph glyph-name="Tcommaaccent" unicode="&#x162;" horiz-adv-x="568" 
d="M558 577h-176v-577h-196v577h-176v173h548v-173zM320 -250h-146l20 204h186z" />
    <glyph glyph-name="Tcommaaccent" unicode="&#x21a;" horiz-adv-x="568" 
d="M558 577h-176v-577h-196v577h-176v173h548v-173zM320 -250h-146l20 204h186z" />
    <glyph glyph-name="tcommaaccent" unicode="&#x163;" horiz-adv-x="406" 
d="M382 144l3 -146q-39 -14 -108 -14q-105 0 -151 44t-46 134v189h-79v122l79 22v100l196 52v-147h114v-149h-114v-167q0 -47 50 -47q28 0 56 7zM276 -250h-146l20 204h186z" />
    <glyph glyph-name="tcommaaccent" unicode="&#x21b;" horiz-adv-x="406" 
d="M382 144l3 -146q-39 -14 -108 -14q-105 0 -151 44t-46 134v189h-79v122l79 22v100l196 52v-147h114v-149h-114v-167q0 -47 50 -47q28 0 56 7zM276 -250h-146l20 204h186z" />
    <glyph glyph-name="Tcaron" unicode="&#x164;" horiz-adv-x="568" 
d="M558 577h-176v-577h-196v577h-176v173h548v-173zM349 910h145l-126 -124h-168l-126 124h145l65 -40z" />
    <glyph glyph-name="tcaron" unicode="&#x165;" horiz-adv-x="406" 
d="M382 144l3 -146q-39 -14 -108 -14q-105 0 -151 44t-46 134v189h-79v122l79 22v100l196 52v-147h114v-149h-114v-167q0 -47 50 -47q28 0 56 7zM322 750h113l-48 -200h-81z" />
    <glyph glyph-name="Tbar" unicode="&#x166;" horiz-adv-x="568" 
d="M84 304v143h102v130h-176v173h548v-173h-176v-130h102v-143h-102v-304h-196v304h-102z" />
    <glyph glyph-name="tbar" unicode="&#x167;" horiz-adv-x="406" 
d="M5 194v124h75v33h-79v122l79 22v100l196 52v-147h114v-149h-114v-33h98v-124h-98v-10q0 -47 50 -47q28 0 56 7l3 -146q-39 -14 -108 -14q-105 0 -151 44t-46 134v32h-75z" />
    <glyph glyph-name="Utilde" unicode="&#x168;" horiz-adv-x="648" 
d="M324 157q44 0 69.5 21.5t25.5 79.5v492h196v-507q0 -60 -17.5 -106.5t-45.5 -74.5t-67.5 -46.5t-78 -25t-82.5 -6.5q-55 0 -103 12t-92 39t-70 80.5t-26 127.5v507h196v-492q0 -58 25.5 -79.5t69.5 -21.5zM546 910v-6q0 -71 -33 -99t-94 -28q-43 0 -94.5 22t-69.5 22
q-44 0 -44 -35h-109v6q0 71 33 99t94 28q43 0 94.5 -22t69.5 -22q44 0 44 35h109z" />
    <glyph glyph-name="utilde" unicode="&#x169;" horiz-adv-x="554" 
d="M522 0h-130l-18 32q-77 -48 -167 -48q-102 0 -140.5 46t-38.5 129v341h196v-323q0 -40 38 -40q35 0 64 18v345h196v-500zM53 563v20q0 89 36.5 132t101.5 43q29 0 54 -11t38.5 -25t29.5 -25t31 -11q44 0 44 47h109v-20q0 -89 -36.5 -132t-101.5 -43q-29 0 -54 11
t-38.5 25t-29.5 25t-31 11q-44 0 -44 -47h-109z" />
    <glyph glyph-name="Umacron" unicode="&#x16a;" horiz-adv-x="648" 
d="M324 157q44 0 69.5 21.5t25.5 79.5v492h196v-507q0 -60 -17.5 -106.5t-45.5 -74.5t-67.5 -46.5t-78 -25t-82.5 -6.5q-55 0 -103 12t-92 39t-70 80.5t-26 127.5v507h196v-492q0 -58 25.5 -79.5t69.5 -21.5zM480 910v-124h-312v124h312z" />
    <glyph glyph-name="umacron" unicode="&#x16b;" horiz-adv-x="554" 
d="M522 0h-130l-18 32q-77 -48 -167 -48q-102 0 -140.5 46t-38.5 129v341h196v-323q0 -40 38 -40q35 0 64 18v345h196v-500zM431 713v-130h-312v130h312z" />
    <glyph glyph-name="Ubreve" unicode="&#x16c;" horiz-adv-x="648" 
d="M324 157q44 0 69.5 21.5t25.5 79.5v492h196v-507q0 -60 -17.5 -106.5t-45.5 -74.5t-67.5 -46.5t-78 -25t-82.5 -6.5q-55 0 -103 12t-92 39t-70 80.5t-26 127.5v507h196v-492q0 -58 25.5 -79.5t69.5 -21.5zM324 776q-116 0 -162.5 26t-47.5 108h124q0 -22 19 -31t67 -9
t67 9t19 31h124q-1 -82 -47.5 -108t-162.5 -26z" />
    <glyph glyph-name="ubreve" unicode="&#x16d;" horiz-adv-x="554" 
d="M522 0h-130l-18 32q-77 -48 -167 -48q-102 0 -140.5 46t-38.5 129v341h196v-323q0 -40 38 -40q35 0 64 18v345h196v-500zM275 546q-109 0 -159 48t-51 156h124q0 -44 19 -62t67 -18t67 18t19 62h124q-1 -108 -51 -156t-159 -48z" />
    <glyph glyph-name="Uring" unicode="&#x16e;" horiz-adv-x="648" 
d="M324 157q44 0 69.5 21.5t25.5 79.5v492h196v-507q0 -60 -17.5 -106.5t-45.5 -74.5t-67.5 -46.5t-78 -25t-82.5 -6.5q-55 0 -103 12t-92 39t-70 80.5t-26 127.5v507h196v-492q0 -58 25.5 -79.5t69.5 -21.5zM324 831q28 0 28 16q0 17 -28 17t-28 -16q0 -17 28 -17zM324 777
q-61 0 -88.5 14.5t-27.5 55.5t27.5 56.5t88.5 15.5t88.5 -15t27.5 -56t-27.5 -56t-88.5 -15z" />
    <glyph glyph-name="uring" unicode="&#x16f;" horiz-adv-x="554" 
d="M522 0h-130l-18 32q-77 -48 -167 -48q-102 0 -140.5 46t-38.5 129v341h196v-323q0 -40 38 -40q35 0 64 18v345h196v-500zM275 620q28 0 28 27t-28 27t-28 -26q0 -28 28 -28zM275 537q-116 0 -116 110q0 111 116 111t116 -110q0 -111 -116 -111z" />
    <glyph glyph-name="Uhungarumlaut" unicode="&#x170;" horiz-adv-x="648" 
d="M324 157q44 0 69.5 21.5t25.5 79.5v492h196v-507q0 -60 -17.5 -106.5t-45.5 -74.5t-67.5 -46.5t-78 -25t-82.5 -6.5q-55 0 -103 12t-92 39t-70 80.5t-26 127.5v507h196v-492q0 -58 25.5 -79.5t69.5 -21.5zM299 786h-160l46 124h194zM509 786h-160l46 124h194z" />
    <glyph glyph-name="uhungarumlaut" unicode="&#x171;" horiz-adv-x="554" 
d="M522 0h-130l-18 32q-77 -48 -167 -48q-102 0 -140.5 46t-38.5 129v341h196v-323q0 -40 38 -40q35 0 64 18v345h196v-500zM440 546h-130l50 204h190zM240 546h-130l50 204h190z" />
    <glyph glyph-name="Uogonek" unicode="&#x172;" horiz-adv-x="648" 
d="M324 157q44 0 69.5 21.5t25.5 79.5v492h196v-507q0 -201 -184 -247q-46 -15 -71.5 -41.5t-25.5 -53.5q0 -46 60 -46q30 0 60 9v-98q-41 -16 -102 -16q-71 0 -114.5 32t-43.5 91q0 68 61 116q-46 7 -83.5 23t-70 45t-50.5 76.5t-18 109.5v507h196v-492q0 -58 25.5 -79.5
t69.5 -21.5z" />
    <glyph glyph-name="uogonek" unicode="&#x173;" horiz-adv-x="554" 
d="M522 0q-53 -14 -81.5 -42t-28.5 -57q0 -46 60 -46q30 0 60 9v-98q-41 -16 -102 -16q-71 0 -114.5 32t-43.5 91q0 90 108 147l-6 12q-77 -48 -167 -48q-102 0 -140.5 46t-38.5 129v341h196v-323q0 -40 38 -40q35 0 64 18v345h196v-500z" />
    <glyph glyph-name="Wcircumflex" unicode="&#x174;" horiz-adv-x="888" 
d="M527 -4l-83 496l-83 -496h-235l-116 754h202l46 -474l78 474h216l78 -474l46 474h202l-116 -754h-235zM379 786h-145l126 124h168l126 -124h-145l-65 40z" />
    <glyph glyph-name="wcircumflex" unicode="&#x175;" horiz-adv-x="700" 
d="M434 500l48 -285l31 285h185l-101 -504h-195l-52 294l-52 -294h-195l-101 504h185l31 -285l48 285h168zM275 546h-135l136 204h148l136 -204h-135l-75 80z" />
    <glyph glyph-name="Ycircumflex" unicode="&#x176;" horiz-adv-x="670" 
d="M219 750l114 -282l114 282h219l-237 -458l2 -292h-196l2 292l-237 458h219zM269 786h-145l126 124h168l126 -124h-145l-65 40z" />
    <glyph glyph-name="ycircumflex" unicode="&#x177;" horiz-adv-x="542" 
d="M-3 500h211l63 -288l66 288h207l-268 -750h-221l116 257zM197 546h-135l136 204h148l136 -204h-135l-75 80z" />
    <glyph glyph-name="Ydieresis" unicode="&#x178;" horiz-adv-x="670" 
d="M219 750l114 -282l114 282h219l-237 -458l2 -292h-196l2 292l-237 458h219zM349 848q0 42 28.5 57t81.5 15t81.5 -15t28.5 -57t-28.5 -57t-81.5 -15t-81.5 15t-28.5 57zM99 848q0 42 28.5 57t81.5 15t81.5 -15t28.5 -57t-28.5 -57t-81.5 -15t-81.5 15t-28.5 57z" />
    <glyph glyph-name="Zacute" unicode="&#x179;" horiz-adv-x="616" 
d="M599 0h-582v115l309 454l-284 -3v184h544v-115l-309 -454l322 2v-183zM394 786h-160l46 124h194z" />
    <glyph glyph-name="zacute" unicode="&#x17a;" horiz-adv-x="490" 
d="M315 546h-130l50 204h190zM473 0h-456v133l198 209l-182 -7v165h428v-133l-198 -209l210 7v-165z" />
    <glyph glyph-name="Zdotaccent" unicode="&#x17b;" horiz-adv-x="616" 
d="M599 0h-582v115l309 454l-284 -3v184h544v-115l-309 -454l322 2v-183zM204 848q0 42 28.5 57t81.5 15t81.5 -15t28.5 -57t-28.5 -57t-81.5 -15t-81.5 15t-28.5 57z" />
    <glyph glyph-name="zdotaccent" unicode="&#x17c;" horiz-adv-x="490" 
d="M140 648q0 46 32 78t78 32t78 -32t32 -78t-32 -78t-78 -32t-78 32t-32 78zM473 0h-456v133l198 209l-182 -7v165h428v-133l-198 -209l210 7v-165z" />
    <glyph glyph-name="Zcaron" unicode="&#x17d;" horiz-adv-x="616" 
d="M599 0h-582v115l309 454l-284 -3v184h544v-115l-309 -454l322 2v-183zM379 910h145l-126 -124h-168l-126 124h145l65 -40z" />
    <glyph glyph-name="zcaron" unicode="&#x17e;" horiz-adv-x="490" 
d="M325 750h135l-136 -204h-148l-136 204h135l75 -80zM473 0h-456v133l198 209l-182 -7v165h428v-133l-198 -209l210 7v-165z" />
    <glyph glyph-name="Schwa" unicode="&#x18f;" horiz-adv-x="690" 
d="M661 375q0 -194 -79 -292.5t-250 -98.5q-74 0 -129.5 19.5t-88.5 51.5t-53.5 80t-27.5 98.5t-7 113.5q0 68 4 115h430q-5 60 -41 92.5t-119 32.5q-114 0 -248 -46l-2 173q112 52 272 52q180 0 259.5 -98.5t79.5 -292.5zM331 159q126 0 133 147h-243v-15q0 -132 110 -132z
" />
    <glyph glyph-name="florin" unicode="&#x192;" horiz-adv-x="562" 
d="M280 251v-376h-192v376h-69v122h69v22q0 56 11 97.5t38 76.5t80 53.5t131 18.5q115 0 191 -32l-2 -160q-84 28 -160 28q-97 0 -97 -76v-28h209v-122h-209z" />
    <glyph glyph-name="Khook" unicode="&#x198;" horiz-adv-x="663" 
d="M232 750v-288q30 8 48.5 34.5t46.5 89.5q37 86 103.5 130t200.5 44l3 -185q-33 0 -57.5 -7t-40 -16t-32 -33.5t-26 -43t-28.5 -60.5q-8 -17 -18 -33l236 -382h-244l-142 258q-26 -12 -50 -16v-242h-195v750h195z" />
    <glyph glyph-name="khook" unicode="&#x199;" horiz-adv-x="569" 
d="M320 766v-159q-54 0 -72.5 -20t-19.5 -64l-5 -182l105 159h231l-178 -212l193 -288h-237l-90 177l-23 -33l4 -144h-196v560q0 105 80 155.5t208 50.5z" />
    <glyph glyph-name="Ezh" unicode="&#x1b7;" horiz-adv-x="647" 
d="M626 69q0 -177 -94.5 -256t-269.5 -79q-138 0 -236 42l3 177q95 -39 201 -39q107 0 154 35.5t47 119.5t-47 118.5t-154 34.5l-94 -1v119l191 229l-300 -3v184h562v-116l-211 -255q120 -20 184 -93.5t64 -216.5z" />
    <glyph glyph-name="Acaron" unicode="&#x1cd;" horiz-adv-x="640" 
d="M385 910h145l-126 -124h-168l-126 124h145l65 -40zM399 136h-158l-28 -136h-206l184 754h258l184 -754h-206zM369 285l-49 286l-49 -286h98z" />
    <glyph glyph-name="acaron" unicode="&#x1ce;" horiz-adv-x="511" 
d="M331 750h135l-136 -204h-148l-136 204h135l75 -80zM18 145q0 46 13.5 77.5t41.5 49t60 26t79 12.5l89 8v20q0 19 -14 27.5t-54 8.5q-95 0 -177 -41l-2 148q33 14 92 24.5t116 10.5q129 0 175 -46.5t46 -141.5v-328h-131l-19 32q-57 -48 -147 -48q-87 0 -127.5 44
t-40.5 117zM302 223l-59 -7q-29 -3 -42.5 -16t-13.5 -43q0 -50 49 -50q44 0 66 22v94z" />
    <glyph glyph-name="Icaron" unicode="&#x1cf;" horiz-adv-x="282" 
d="M239 0h-196v750h196v-750zM206 910h145l-126 -124h-168l-126 124h145l65 -40z" />
    <glyph glyph-name="icaron" unicode="&#x1d0;" horiz-adv-x="284" 
d="M269 149v-151q-35 -8 -73 -8q-74 0 -118 35t-44 108v367h196v-321q0 -30 39 -30zM207 750h135l-136 -204h-148l-136 204h135l75 -80z" />
    <glyph glyph-name="Ocaron" unicode="&#x1d1;" horiz-adv-x="666" 
d="M29 375q0 75 7.5 132t28 107.5t54.5 82.5t87.5 50.5t126.5 18.5t126.5 -18.5t87.5 -50.5t54.5 -82.5t28 -107.5t7.5 -132t-7.5 -132t-28 -107.5t-54.5 -82.5t-87.5 -50.5t-126.5 -18.5t-126.5 18.5t-87.5 50.5t-54.5 82.5t-28 107.5t-7.5 132zM438 375q0 125 -22.5 171
t-82.5 46t-82.5 -46t-22.5 -171t22.5 -171t82.5 -46t82.5 46t22.5 171zM398 910h145l-126 -124h-168l-126 124h145l65 -40z" />
    <glyph glyph-name="ocaron" unicode="&#x1d2;" horiz-adv-x="530" 
d="M265 132q33 0 45.5 25t12.5 93t-12.5 93t-45.5 25t-45.5 -25t-12.5 -93t12.5 -93t45.5 -25zM265 -16q-137 0 -192.5 65t-55.5 201t55.5 201t192.5 65t192.5 -65t55.5 -201t-55.5 -201t-192.5 -65zM340 750h135l-136 -204h-148l-136 204h135l75 -80z" />
    <glyph glyph-name="Ucaron" unicode="&#x1d3;" horiz-adv-x="648" 
d="M324 157q44 0 69.5 21.5t25.5 79.5v492h196v-507q0 -60 -17.5 -106.5t-45.5 -74.5t-67.5 -46.5t-78 -25t-82.5 -6.5q-55 0 -103 12t-92 39t-70 80.5t-26 127.5v507h196v-492q0 -58 25.5 -79.5t69.5 -21.5zM389 910h145l-126 -124h-168l-126 124h145l65 -40z" />
    <glyph glyph-name="ucaron" unicode="&#x1d4;" horiz-adv-x="554" 
d="M522 0h-130l-18 32q-77 -48 -167 -48q-102 0 -140.5 46t-38.5 129v341h196v-323q0 -40 38 -40q35 0 64 18v345h196v-500zM350 750h135l-136 -204h-148l-136 204h135l75 -80z" />
    <glyph glyph-name="Adieresismacron" unicode="&#x1de;" horiz-adv-x="640" 
d="M476 1065v-124h-312v124h312zM335 848q0 42 28.5 57t81.5 15t81.5 -15t28.5 -57t-28.5 -57t-81.5 -15t-81.5 15t-28.5 57zM85 848q0 42 28.5 57t81.5 15t81.5 -15t28.5 -57t-28.5 -57t-81.5 -15t-81.5 15t-28.5 57zM399 136h-158l-28 -136h-206l184 754h258l184 -754
h-206zM369 285l-49 286l-49 -286h98z" />
    <glyph glyph-name="adieresismacron" unicode="&#x1df;" horiz-adv-x="511" 
d="M412 913v-130h-312v130h312zM271 648q0 46 32 78t78 32t78 -32t32 -78t-32 -78t-78 -32t-78 32t-32 78zM21 648q0 46 32 78t78 32t78 -32t32 -78t-32 -78t-78 -32t-78 32t-32 78zM18 145q0 46 13.5 77.5t41.5 49t60 26t79 12.5l89 8v20q0 19 -14 27.5t-54 8.5
q-95 0 -177 -41l-2 148q33 14 92 24.5t116 10.5q129 0 175 -46.5t46 -141.5v-328h-131l-19 32q-57 -48 -147 -48q-87 0 -127.5 44t-40.5 117zM302 223l-59 -7q-29 -3 -42.5 -16t-13.5 -43q0 -50 49 -50q44 0 66 22v94z" />
    <glyph glyph-name="AEmacron" unicode="&#x1e2;" horiz-adv-x="953" 
d="M621 910v-124h-312v124h312zM896 473v-175h-268l13 -123h284v-175h-468l-15 136h-174l-47 -136h-217l299 750h622v-175h-326l11 -102h286zM403 562l-84 -277h108z" />
    <glyph glyph-name="aemacron" unicode="&#x1e3;" horiz-adv-x="798" 
d="M555 713v-130h-312v130h312zM311 136q-10 38 -11 69h-57q-57 0 -57 -50q0 -23 14 -35.5t36 -12.5q46 0 75 29zM556 -16q-125 0 -187 53q-72 -53 -183 -53q-87 0 -127.5 44t-40.5 117q0 89 49 122t145 33h89v39q0 17 -13.5 26t-54.5 9q-93 0 -177 -41l-2 148
q33 14 92 24.5t116 10.5q88 0 143 -35q55 35 145 35q67 0 113 -17.5t70.5 -50.5t34.5 -72t10 -90q0 -42 -4 -81h-301q-2 -38 24 -58.5t86 -20.5q88 0 176 30l3 -137q-85 -35 -206 -35zM550 384q-35 0 -56.5 -20.5t-20.5 -63.5h137q10 84 -60 84z" />
    <glyph glyph-name="Gstroke" unicode="&#x1e4;" horiz-adv-x="689" 
d="M679 288v-124h-70v-125q-89 -55 -250 -55q-169 0 -249.5 96.5t-80.5 294.5t80.5 294.5t251.5 96.5q146 0 236 -40l-2 -178q-108 39 -205 39q-89 0 -126.5 -49.5t-37.5 -163.5q0 -126 39.5 -173.5t134.5 -47.5l13 1v134h-94v161h290v-161h70z" />
    <glyph glyph-name="gstroke" unicode="&#x1e5;" horiz-adv-x="554" 
d="M-65 -140v124h131q10 4 22 6q-24 9 -37.5 32t-13.5 50t15.5 50.5t40.5 38.5q-77 45 -77 162q0 100 56 146.5t179 46.5q80 0 128 -16h164v-125l-59 -16q3 -18 3 -36q0 -101 -56.5 -147t-179.5 -46q-35 0 -51 1q-5 -7 -5 -15q0 -15 20 -16l201 -22q105 -12 128 -94h60v-124
h-67q-29 -63 -111.5 -94.5t-194.5 -31.5q-236 0 -245 126h-51zM342 -58l-150 18q-29 -13 -29 -41q0 -48 87 -48q50 0 82.5 13t32.5 34t-23 24zM194 320q0 -66 57 -66t57 66t-57 66t-57 -66z" />
    <glyph glyph-name="Gcaron" unicode="&#x1e6;" horiz-adv-x="645" 
d="M417 910h145l-126 -124h-168l-126 124h145l65 -40zM359 -16q-169 0 -249.5 96.5t-80.5 294.5t80.5 294.5t251.5 96.5q146 0 236 -40l-2 -178q-108 39 -205 39q-89 0 -126.5 -49.5t-37.5 -163.5q0 -125 40 -173t134 -48l13 1v134h-94v161h290v-410q-89 -55 -250 -55z" />
    <glyph glyph-name="gcaron" unicode="&#x1e7;" horiz-adv-x="549" 
d="M16 323q0 100 56 146.5t179 46.5q80 0 128 -16h164v-125l-59 -16q3 -18 3 -36q0 -101 -56.5 -147t-179.5 -46q-35 0 -51 1q-5 -7 -5 -15q0 -15 20 -16l201 -22q75 -8 105 -47.5t30 -105.5q0 -65 -45 -109t-115 -63t-160 -19q-246 0 -246 136q0 49 29.5 79.5t73.5 40.5
q-24 9 -37.5 32t-13.5 50t15.5 50.5t40.5 38.5q-77 45 -77 162zM342 -58l-150 18q-29 -13 -29 -41q0 -48 87 -48q50 0 82.5 13t32.5 34t-23 24zM194 320q0 -66 57 -66t57 66t-57 66t-57 -66zM326 750h135l-136 -204h-148l-136 204h135l75 -80z" />
    <glyph glyph-name="Kcaron" unicode="&#x1e8;" horiz-adv-x="663" 
d="M424 0l-152 276l-40 -59v-217h-195v750h195v-301l184 301h234l-242 -329l260 -421h-244zM385 910h145l-126 -124h-168l-126 124h145l65 -40z" />
    <glyph glyph-name="kcaron" unicode="&#x1e9;" horiz-adv-x="569" 
d="M32 750h196l-5 -409l105 159h231l-178 -212l193 -288h-237l-90 177l-23 -33l4 -144h-196v750zM195 910h145l-126 -124h-168l-126 124h145l65 -40z" />
    <glyph glyph-name="Oogonek" unicode="&#x1ea;" horiz-adv-x="666" 
d="M29 375q0 75 7.5 132t28 107.5t54.5 82.5t87.5 50.5t126.5 18.5t126.5 -18.5t87.5 -50.5t54.5 -82.5t28 -107.5t7.5 -132q0 -157 -40 -250t-143 -125q-53 -14 -81.5 -42t-28.5 -57q0 -46 60 -46q30 0 60 9v-98q-41 -16 -102 -16q-71 0 -114.5 32t-43.5 91q0 66 60 116
q-70 10 -117 40.5t-72 83t-35.5 115t-10.5 147.5zM438 375q0 125 -22.5 171t-82.5 46t-82.5 -46t-22.5 -171t22.5 -171t82.5 -46t82.5 46t22.5 171z" />
    <glyph glyph-name="oogonek" unicode="&#x1eb;" horiz-adv-x="530" 
d="M513 250q0 -110 -35 -173t-118 -83q-44 -16 -67.5 -41.5t-23.5 -51.5q0 -46 60 -46q30 0 60 9v-98q-41 -16 -102 -16q-71 0 -114.5 32t-43.5 91q0 66 61 117q-94 16 -133.5 80t-39.5 180q0 136 55.5 201t192.5 65t192.5 -65t55.5 -201zM265 132q33 0 45.5 25t12.5 93
t-12.5 93t-45.5 25t-45.5 -25t-12.5 -93t12.5 -93t45.5 -25z" />
    <glyph glyph-name="Oogonekmacron" unicode="&#x1ec;" horiz-adv-x="666" 
d="M29 375q0 75 7.5 132t28 107.5t54.5 82.5t87.5 50.5t126.5 18.5t126.5 -18.5t87.5 -50.5t54.5 -82.5t28 -107.5t7.5 -132q0 -157 -40 -250t-143 -125q-53 -14 -81.5 -42t-28.5 -57q0 -46 60 -46q30 0 60 9v-98q-41 -16 -102 -16q-71 0 -114.5 32t-43.5 91q0 66 60 116
q-70 10 -117 40.5t-72 83t-35.5 115t-10.5 147.5zM438 375q0 125 -22.5 171t-82.5 46t-82.5 -46t-22.5 -171t22.5 -171t82.5 -46t82.5 46t22.5 171zM489 910v-124h-312v124h312z" />
    <glyph glyph-name="oogonekmacron" unicode="&#x1ed;" horiz-adv-x="530" 
d="M513 250q0 -110 -35 -173t-118 -83q-44 -16 -67.5 -41.5t-23.5 -51.5q0 -46 60 -46q30 0 60 9v-98q-41 -16 -102 -16q-71 0 -114.5 32t-43.5 91q0 66 61 117q-94 16 -133.5 80t-39.5 180q0 136 55.5 201t192.5 65t192.5 -65t55.5 -201zM421 713v-130h-312v130h312z
M265 132q33 0 45.5 25t12.5 93t-12.5 93t-45.5 25t-45.5 -25t-12.5 -93t12.5 -93t45.5 -25z" />
    <glyph glyph-name="Ezhcaron" unicode="&#x1ee;" horiz-adv-x="647" 
d="M626 69q0 -177 -94.5 -256t-269.5 -79q-138 0 -236 42l3 177q95 -39 201 -39q107 0 154 35.5t47 119.5t-47 118.5t-154 34.5l-94 -1v119l191 229l-300 -3v184h562v-116l-211 -255q120 -20 184 -93.5t64 -216.5zM373 910h145l-126 -124h-168l-126 124h145l65 -40z" />
    <glyph glyph-name="ezhcaron" unicode="&#x1ef;" horiz-adv-x="518" 
d="M312 -10q0 58 -34.5 75.5t-106.5 17.5h-82v114l156 140l-220 -2v165h444v-133l-151 -146q185 -33 185 -229q0 -136 -80 -197t-211 -61q-122 0 -193 33l2 160q75 -32 170 -32q65 0 93 21t28 74zM320 750h135l-136 -204h-148l-136 204h135l75 -80z" />
    <glyph glyph-name="jcaron" unicode="&#x1f0;" horiz-adv-x="273" 
d="M-53 -266v159q54 0 73 20.5t19 63.5v523h196v-560q0 -105 -80 -155.5t-208 -50.5zM212 750h135l-136 -204h-148l-136 204h135l75 -80z" />
    <glyph glyph-name="Gacute" unicode="&#x1f4;" horiz-adv-x="645" 
d="M432 786h-160l46 124h194zM359 -16q-169 0 -249.5 96.5t-80.5 294.5t80.5 294.5t251.5 96.5q146 0 236 -40l-2 -178q-108 39 -205 39q-89 0 -126.5 -49.5t-37.5 -163.5q0 -125 40 -173t134 -48l13 1v134h-94v161h290v-410q-89 -55 -250 -55z" />
    <glyph glyph-name="gacute" unicode="&#x1f5;" horiz-adv-x="549" 
d="M16 323q0 100 56 146.5t179 46.5q80 0 128 -16h164v-125l-59 -16q3 -18 3 -36q0 -101 -56.5 -147t-179.5 -46q-35 0 -51 1q-5 -7 -5 -15q0 -15 20 -16l201 -22q75 -8 105 -47.5t30 -105.5q0 -65 -45 -109t-115 -63t-160 -19q-246 0 -246 136q0 49 29.5 79.5t73.5 40.5
q-24 9 -37.5 32t-13.5 50t15.5 50.5t40.5 38.5q-77 45 -77 162zM316 546h-130l50 204h190zM342 -58l-150 18q-29 -13 -29 -41q0 -48 87 -48q50 0 82.5 13t32.5 34t-23 24zM194 320q0 -66 57 -66t57 66t-57 66t-57 -66z" />
    <glyph glyph-name="Aringacute" unicode="&#x1fa;" horiz-adv-x="640" 
d="M320 777q-61 0 -88.5 14.5t-27.5 55.5q0 21 6 34l34 89h137l-34 -52q45 -2 67 -18t22 -52q0 -41 -27.5 -56t-88.5 -15zM320 831q28 0 28 16q0 17 -28 17t-28 -16q0 -17 28 -17zM399 136h-158l-28 -136h-206l184 754h258l184 -754h-206zM369 285l-49 286l-49 -286h98z" />
    <glyph glyph-name="aringacute" unicode="&#x1fb;" horiz-adv-x="511" 
d="M140 647v1q0 25 4 41l37 146h170l-45 -83q66 -20 66 -104q0 -111 -116 -111t-116 110zM256 620q28 0 28 27t-28 27t-28 -26q0 -28 28 -28zM18 145q0 46 13.5 77.5t41.5 49t60 26t79 12.5l89 8v20q0 19 -14 27.5t-54 8.5q-95 0 -177 -41l-2 148q33 14 92 24.5t116 10.5
q129 0 175 -46.5t46 -141.5v-328h-131l-19 32q-57 -48 -147 -48q-87 0 -127.5 44t-40.5 117zM302 223l-59 -7q-29 -3 -42.5 -16t-13.5 -43q0 -50 49 -50q44 0 66 22v94z" />
    <glyph glyph-name="AEacute" unicode="&#x1fc;" horiz-adv-x="953" 
d="M545 786h-160l46 124h194zM896 473v-175h-268l13 -123h284v-175h-468l-15 136h-174l-47 -136h-217l299 750h622v-175h-326l11 -102h286zM403 562l-84 -277h108z" />
    <glyph glyph-name="aeacute" unicode="&#x1fd;" horiz-adv-x="798" 
d="M467 546h-130l50 204h190zM311 136q-10 38 -11 69h-57q-57 0 -57 -50q0 -23 14 -35.5t36 -12.5q46 0 75 29zM556 -16q-125 0 -187 53q-72 -53 -183 -53q-87 0 -127.5 44t-40.5 117q0 89 49 122t145 33h89v39q0 17 -13.5 26t-54.5 9q-93 0 -177 -41l-2 148q33 14 92 24.5
t116 10.5q88 0 143 -35q55 35 145 35q67 0 113 -17.5t70.5 -50.5t34.5 -72t10 -90q0 -42 -4 -81h-301q-2 -38 24 -58.5t86 -20.5q88 0 176 30l3 -137q-85 -35 -206 -35zM550 384q-35 0 -56.5 -20.5t-20.5 -63.5h137q10 84 -60 84z" />
    <glyph glyph-name="Oslashacute" unicode="&#x1fe;" horiz-adv-x="667" 
d="M29 375q0 75 7.5 132t28 107.5t54.5 82.5t87.5 50.5t126.5 18.5q102 0 168 -36l13 20h103l-48 -78q68 -89 68 -297q0 -75 -7.5 -132t-28 -107.5t-54.5 -82.5t-87.5 -50.5t-126.5 -18.5q-102 0 -169 36l-12 -20h-103l48 77q-68 89 -68 298zM438 375q0 47 -3 81l-170 -274
q23 -24 68 -24q60 0 82.5 46t22.5 171zM228 375q0 -46 3 -82l170 274q-22 25 -68 25q-60 0 -82.5 -46t-22.5 -171zM413 786h-160l46 124h194z" />
    <glyph glyph-name="oslashacute" unicode="&#x1ff;" horiz-adv-x="530" 
d="M112 0h-99l50 61q-46 63 -46 189q0 136 55.5 201t192.5 65q87 0 143 -28l10 12h99l-50 -62q46 -61 46 -188q0 -136 -55.5 -201t-192.5 -65q-88 0 -144 28zM330 546h-130l50 204h190zM265 132q33 0 45.5 25t12.5 93v10l-95 -116q12 -12 37 -12zM207 250v-11l94 117
q-13 12 -36 12q-33 0 -45.5 -25t-12.5 -93z" />
    <glyph glyph-name="Ainvertedbreve" unicode="&#x202;" horiz-adv-x="640" 
d="M320 920q116 0 162.5 -26t47.5 -108h-124q0 22 -19 31t-67 9t-67 -9t-19 -31h-124q1 82 47.5 108t162.5 26zM399 136h-158l-28 -136h-206l184 754h258l184 -754h-206zM369 285l-49 286l-49 -286h98z" />
    <glyph glyph-name="ainvertedbreve" unicode="&#x203;" horiz-adv-x="511" 
d="M256 750q109 0 159 -48t51 -156h-124q0 44 -19 62t-67 18t-67 -18t-19 -62h-124q1 108 51 156t159 48zM18 145q0 46 13.5 77.5t41.5 49t60 26t79 12.5l89 8v20q0 19 -14 27.5t-54 8.5q-95 0 -177 -41l-2 148q33 14 92 24.5t116 10.5q129 0 175 -46.5t46 -141.5v-328h-131
l-19 32q-57 -48 -147 -48q-87 0 -127.5 44t-40.5 117zM302 223l-59 -7q-29 -3 -42.5 -16t-13.5 -43q0 -50 49 -50q44 0 66 22v94z" />
    <glyph glyph-name="Einvertedbreve" unicode="&#x206;" horiz-adv-x="571" 
d="M513 472v-173h-280v-126h308v-173h-504v750h504v-173h-308v-105h280zM298 920q116 0 162.5 -26t47.5 -108h-124q0 22 -19 31t-67 9t-67 -9t-19 -31h-124q1 82 47.5 108t162.5 26z" />
    <glyph glyph-name="einvertedbreve" unicode="&#x207;" horiz-adv-x="517" 
d="M262 750q109 0 159 -48t51 -156h-124q0 44 -19 62t-67 18t-67 -18t-19 -62h-124q1 108 51 156t159 48zM493 194h-301q-2 -37 23 -52.5t87 -15.5q88 0 176 30l3 -137q-85 -35 -206 -35q-137 0 -197.5 64t-60.5 202q0 136 61.5 201t190.5 65q67 0 113 -18.5t70.5 -52.5
t34.5 -74t10 -91q0 -47 -4 -86zM269 384q-35 0 -56.5 -23.5t-20.5 -66.5h137q5 43 -10.5 66.5t-49.5 23.5z" />
    <glyph glyph-name="Iinvertedbreve" unicode="&#x20a;" horiz-adv-x="282" 
d="M239 0h-196v750h196v-750zM141 920q116 0 162.5 -26t47.5 -108h-124q0 22 -19 31t-67 9t-67 -9t-19 -31h-124q1 82 47.5 108t162.5 26z" />
    <glyph glyph-name="iinvertedbreve" unicode="&#x20b;" horiz-adv-x="284" 
d="M269 149v-151q-35 -8 -73 -8q-74 0 -118 35t-44 108v367h196v-321q0 -30 39 -30zM132 750q109 0 159 -48t51 -156h-124q0 44 -19 62t-67 18t-67 -18t-19 -62h-124q1 108 51 156t159 48z" />
    <glyph glyph-name="Oinvertedbreve" unicode="&#x20e;" horiz-adv-x="666" 
d="M29 375q0 75 7.5 132t28 107.5t54.5 82.5t87.5 50.5t126.5 18.5t126.5 -18.5t87.5 -50.5t54.5 -82.5t28 -107.5t7.5 -132t-7.5 -132t-28 -107.5t-54.5 -82.5t-87.5 -50.5t-126.5 -18.5t-126.5 18.5t-87.5 50.5t-54.5 82.5t-28 107.5t-7.5 132zM438 375q0 125 -22.5 171
t-82.5 46t-82.5 -46t-22.5 -171t22.5 -171t82.5 -46t82.5 46t22.5 171zM333 920q116 0 162.5 -26t47.5 -108h-124q0 22 -19 31t-67 9t-67 -9t-19 -31h-124q1 82 47.5 108t162.5 26z" />
    <glyph glyph-name="oinvertedbreve" unicode="&#x20f;" horiz-adv-x="530" 
d="M265 132q33 0 45.5 25t12.5 93t-12.5 93t-45.5 25t-45.5 -25t-12.5 -93t12.5 -93t45.5 -25zM265 -16q-137 0 -192.5 65t-55.5 201t55.5 201t192.5 65t192.5 -65t55.5 -201t-55.5 -201t-192.5 -65zM265 750q109 0 159 -48t51 -156h-124q0 44 -19 62t-67 18t-67 -18
t-19 -62h-124q1 108 51 156t159 48z" />
    <glyph glyph-name="Rinvertedbreve" unicode="&#x212;" horiz-adv-x="627" 
d="M286 920q116 0 162.5 -26t47.5 -108h-124q0 22 -19 31t-67 9t-67 -9t-19 -31h-124q1 82 47.5 108t162.5 26zM233 273v-273h-196v750h277q150 0 213 -61.5t63 -178.5q0 -146 -98 -200l135 -310h-227l-98 273h-69zM233 587v-157h84q64 0 64 79q0 78 -64 78h-84z" />
    <glyph glyph-name="rinvertedbreve" unicode="&#x213;" horiz-adv-x="387" 
d="M379 508l-2 -161q-16 4 -49 4q-64 0 -100 -25v-326h-196v500h130l18 -32q55 48 145 48q38 0 54 -8zM203 750q109 0 159 -48t51 -156h-124q0 44 -19 62t-67 18t-67 -18t-19 -62h-124q1 108 51 156t159 48z" />
    <glyph glyph-name="Uinvertedbreve" unicode="&#x216;" horiz-adv-x="648" 
d="M324 157q44 0 69.5 21.5t25.5 79.5v492h196v-507q0 -60 -17.5 -106.5t-45.5 -74.5t-67.5 -46.5t-78 -25t-82.5 -6.5q-55 0 -103 12t-92 39t-70 80.5t-26 127.5v507h196v-492q0 -58 25.5 -79.5t69.5 -21.5zM324 920q116 0 162.5 -26t47.5 -108h-124q0 22 -19 31t-67 9
t-67 -9t-19 -31h-124q1 82 47.5 108t162.5 26z" />
    <glyph glyph-name="uinvertedbreve" unicode="&#x217;" horiz-adv-x="554" 
d="M522 0h-130l-18 32q-77 -48 -167 -48q-102 0 -140.5 46t-38.5 129v341h196v-323q0 -40 38 -40q35 0 64 18v345h196v-500zM275 750q109 0 159 -48t51 -156h-124q0 44 -19 62t-67 18t-67 -18t-19 -62h-124q1 108 51 156t159 48z" />
    <glyph glyph-name="Scommaaccent" unicode="&#x218;" horiz-adv-x="597" 
d="M316 465q141 -17 200 -62.5t59 -165.5q0 -136 -78.5 -194.5t-223.5 -58.5q-160 0 -246 52l2 183q100 -57 227 -57q123 0 123 65q0 33 -21.5 47.5t-68.5 20.5q-145 17 -203.5 65t-58.5 167q0 114 73 176.5t222 62.5q143 0 221 -39l-3 -179q-36 17 -93.5 28.5t-109.5 11.5
q-115 0 -115 -60q0 -31 22 -44t72 -19zM331 -250h-146l20 204h186z" />
    <glyph glyph-name="scommaaccent" unicode="&#x219;" horiz-adv-x="471" 
d="M266 -250h-146l20 204h186zM430 488l-3 -148q-81 32 -168 32q-56 0 -56 -30q0 -28 39 -31q124 -10 165 -40t41 -112q0 -175 -234 -175q-107 0 -191 34l3 148q95 -39 186 -39q57 0 57 30q0 28 -40 31q-121 11 -163.5 41.5t-42.5 110.5q0 83 55.5 129.5t172.5 46.5
q110 0 179 -28z" />
    <glyph glyph-name="dotlessj" unicode="&#x237;" horiz-adv-x="273" 
d="M-53 -266v159q54 0 73 20.5t19 63.5v523h196v-560q0 -105 -80 -155.5t-208 -50.5z" />
    <glyph glyph-name="schwa" unicode="&#x259;" horiz-adv-x="517" 
d="M24 306h301q2 37 -23 52.5t-87 15.5q-88 0 -176 -30l-3 137q85 35 206 35q137 0 197.5 -64t60.5 -202q0 -136 -61.5 -201t-190.5 -65q-67 0 -113 18.5t-70.5 52.5t-34.5 74t-10 91q0 47 4 86zM248 116q35 0 56.5 23.5t20.5 66.5h-137q-5 -43 10.5 -66.5t49.5 -23.5z" />
    <glyph glyph-name="ezh" unicode="&#x292;" horiz-adv-x="518" 
d="M312 -10q0 58 -34.5 75.5t-106.5 17.5h-82v114l156 140l-220 -2v165h444v-133l-151 -146q185 -33 185 -229q0 -136 -80 -197t-211 -61q-122 0 -193 33l2 160q75 -32 170 -32q65 0 93 21t28 74z" />
    <glyph glyph-name="circumflex" unicode="&#x2c6;" horiz-adv-x="530" 
d="M190 546h-135l136 204h148l136 -204h-135l-75 80z" />
    <glyph glyph-name="caron" unicode="&#x2c7;" horiz-adv-x="530" 
d="M340 750h135l-136 -204h-148l-136 204h135l75 -80z" />
    <glyph glyph-name="breve" unicode="&#x2d8;" horiz-adv-x="530" 
d="M265 546q-109 0 -159 48t-51 156h124q0 -44 19 -62t67 -18t67 18t19 62h124q-1 -108 -51 -156t-159 -48z" />
    <glyph glyph-name="dotaccent" unicode="&#x2d9;" horiz-adv-x="530" 
d="M155 648q0 46 32 78t78 32t78 -32t32 -78t-32 -78t-78 -32t-78 32t-32 78z" />
    <glyph glyph-name="ring" unicode="&#x2da;" horiz-adv-x="530" 
d="M265 620q28 0 28 27t-28 27t-28 -26q0 -28 28 -28zM265 537q-116 0 -116 110q0 111 116 111t116 -110q0 -111 -116 -111z" />
    <glyph glyph-name="ogonek" unicode="&#x2db;" horiz-adv-x="530" 
d="M351 63l38 -63q-53 -14 -81.5 -42t-28.5 -57q0 -46 60 -46q30 0 60 9v-98q-41 -16 -102 -16q-71 0 -114.5 32t-43.5 91q0 70 59 115t153 75z" />
    <glyph glyph-name="tilde" unicode="&#x2dc;" horiz-adv-x="530" 
d="M43 563v20q0 89 36.5 132t101.5 43q29 0 54 -11t38.5 -25t29.5 -25t31 -11q44 0 44 47h109v-20q0 -89 -36.5 -132t-101.5 -43q-29 0 -54 11t-38.5 25t-29.5 25t-31 11q-44 0 -44 -47h-109z" />
    <glyph glyph-name="hungarumlaut" unicode="&#x2dd;" horiz-adv-x="530" 
d="M230 546h-130l50 204h190zM430 546h-130l50 204h190z" />
    <glyph glyph-name="commaabovecmb" unicode="&#x313;" horiz-adv-x="530" 
d="M229 750h146l-20 -204h-186z" />
    <glyph glyph-name="uni0323" unicode="&#x323;" horiz-adv-x="530" 
d="M375 -148q0 -46 -32 -78t-78 -32t-78 32t-32 78t32 78t78 32t78 -32t32 -78z" />
    <glyph glyph-name="uni0329" unicode="&#x329;" horiz-adv-x="530" 
d="M215 -46h100v-204h-100v204z" />
    <glyph glyph-name="ohm" unicode="&#x3a9;" horiz-adv-x="710" 
d="M355 592q-66 0 -99 -42t-33 -115q0 -163 114 -284l1 -151h-314v173l115 -3q-46 48 -79 121.5t-33 158.5q0 149 84 232.5t244 83.5t244 -83.5t84 -232.5q0 -85 -33 -158.5t-79 -121.5l115 3v-173h-314v151q114 120 114 284q0 73 -33 115t-98 42z" />
    <glyph glyph-name="ohm" unicode="&#x2126;" horiz-adv-x="710" 
d="M355 592q-66 0 -99 -42t-33 -115q0 -163 114 -284l1 -151h-314v173l115 -3q-46 48 -79 121.5t-33 158.5q0 149 84 232.5t244 83.5t244 -83.5t84 -232.5q0 -85 -33 -158.5t-79 -121.5l115 3v-173h-314v151q114 120 114 284q0 73 -33 115t-98 42z" />
    <glyph glyph-name="pi" unicode="&#x3c0;" horiz-adv-x="681" 
d="M15 -2v145q50 0 69 20t24 64l10 98h-89v175h630v-175h-93v-98q0 -43 19.5 -63.5t73.5 -20.5v-145q-28 -8 -69 -8q-95 0 -157 55t-62 145v135h-56l-13 -135q-9 -92 -68 -146t-152 -54q-39 0 -67 8z" />
    <glyph glyph-name="uni0E3F" unicode="&#xe3f;" horiz-adv-x="547" 
d="M44 63v500h227l43 124h141l-47 -131q106 -24 106 -134q0 -56 -42 -87q27 -13 43 -42t16 -66q0 -164 -188 -164h-76l-43 -125h-141l45 125h-84zM337 236q0 26 -25 26h-78v-51h79q24 0 24 25zM327 392q0 23 -23 23h-70v-47h69q24 0 24 24z" />
    <glyph glyph-name="Ddotbelow" unicode="&#x1e0c;" horiz-adv-x="646" 
d="M293 0h-256v750h256q96 0 161.5 -28t100.5 -81t49.5 -117t14.5 -149q0 -68 -8.5 -121.5t-30.5 -102t-58.5 -81t-94 -51.5t-134.5 -19zM233 579v-408h61q71 0 97.5 48.5t26.5 155.5q0 106 -27 155t-97 49h-61zM433 -148q0 -46 -32 -78t-78 -32t-78 32t-32 78t32 78t78 32
t78 -32t32 -78z" />
    <glyph glyph-name="ddotbelow" unicode="&#x1e0d;" horiz-adv-x="555" 
d="M523 0h-130l-21 33q-74 -49 -158 -49q-100 0 -148.5 62.5t-48.5 203.5t48.5 203.5t148.5 62.5q61 0 113 -27v261h196v-750zM327 147v205q-23 15 -53 15q-38 0 -51.5 -26t-13.5 -91q0 -66 13.5 -92t51.5 -26q30 0 53 15zM387 -148q0 -46 -32 -78t-78 -32t-78 32t-32 78
t32 78t78 32t78 -32t32 -78z" />
    <glyph glyph-name="Dcedilla" unicode="&#x1e10;" horiz-adv-x="646" 
d="M293 0h-256v750h256q96 0 161.5 -28t100.5 -81t49.5 -117t14.5 -149q0 -68 -8.5 -121.5t-30.5 -102t-58.5 -81t-94 -51.5t-134.5 -19zM233 579v-408h61q71 0 97.5 48.5t26.5 155.5q0 106 -27 155t-97 49h-61zM242 -84l7 50q187 -14 187 -111q0 -53 -39.5 -79t-106.5 -26
q-66 0 -104 16v98q36 -11 79 -11q52 0 52 25q0 28 -75 38z" />
    <glyph glyph-name="dcedilla" unicode="&#x1e11;" horiz-adv-x="555" 
d="M523 0h-130l-21 33q-74 -49 -158 -49q-100 0 -148.5 62.5t-48.5 203.5t48.5 203.5t148.5 62.5q61 0 113 -27v261h196v-750zM327 147v205q-23 15 -53 15q-38 0 -51.5 -26t-13.5 -91q0 -66 13.5 -92t51.5 -26q30 0 53 15zM222 -84l7 50q187 -14 187 -111q0 -53 -39.5 -79
t-106.5 -26q-66 0 -104 16v98q36 -11 79 -11q52 0 52 25q0 28 -75 38z" />
    <glyph glyph-name="Hdotbelow" unicode="&#x1e24;" horiz-adv-x="646" 
d="M609 0h-196v299h-180v-299h-196v750h196v-278h180v278h196v-750zM433 -148q0 -46 -32 -78t-78 -32t-78 32t-32 78t32 78t78 32t78 -32t32 -78z" />
    <glyph glyph-name="hdotbelow" unicode="&#x1e25;" horiz-adv-x="554" 
d="M32 750h196v-260q54 26 119 26q102 0 140.5 -46t38.5 -129v-341h-196v323q0 40 -38 40q-35 0 -64 -18v-345h-196v750zM387 -148q0 -46 -32 -78t-78 -32t-78 32t-32 78t32 78t78 32t78 -32t32 -78z" />
    <glyph glyph-name="Ldotbelow" unicode="&#x1e36;" horiz-adv-x="525" 
d="M233 750v-577h282v-173h-478v750h196zM373 -148q0 -46 -32 -78t-78 -32t-78 32t-32 78t32 78t78 32t78 -32t32 -78z" />
    <glyph glyph-name="ldotbelow" unicode="&#x1e37;" horiz-adv-x="284" 
d="M269 149v-151q-35 -8 -73 -8q-74 0 -118 35t-44 108v617h196v-571q0 -30 39 -30zM252 -148q0 -46 -32 -78t-78 -32t-78 32t-32 78t32 78t78 32t78 -32t32 -78z" />
    <glyph glyph-name="Ldotbelowmacron" unicode="&#x1e38;" horiz-adv-x="525" 
d="M233 750v-577h282v-173h-478v750h196zM291 910v-124h-312v124h312zM373 -148q0 -46 -32 -78t-78 -32t-78 32t-32 78t32 78t78 32t78 -32t32 -78z" />
    <glyph glyph-name="ldotbelowmacron" unicode="&#x1e39;" horiz-adv-x="284" 
d="M269 149v-151q-35 -8 -73 -8q-74 0 -118 35t-44 108v617h196v-571q0 -30 39 -30zM288 910v-124h-312v124h312zM252 -148q0 -46 -32 -78t-78 -32t-78 32t-32 78t32 78t78 32t78 -32t32 -78z" />
    <glyph glyph-name="Mdotbelow" unicode="&#x1e42;" horiz-adv-x="828" 
d="M292 750l122 -433l122 433h255v-750h-195l11 442l-104 -354h-178l-104 354l11 -442h-195v750h255zM524 -148q0 -46 -32 -78t-78 -32t-78 32t-32 78t32 78t78 32t78 -32t32 -78z" />
    <glyph glyph-name="mdotbelow" unicode="&#x1e43;" horiz-adv-x="826" 
d="M798 0h-196v334q0 29 -33 29q-31 0 -56 -18v-345h-196v334q0 29 -33 29q-31 0 -56 -18v-345h-196v500h130l18 -32q65 48 159 48q89 0 127 -41q62 41 157 41q99 0 137 -47t38 -128v-341zM523 -148q0 -46 -32 -78t-78 -32t-78 32t-32 78t32 78t78 32t78 -32t32 -78z" />
    <glyph glyph-name="Ndotaccent" unicode="&#x1e44;" horiz-adv-x="660" 
d="M37 750h189l210 -390l-9 390h196v-750h-189l-210 390l9 -390h-196v750zM220 848q0 42 28.5 57t81.5 15t81.5 -15t28.5 -57t-28.5 -57t-81.5 -15t-81.5 15t-28.5 57z" />
    <glyph glyph-name="ndotaccent" unicode="&#x1e45;" horiz-adv-x="554" 
d="M32 500h130l18 -32q77 48 167 48q102 0 140.5 -46t38.5 -129v-341h-196v323q0 40 -38 40q-35 0 -64 -18v-345h-196v500zM169 648q0 46 32 78t78 32t78 -32t32 -78t-32 -78t-78 -32t-78 32t-32 78z" />
    <glyph glyph-name="Ndotbelow" unicode="&#x1e46;" horiz-adv-x="660" 
d="M37 750h189l210 -390l-9 390h196v-750h-189l-210 390l9 -390h-196v750zM440 -148q0 -46 -32 -78t-78 -32t-78 32t-32 78t32 78t78 32t78 -32t32 -78z" />
    <glyph glyph-name="ndotbelow" unicode="&#x1e47;" horiz-adv-x="554" 
d="M32 500h130l18 -32q77 48 167 48q102 0 140.5 -46t38.5 -129v-341h-196v323q0 40 -38 40q-35 0 -64 -18v-345h-196v500zM387 -148q0 -46 -32 -78t-78 -32t-78 32t-32 78t32 78t78 32t78 -32t32 -78z" />
    <glyph glyph-name="Rdotbelow" unicode="&#x1e5a;" horiz-adv-x="627" 
d="M423 -148q0 -46 -32 -78t-78 -32t-78 32t-32 78t32 78t78 32t78 -32t32 -78zM233 273v-273h-196v750h277q150 0 213 -61.5t63 -178.5q0 -146 -98 -200l135 -310h-227l-98 273h-69zM233 587v-157h84q64 0 64 79q0 78 -64 78h-84z" />
    <glyph glyph-name="rdotbelow" unicode="&#x1e5b;" horiz-adv-x="387" 
d="M379 508l-2 -161q-16 4 -49 4q-64 0 -100 -25v-326h-196v500h130l18 -32q55 48 145 48q38 0 54 -8zM240 -148q0 -46 -32 -78t-78 -32t-78 32t-32 78t32 78t78 32t78 -32t32 -78z" />
    <glyph glyph-name="Rdotbelowmacron" unicode="&#x1e5c;" horiz-adv-x="627" 
d="M442 910v-124h-312v124h312zM423 -148q0 -46 -32 -78t-78 -32t-78 32t-32 78t32 78t78 32t78 -32t32 -78zM233 273v-273h-196v750h277q150 0 213 -61.5t63 -178.5q0 -146 -98 -200l135 -310h-227l-98 273h-69zM233 587v-157h84q64 0 64 79q0 78 -64 78h-84z" />
    <glyph glyph-name="rdotbelowmacron" unicode="&#x1e5d;" horiz-adv-x="387" 
d="M379 508l-2 -161q-16 4 -49 4q-64 0 -100 -25v-326h-196v500h130l18 -32q55 48 145 48q38 0 54 -8zM359 713v-130h-312v130h312zM240 -148q0 -46 -32 -78t-78 -32t-78 32t-32 78t32 78t78 32t78 -32t32 -78z" />
    <glyph glyph-name="Sdotbelow" unicode="&#x1e62;" horiz-adv-x="597" 
d="M316 465q141 -17 200 -62.5t59 -165.5q0 -136 -78.5 -194.5t-223.5 -58.5q-160 0 -246 52l2 183q100 -57 227 -57q123 0 123 65q0 33 -21.5 47.5t-68.5 20.5q-145 17 -203.5 65t-58.5 167q0 114 73 176.5t222 62.5q143 0 221 -39l-3 -179q-36 17 -93.5 28.5t-109.5 11.5
q-115 0 -115 -60q0 -31 22 -44t72 -19zM408 -148q0 -46 -32 -78t-78 -32t-78 32t-32 78t32 78t78 32t78 -32t32 -78z" />
    <glyph glyph-name="sdotbelow" unicode="&#x1e63;" horiz-adv-x="471" 
d="M346 -148q0 -46 -32 -78t-78 -32t-78 32t-32 78t32 78t78 32t78 -32t32 -78zM430 488l-3 -148q-81 32 -168 32q-56 0 -56 -30q0 -28 39 -31q124 -10 165 -40t41 -112q0 -175 -234 -175q-107 0 -191 34l3 148q95 -39 186 -39q57 0 57 30q0 28 -40 31q-121 11 -163.5 41.5
t-42.5 110.5q0 83 55.5 129.5t172.5 46.5q110 0 179 -28z" />
    <glyph glyph-name="Tdotbelow" unicode="&#x1e6c;" horiz-adv-x="568" 
d="M558 577h-176v-577h-196v577h-176v173h548v-173zM394 -148q0 -46 -32 -78t-78 -32t-78 32t-32 78t32 78t78 32t78 -32t32 -78z" />
    <glyph glyph-name="tdotbelow" unicode="&#x1e6d;" horiz-adv-x="406" 
d="M382 144l3 -146q-39 -14 -108 -14q-105 0 -151 44t-46 134v189h-79v122l79 22v100l196 52v-147h114v-149h-114v-167q0 -47 50 -47q28 0 56 7zM313 -148q0 -46 -32 -78t-78 -32t-78 32t-32 78t32 78t78 32t78 -32t32 -78z" />
    <glyph glyph-name="Wgrave" unicode="&#x1e80;" horiz-adv-x="888" 
d="M527 -4l-83 496l-83 -496h-235l-116 754h202l46 -474l78 474h216l78 -474l46 474h202l-116 -754h-235zM364 786l-80 124h194l46 -124h-160z" />
    <glyph glyph-name="wgrave" unicode="&#x1e81;" horiz-adv-x="700" 
d="M434 500l48 -285l31 285h185l-101 -504h-195l-52 294l-52 -294h-195l-101 504h185l31 -285l48 285h168zM285 546l-110 204h190l50 -204h-130z" />
    <glyph glyph-name="Wacute" unicode="&#x1e82;" horiz-adv-x="888" 
d="M527 -4l-83 496l-83 -496h-235l-116 754h202l46 -474l78 474h216l78 -474l46 474h202l-116 -754h-235zM524 786h-160l46 124h194z" />
    <glyph glyph-name="wacute" unicode="&#x1e83;" horiz-adv-x="700" 
d="M434 500l48 -285l31 285h185l-101 -504h-195l-52 294l-52 -294h-195l-101 504h185l31 -285l48 285h168zM415 546h-130l50 204h190z" />
    <glyph glyph-name="Wdieresis" unicode="&#x1e84;" horiz-adv-x="888" 
d="M527 -4l-83 496l-83 -496h-235l-116 754h202l46 -474l78 474h216l78 -474l46 474h202l-116 -754h-235zM459 848q0 42 28.5 57t81.5 15t81.5 -15t28.5 -57t-28.5 -57t-81.5 -15t-81.5 15t-28.5 57zM209 848q0 42 28.5 57t81.5 15t81.5 -15t28.5 -57t-28.5 -57t-81.5 -15
t-81.5 15t-28.5 57z" />
    <glyph glyph-name="wdieresis" unicode="&#x1e85;" horiz-adv-x="700" 
d="M434 500l48 -285l31 285h185l-101 -504h-195l-52 294l-52 -294h-195l-101 504h185l31 -285l48 285h168zM365 648q0 46 32 78t78 32t78 -32t32 -78t-32 -78t-78 -32t-78 32t-32 78zM115 648q0 46 32 78t78 32t78 -32t32 -78t-32 -78t-78 -32t-78 32t-32 78z" />
    <glyph glyph-name="Idotbelow" unicode="&#x1eca;" horiz-adv-x="282" 
d="M239 0h-196v750h196v-750zM251 -148q0 -46 -32 -78t-78 -32t-78 32t-32 78t32 78t78 32t78 -32t32 -78z" />
    <glyph glyph-name="idotbelow" unicode="&#x1ecb;" horiz-adv-x="284" 
d="M269 149v-151q-35 -8 -73 -8q-74 0 -118 35t-44 108v367h196v-321q0 -30 39 -30zM22 648q0 46 32 78t78 32t78 -32t32 -78t-32 -78t-78 -32t-78 32t-32 78zM252 -148q0 -46 -32 -78t-78 -32t-78 32t-32 78t32 78t78 32t78 -32t32 -78z" />
    <glyph glyph-name="Odotbelow" unicode="&#x1ecc;" horiz-adv-x="666" 
d="M29 375q0 75 7.5 132t28 107.5t54.5 82.5t87.5 50.5t126.5 18.5t126.5 -18.5t87.5 -50.5t54.5 -82.5t28 -107.5t7.5 -132t-7.5 -132t-28 -107.5t-54.5 -82.5t-87.5 -50.5t-126.5 -18.5t-126.5 18.5t-87.5 50.5t-54.5 82.5t-28 107.5t-7.5 132zM438 375q0 125 -22.5 171
t-82.5 46t-82.5 -46t-22.5 -171t22.5 -171t82.5 -46t82.5 46t22.5 171zM443 -148q0 -46 -32 -78t-78 -32t-78 32t-32 78t32 78t78 32t78 -32t32 -78z" />
    <glyph glyph-name="odotbelow" unicode="&#x1ecd;" horiz-adv-x="530" 
d="M265 132q33 0 45.5 25t12.5 93t-12.5 93t-45.5 25t-45.5 -25t-12.5 -93t12.5 -93t45.5 -25zM265 -16q-137 0 -192.5 65t-55.5 201t55.5 201t192.5 65t192.5 -65t55.5 -201t-55.5 -201t-192.5 -65zM375 -148q0 -46 -32 -78t-78 -32t-78 32t-32 78t32 78t78 32t78 -32
t32 -78z" />
    <glyph glyph-name="Udotbelow" unicode="&#x1ee4;" horiz-adv-x="648" 
d="M324 157q44 0 69.5 21.5t25.5 79.5v492h196v-507q0 -60 -17.5 -106.5t-45.5 -74.5t-67.5 -46.5t-78 -25t-82.5 -6.5q-55 0 -103 12t-92 39t-70 80.5t-26 127.5v507h196v-492q0 -58 25.5 -79.5t69.5 -21.5zM434 -148q0 -46 -32 -78t-78 -32t-78 32t-32 78t32 78t78 32
t78 -32t32 -78z" />
    <glyph glyph-name="udotbelow" unicode="&#x1ee5;" horiz-adv-x="554" 
d="M522 0h-130l-18 32q-77 -48 -167 -48q-102 0 -140.5 46t-38.5 129v341h196v-323q0 -40 38 -40q35 0 64 18v345h196v-500zM387 -148q0 -46 -32 -78t-78 -32t-78 32t-32 78t32 78t78 32t78 -32t32 -78z" />
    <glyph glyph-name="Ygrave" unicode="&#x1ef2;" horiz-adv-x="670" 
d="M219 750l114 -282l114 282h219l-237 -458l2 -292h-196l2 292l-237 458h219zM254 786l-80 124h194l46 -124h-160z" />
    <glyph glyph-name="ygrave" unicode="&#x1ef3;" horiz-adv-x="542" 
d="M-3 500h211l63 -288l66 288h207l-268 -750h-221l116 257zM207 546l-110 204h190l50 -204h-130z" />
    <glyph glyph-name="Ytilde" unicode="&#x1ef8;" horiz-adv-x="670" 
d="M219 750l114 -282l114 282h219l-237 -458l2 -292h-196l2 292l-237 458h219zM556 910v-6q0 -71 -33 -99t-94 -28q-43 0 -94.5 22t-69.5 22q-44 0 -44 -35h-109v6q0 71 33 99t94 28q43 0 94.5 -22t69.5 -22q44 0 44 35h109z" />
    <glyph glyph-name="ytilde" unicode="&#x1ef9;" horiz-adv-x="542" 
d="M-3 500h211l63 -288l66 288h207l-268 -750h-221l116 257zM50 563v20q0 89 36.5 132t101.5 43q29 0 54 -11t38.5 -25t29.5 -25t31 -11q44 0 44 47h109v-20q0 -89 -36.5 -132t-101.5 -43q-29 0 -54 11t-38.5 25t-29.5 25t-31 11q-44 0 -44 -47h-109z" />
    <glyph glyph-name="enspace" unicode="&#x2002;" horiz-adv-x="500" 
 />
    <glyph glyph-name="emspace" unicode="&#x2003;" horiz-adv-x="1000" 
 />
    <glyph glyph-name="threeperemspace" unicode="&#x2004;" horiz-adv-x="333" 
 />
    <glyph glyph-name="fourperemspace" unicode="&#x2005;" horiz-adv-x="250" 
 />
    <glyph glyph-name="sixperemspace" unicode="&#x2006;" horiz-adv-x="167" 
 />
    <glyph glyph-name="figurespace" unicode="&#x2007;" horiz-adv-x="577" 
 />
    <glyph glyph-name="punctuationspace" unicode="&#x2008;" horiz-adv-x="207" 
 />
    <glyph glyph-name="thinspace" unicode="&#x2009;" horiz-adv-x="92" 
 />
    <glyph glyph-name="hairspace" unicode="&#x200a;" horiz-adv-x="37" 
 />
    <glyph glyph-name="zerowidthspace" unicode="&#x200b;" horiz-adv-x="0" 
 />
    <glyph glyph-name="figuredash" unicode="&#x2012;" 
d="M574 402v-154h-548v154h548z" />
    <glyph glyph-name="endash" unicode="&#x2013;" horiz-adv-x="500" 
d="M474 402v-154h-448v154h448z" />
    <glyph glyph-name="emdash" unicode="&#x2014;" horiz-adv-x="1000" 
d="M974 402v-154h-948v154h948z" />
    <glyph glyph-name="afii00208" unicode="&#x2015;" horiz-adv-x="1500" 
d="M1474 402v-154h-1448v154h1448z" />
    <glyph glyph-name="quoteleft" unicode="&#x2018;" horiz-adv-x="232" 
d="M79 750h129l-29 -250h-200z" />
    <glyph glyph-name="quoteright" unicode="&#x2019;" horiz-adv-x="232" 
d="M153 500h-129l29 250h200z" />
    <glyph glyph-name="quotesinglbase" unicode="&#x201a;" horiz-adv-x="252" 
d="M143 -155h-129l29 250h200z" />
    <glyph glyph-name="quotedblleft" unicode="&#x201c;" horiz-adv-x="457" 
d="M304 750h129l-29 -250h-200zM79 750h129l-29 -250h-200z" />
    <glyph glyph-name="quotedblright" unicode="&#x201d;" horiz-adv-x="457" 
d="M153 500h-129l29 250h200zM378 500h-129l29 250h200z" />
    <glyph glyph-name="quotedblbase" unicode="&#x201e;" horiz-adv-x="477" 
d="M143 -155h-129l29 250h200zM368 -155h-129l29 250h200z" />
    <glyph glyph-name="dagger" unicode="&#x2020;" horiz-adv-x="430" 
d="M302 461l25 -211h-224l25 211l-115 -17v208l115 -17l-17 115h208l-17 -115l115 17v-208z" />
    <glyph glyph-name="daggerdbl" unicode="&#x2021;" horiz-adv-x="430" 
d="M417 444l-115 17l6 -38l-6 -38l115 17v-208l-115 17l25 -211h-224l25 211l-115 -17v208l115 -17l-6 38l6 38l-115 -17v208l115 -17l-17 115h208l-17 -115l115 17v-208z" />
    <glyph glyph-name="bullet" unicode="&#x2022;" horiz-adv-x="377" 
d="M47 375q0 59 41.5 100t99.5 41t99.5 -41t41.5 -100t-41.5 -100t-99.5 -41t-99.5 41t-41.5 100z" />
    <glyph glyph-name="ellipsis" unicode="&#x2026;" horiz-adv-x="1240" 
d="M120 94q0 46 32 78t78 32t78 -32t32 -78t-32 -78t-78 -32t-78 32t-32 78zM510 94q0 46 32 78t78 32t78 -32t32 -78t-32 -78t-78 -32t-78 32t-32 78zM900 94q0 46 32 78t78 32t78 -32t32 -78t-32 -78t-78 -32t-78 32t-32 78z" />
    <glyph glyph-name="perthousand" unicode="&#x2030;" horiz-adv-x="1542" 
d="M396 0h-143l444 625h142zM1068 192q0 -107 -51.5 -157.5t-154.5 -50.5t-154.5 50.5t-51.5 157.5t51.5 157.5t154.5 50.5t154.5 -50.5t51.5 -157.5zM894 192q0 39 -7.5 51t-24.5 12t-24.5 -12t-7.5 -51t7.5 -51t24.5 -12t24.5 12t7.5 51zM24 433q0 107 51.5 157.5
t154.5 50.5t154.5 -50.5t51.5 -157.5t-51.5 -157.5t-154.5 -50.5t-154.5 50.5t-51.5 157.5zM198 433q0 -39 7.5 -51t24.5 -12t24.5 12t7.5 51t-7.5 51t-24.5 12t-24.5 -12t-7.5 -51zM1518 192q0 -107 -51.5 -157.5t-154.5 -50.5t-154.5 50.5t-51.5 157.5t51.5 157.5
t154.5 50.5t154.5 -50.5t51.5 -157.5zM1344 192q0 39 -7.5 51t-24.5 12t-24.5 -12t-7.5 -51t7.5 -51t24.5 -12t24.5 12t7.5 51z" />
    <glyph glyph-name="guilsinglleft" unicode="&#x2039;" horiz-adv-x="282" 
d="M43 195v110l190 145v-143l-57 -57l57 -57v-143z" />
    <glyph glyph-name="guilsinglright" unicode="&#x203a;" horiz-adv-x="282" 
d="M239 305v-110l-190 -145v143l57 57l-57 57v143z" />
    <glyph glyph-name="fraction" unicode="&#x2044;" horiz-adv-x="254" 
d="M-67 0h-143l532 750h142z" />
    <glyph glyph-name="uni2070" unicode="&#x2070;" horiz-adv-x="500" 
d="M250 324q-111 0 -166 51t-55 170t55 170t166 51t166 -51t55 -170t-55 -170t-166 -51zM250 469q35 0 52.5 17t17.5 59t-17.5 59t-52.5 17t-52.5 -17t-17.5 -59t17.5 -59t52.5 -17z" />
    <glyph glyph-name="uni2074" unicode="&#x2074;" horiz-adv-x="499" 
d="M16 405v109l199 252h197v-229h64v-132h-64v-65h-162v65h-234zM195 535l55 2l5 77z" />
    <glyph glyph-name="uni2075" unicode="&#x2075;" horiz-adv-x="451" 
d="M31 492q73 -25 168 -25q66 0 66 21q0 15 -32 15h-190v247h370v-142l-220 1v-15h29q117 0 161 -25.5t44 -102.5q0 -73 -54 -107.5t-169 -34.5q-47 0 -101.5 9t-73.5 18z" />
    <glyph glyph-name="uni2076" unicode="&#x2076;" horiz-adv-x="504" 
d="M303 629q-109 0 -113 -51q11 14 45 24t72 10q89 0 127.5 -32t38.5 -99q0 -157 -216 -157q-114 0 -168.5 54.5t-54.5 164.5q0 223 249 223q102 0 162 -23l-2 -142q-51 28 -140 28zM260 457q44 0 44 27q0 28 -36 28q-35 0 -58 -23q1 -15 16 -23.5t34 -8.5z" />
    <glyph glyph-name="uni2077" unicode="&#x2077;" horiz-adv-x="409" 
d="M229 340h-183l165 272l-195 -5v143h376v-98z" />
    <glyph glyph-name="uni2078" unicode="&#x2078;" horiz-adv-x="471" 
d="M235 458q44 0 44 22q0 23 -44 23t-44 -23q0 -22 44 -22zM235 596q40 0 40 18q0 19 -40 19t-40 -19q0 -18 40 -18zM235 324q-110 0 -160.5 33.5t-50.5 103.5q0 35 17.5 64t45.5 40q-19 5 -33.5 26.5t-14.5 55.5q0 61 47.5 90t148.5 29q100 0 147.5 -29t47.5 -90
q0 -34 -14.5 -55.5t-33.5 -26.5q29 -11 47 -40t18 -64q0 -70 -51 -103.5t-161 -33.5z" />
    <glyph glyph-name="uni2079" unicode="&#x2079;" horiz-adv-x="504" 
d="M201 461q109 0 114 51q-12 -14 -46 -24t-72 -10q-89 0 -127 32t-38 99q0 157 215 157q114 0 168.5 -54.5t54.5 -164.5q0 -111 -61.5 -167t-195.5 -56q-107 0 -167 23l2 142q55 -28 153 -28zM245 633q-44 0 -44 -27q0 -28 36 -28q34 0 57 23q-1 15 -16 23.5t-33 8.5z" />
    <glyph glyph-name="uni207A" unicode="&#x207a;" horiz-adv-x="420" 
d="M127 370v94h-92v162h92v94h166v-94h92v-162h-92v-94h-166z" />
    <glyph glyph-name="uni207B" unicode="&#x207b;" horiz-adv-x="420" 
d="M385 464h-350v162h350v-162z" />
    <glyph glyph-name="uni207C" unicode="&#x207c;" horiz-adv-x="420" 
d="M385 558h-350v162h350v-162zM385 370h-350v162h350v-162z" />
    <glyph glyph-name="uni207D" unicode="&#x207d;" horiz-adv-x="271" 
d="M194 545q0 -65 18.5 -125.5t43.5 -99.5h-160q-61 94 -61 225t61 225h160q-25 -39 -43.5 -99.5t-18.5 -125.5z" />
    <glyph glyph-name="uni207E" unicode="&#x207e;" horiz-adv-x="271" 
d="M77 545q0 65 -18.5 125.5t-43.5 99.5h160q61 -94 61 -225t-61 -225h-160q25 39 43.5 99.5t18.5 125.5z" />
    <glyph glyph-name="n.superior" unicode="&#x207f;" horiz-adv-x="318" 
d="M20 590h84l9 -14q39 23 84 23q57 0 76.5 -23.5t19.5 -67.5v-168h-120v162q0 9 -11 9q-10 0 -22 -5v-166h-120v250z" />
    <glyph glyph-name="uni2080" unicode="&#x2080;" horiz-adv-x="500" 
d="M250 -16q-111 0 -166 51t-55 170t55 170t166 51t166 -51t55 -170t-55 -170t-166 -51zM250 129q35 0 52.5 17t17.5 59t-17.5 59t-52.5 17t-52.5 -17t-17.5 -59t17.5 -59t52.5 -17z" />
    <glyph glyph-name="uni2081" unicode="&#x2081;" horiz-adv-x="339" 
d="M204 426h74v-426h-167v272l-98 -4v105z" />
    <glyph glyph-name="uni2082" unicode="&#x2082;" horiz-adv-x="435" 
d="M176 282q-64 0 -136 -29l-2 143q60 30 176 30q102 0 142.5 -37.5t40.5 -92.5q0 -103 -156 -159l167 5v-142h-382v107q105 51 148.5 83t43.5 57q0 35 -42 35z" />
    <glyph glyph-name="uni2083" unicode="&#x2083;" horiz-adv-x="456" 
d="M188 126q82 0 82 19q0 15 -25 15h-152v91h143q26 0 26 14q0 19 -74 19q-31 0 -67.5 -5.5t-58.5 -10.5l-21 -6l-2 137q19 10 69 18.5t101 8.5q208 0 208 -117q0 -32 -15 -54.5t-37 -29.5q67 -27 67 -104q0 -66 -56 -101.5t-167 -35.5q-50 0 -104 9t-74 18l2 138
q72 -23 155 -23z" />
    <glyph glyph-name="uni2084" unicode="&#x2084;" horiz-adv-x="499" 
d="M16 65v109l199 252h197v-229h64v-132h-64v-65h-162v65h-234zM195 195l55 2l5 77z" />
    <glyph glyph-name="uni2085" unicode="&#x2085;" horiz-adv-x="451" 
d="M31 152q73 -25 168 -25q66 0 66 21q0 15 -32 15h-190v247h370v-142l-220 1v-15h29q117 0 161 -25.5t44 -102.5q0 -73 -54 -107.5t-169 -34.5q-47 0 -101.5 9t-73.5 18z" />
    <glyph glyph-name="uni2086" unicode="&#x2086;" horiz-adv-x="504" 
d="M303 289q-109 0 -113 -51q11 14 45 24t72 10q89 0 127.5 -32t38.5 -99q0 -157 -216 -157q-114 0 -168.5 54.5t-54.5 164.5q0 223 249 223q102 0 162 -23l-2 -142q-51 28 -140 28zM260 117q44 0 44 27q0 28 -36 28q-35 0 -58 -23q1 -15 16 -23.5t34 -8.5z" />
    <glyph glyph-name="uni2087" unicode="&#x2087;" horiz-adv-x="409" 
d="M229 0h-183l165 272l-195 -5v143h376v-98z" />
    <glyph glyph-name="uni2088" unicode="&#x2088;" horiz-adv-x="471" 
d="M235 118q44 0 44 22q0 23 -44 23t-44 -23q0 -22 44 -22zM235 256q40 0 40 18q0 19 -40 19t-40 -19q0 -18 40 -18zM235 -16q-110 0 -160.5 33.5t-50.5 103.5q0 35 17.5 64t45.5 40q-19 5 -33.5 26.5t-14.5 55.5q0 61 47.5 90t148.5 29q100 0 147.5 -29t47.5 -90
q0 -34 -14.5 -55.5t-33.5 -26.5q29 -11 47 -40t18 -64q0 -70 -51 -103.5t-161 -33.5z" />
    <glyph glyph-name="uni2089" unicode="&#x2089;" horiz-adv-x="504" 
d="M201 121q109 0 114 51q-12 -14 -46 -24t-72 -10q-89 0 -127 32t-38 99q0 157 215 157q114 0 168.5 -54.5t54.5 -164.5q0 -111 -61.5 -167t-195.5 -56q-107 0 -167 23l2 142q55 -28 153 -28zM245 293q-44 0 -44 -27q0 -28 36 -28q34 0 57 23q-1 15 -16 23.5t-33 8.5z" />
    <glyph glyph-name="uni208A" unicode="&#x208a;" horiz-adv-x="420" 
d="M127 30v94h-92v162h92v94h166v-94h92v-162h-92v-94h-166z" />
    <glyph glyph-name="uni208B" unicode="&#x208b;" horiz-adv-x="420" 
d="M385 124h-350v162h350v-162z" />
    <glyph glyph-name="uni208C" unicode="&#x208c;" horiz-adv-x="420" 
d="M385 218h-350v162h350v-162zM385 30h-350v162h350v-162z" />
    <glyph glyph-name="uni208D" unicode="&#x208d;" horiz-adv-x="271" 
d="M194 205q0 -65 18.5 -125.5t43.5 -99.5h-160q-61 94 -61 225t61 225h160q-25 -39 -43.5 -99.5t-18.5 -125.5z" />
    <glyph glyph-name="uni208E" unicode="&#x208e;" horiz-adv-x="271" 
d="M77 205q0 65 -18.5 125.5t-43.5 99.5h160q61 -94 61 -225t-61 -225h-160q25 39 43.5 99.5t18.5 125.5z" />
    <glyph glyph-name="uni20A1" unicode="&#x20a1;" horiz-adv-x="514" 
d="M31 313q0 231 203 260l34 114h87l-33 -109q9 0 27 -2l32 111h88l-37 -123q22 -5 50 -16l-2 -163q-49 16 -93 22l-57 -191q2 0 5 -0.5t5 -0.5q70 0 140 26l2 -163q-68 -31 -178 -31h-22q-22 -72 -32 -109h-88l36 121q-16 4 -24 7l-38 -128h-87l50 173q-68 67 -68 202z
M221 313q0 -51 29 -74l49 167q-78 -11 -78 -93z" />
    <glyph glyph-name="uni20A2" unicode="&#x20a2;" horiz-adv-x="573" 
d="M23 312q1 329 346 329q102 0 175 -30l-3 -162q-67 24 -153 24q-85 0 -128.5 -34.5t-43.5 -126.5q0 -114 74 -145v236h109l18 -32q21 20 56.5 33t68.5 13v-163q-50 -2 -77 -20v-76q41 4 76 17l3 -161q-73 -30 -175 -30q-345 0 -346 328z" />
    <glyph glyph-name="uni20A3" unicode="&#x20a3;" horiz-adv-x="547" 
d="M481 199h-207v-199h-193v199h-59v102h59v24h-59v101h59v199h444v-166h-251v-33h207v-101h-207v-24h207v-102z" />
    <glyph glyph-name="uni20A4" unicode="&#x20a4;" horiz-adv-x="595" 
d="M487 301v-102h-209v-39h291v-160h-547v160h64v39h-64v102h64v24h-64v101h65q0 99 64 157t203 58q126 0 203 -36l-2 -159q-93 31 -174 31q-83 0 -98 -51h204v-101h-209v-24h209z" />
    <glyph glyph-name="uni20A6" unicode="&#x20a6;" horiz-adv-x="716" 
d="M250 625l204 -316l-8 316h189v-199h59v-102h-59v-24h59v-101h-59v-199h-169l-204 316l8 -316h-189v199h-59v102h59v24h-59v101h59v199h169z" />
    <glyph glyph-name="uni20A7" unicode="&#x20a7;" horiz-adv-x="1416" 
d="M1144 391q69 -7 110.5 -17t74.5 -31t46.5 -56t13.5 -90q0 -108 -66.5 -160.5t-202.5 -52.5q-66 0 -132 11.5t-102 31.5l3 171q104 -48 219 -48q89 0 89 44q0 23 -15.5 32t-50.5 13q-101 11 -154.5 33t-74.5 68h-98v-340h-190v340h-67q-35 -150 -248 -150h-66v-190h-193
v625h259q194 0 241 -125h352q40 141 253 141q65 0 127 -10.5t92 -25.5l-3 -168q-38 16 -96.5 26.5t-106.5 10.5q-81 0 -81 -41q0 -21 15 -29.5t52 -12.5zM356 406q0 59 -63 59h-60v-116h64q59 0 59 57z" />
    <glyph glyph-name="uni20A8" unicode="&#x20a8;" horiz-adv-x="1047" 
d="M736 -16q-200 0 -382 44l-64 184h-57v-212h-193v625h269q141 0 197.5 -52t56.5 -157q0 -124 -85 -171l40 -92q115 -20 218 -20q60 0 81 5t21 19q0 13 -8.5 18t-28.5 7q-123 10 -164.5 43t-41.5 115q0 83 55.5 129.5t172.5 46.5q110 0 179 -28l-3 -152q-81 32 -168 32
q-53 0 -53 -25q0 -14 8.5 -19t27.5 -7q122 -10 164 -42.5t42 -115.5q0 -40 -12.5 -69.5t-43 -54.5t-87.5 -38t-141 -13zM362 413q0 51 -49 51h-80v-101h82q47 0 47 50z" />
    <glyph glyph-name="uni20A9" unicode="&#x20a9;" horiz-adv-x="920" 
d="M460 391l-67 -395h-232l-36 203h-103v102h85l-4 24h-81v101h63l-35 199h197l23 -199h54l34 199h204l34 -199h54l23 199h197l-35 -199h63v-101h-81l-4 -24h85v-102h-103l-36 -203h-232zM613 325l17 -96l10 96h-27zM280 325l10 -96l17 96h-27z" />
    <glyph glyph-name="uni20AA" unicode="&#x20aa;" horiz-adv-x="761" 
d="M395 183v226q0 31 -14.5 46t-51.5 15h-110v-470h-184v625h286q103 0 148 -43t45 -134v-265h-119zM542 216v409h185v-448q0 -91 -45 -134t-148 -43h-287v442h120v-287h109q37 0 51.5 15t14.5 46z" />
    <glyph glyph-name="Euro" unicode="&#x20ac;" horiz-adv-x="598" 
d="M78 325h-59v101h69q23 113 101.5 164t211.5 51q114 0 172 -28l-3 -159q-64 23 -147 23q-107 0 -130 -51h212l-36 -101h-199v-24h191l-36 -102h-133q24 -51 131 -51q83 0 147 23l3 -159q-62 -28 -172 -28q-133 0 -211.5 51t-101.5 164h-69v102h59v24z" />
    <glyph glyph-name="uni20AE" unicode="&#x20ae;" horiz-adv-x="544" 
d="M89 74v92l87 37v25l-87 -37v93l87 36v138h-162v167h516v-167h-162v-62l87 37v-92l-87 -38v-25l87 38v-93l-87 -37v-186h-192v110z" />
    <glyph glyph-name="uni20B1" unicode="&#x20b1;" horiz-adv-x="668" 
d="M340 181h-66v-181h-193v289h-59v102h59v24h-59v101h59v109h259q178 0 233 -109h73v-101h-50v-24h50v-102h-73q-54 -108 -233 -108zM274 465v-124h60q64 0 64 62t-64 62h-60z" />
    <glyph glyph-name="litre" unicode="&#x2113;" horiz-adv-x="430" 
d="M256 253v-69q0 -47 50 -47q28 0 56 7l3 -146q-39 -14 -108 -14q-95 0 -141.5 36t-54.5 109q-21 -14 -42 -25v151l41 34v207q0 149 51.5 209.5t145.5 60.5q152 0 152 -169q0 -181 -153 -344zM256 556v-111q33 72 33 146q0 24 -13 24q-20 0 -20 -59z" />
    <glyph glyph-name="numero" unicode="&#x2116;" horiz-adv-x="1075" 
d="M37 750h189l210 -390l-9 390h196v-750h-189l-210 390l9 -390h-196v750zM866 486q22 0 31 16.5t9 61.5q0 44 -9 60.5t-31 16.5t-31 -16.5t-9 -60.5q0 -45 9 -61.5t31 -16.5zM866 361q-105 0 -149 48t-44 155t44 154.5t149 47.5t149 -47.5t44 -154.5t-44 -155t-149 -48z
" />
    <glyph glyph-name="servicemark" unicode="&#x2120;" horiz-adv-x="615" 
d="M450 500h-60l-40 102l2 -102h-82v250h96l54 -126l54 126h96v-250h-82l1 102zM221 748v-75q-49 14 -89 14q-30 0 -30 -12q0 -10 22 -13q3 0 11 -1l8 -1q59 -7 74.5 -22t15.5 -61q0 -86 -113 -86q-57 0 -89 15v74q51 -17 99 -17q29 0 29 12q0 8 -5.5 10t-26.5 4q-4 1 -6 1
q-59 7 -76 22.5t-17 60.5q0 86 114 86q44 0 79 -11z" />
    <glyph glyph-name="trademark" unicode="&#x2122;" horiz-adv-x="605" 
d="M440 500h-60l-40 102l2 -102h-82v250h96l54 -126l54 126h96v-250h-82l1 102zM230 666h-58v-166h-88v166h-59v84h205v-84z" />
    <glyph glyph-name="estimated" unicode="&#x212e;" horiz-adv-x="812" 
d="M531 221h211q-35 -114 -120.5 -175.5t-215.5 -61.5q-94 0 -165.5 33t-112 89.5t-60.5 124t-20 144.5t20 144.5t60.5 124t112 89.5t165.5 33t165.5 -33t112.5 -89.5t60.5 -124t19.5 -144.5v-73h-481v-112q39 -39 123 -39q106 0 125 70zM406 599q-83 0 -123 -39v-112h246
v112q-42 39 -123 39z" />
    <glyph glyph-name="arrowleft" unicode="&#x2190;" horiz-adv-x="830" 
d="M375 750h260l-289 -284h450v-182h-450l289 -284h-260l-345 345v60z" />
    <glyph glyph-name="arrowup" unicode="&#x2191;" horiz-adv-x="830" 
d="M790 421v-260l-284 289v-450h-182v450l-284 -289v260l345 345h60z" />
    <glyph glyph-name="arrowright" unicode="&#x2192;" horiz-adv-x="830" 
d="M195 750h260l345 -345v-60l-345 -345h-260l289 284h-450v182h450z" />
    <glyph glyph-name="arrowdown" unicode="&#x2193;" horiz-adv-x="830" 
d="M40 329v260l284 -289v450h182v-450l284 289v-260l-345 -345h-60z" />
    <glyph glyph-name="uni2196" unicode="&#x2196;" horiz-adv-x="830" 
d="M565 750l181 -181h-403l457 -457l-128 -128l-456 458v-403l-181 181v488l42 42h488z" />
    <glyph glyph-name="uni2197" unicode="&#x2197;" horiz-adv-x="830" 
d="M84 569l181 181h488l42 -42v-488l-181 -181v403l-456 -458l-128 128l457 457h-403z" />
    <glyph glyph-name="uni2198" unicode="&#x2198;" horiz-adv-x="830" 
d="M265 0l-181 181h403l-457 457l128 128l456 -458v403l181 -181v-488l-42 -42h-488z" />
    <glyph glyph-name="uni2199" unicode="&#x2199;" horiz-adv-x="830" 
d="M746 181l-181 -181h-488l-42 42v488l181 181v-403l456 458l128 -128l-457 -457h403z" />
    <glyph glyph-name="partialdiff" unicode="&#x2202;" horiz-adv-x="535" 
d="M513 250q0 -136 -55.5 -201t-192.5 -65t-192.5 65t-55.5 201q0 266 214 266q57 0 93 -18q-9 100 -119 100q-86 0 -167 -39l-2 169q69 38 198 38q68 0 116.5 -20.5t80 -59t50 -103t25.5 -143.5t7 -190zM265 132q33 0 45.5 25t12.5 93t-12.5 93t-45.5 25t-45.5 -25
t-12.5 -93t12.5 -93t45.5 -25z" />
    <glyph glyph-name="increment" unicode="&#x2206;" horiz-adv-x="820" 
d="M10 0v117l322 649h156l322 -649v-117h-800zM233 173h354l-177 372z" />
    <glyph glyph-name="product" unicode="&#x220f;" horiz-adv-x="740" 
d="M432 577h-124v-577h-196v577h-86v173h688v-173h-86v-577h-196v577z" />
    <glyph glyph-name="summation" unicode="&#x2211;" horiz-adv-x="613" 
d="M29 750h549v-183l-257 2l184 -135v-101l-196 -152l287 2v-183h-585v153l286 231l-268 208v158z" />
    <glyph glyph-name="minus" unicode="&#x2212;" 
d="M560 250h-520v182h520v-182z" />
    <glyph glyph-name="radical" unicode="&#x221a;" horiz-adv-x="842" 
d="M619 750h213l-426 -766h-238l-60 334h-91v182h249l52 -321z" />
    <glyph glyph-name="infinity" unicode="&#x221e;" horiz-adv-x="800" 
d="M763 357q0 -96 -50.5 -148.5t-141.5 -52.5q-94 0 -171 83q-79 -83 -171 -83q-91 0 -142 52.5t-51 148.5q0 95 51 148t142 53t171 -84q78 84 171 84q90 0 141 -52.5t51 -148.5zM563 312q22 -1 35 10.5t13 34.5q0 22 -13 33.5t-35 11.5q-31 -2 -72 -45q40 -44 72 -45z
M236 402q-22 0 -35 -11.5t-13 -33.5q0 -45 48 -45q32 1 72 45q-41 43 -72 45z" />
    <glyph glyph-name="integral" unicode="&#x222b;" horiz-adv-x="359" 
d="M39 -23v606q0 92 49.5 137.5t156.5 45.5q75 0 117 -18l-3 -153q-25 14 -70 14q-54 0 -54 -48v-621q0 -105 -80 -155.5t-208 -50.5v159q54 0 73 20.5t19 63.5z" />
    <glyph glyph-name="approxequal" unicode="&#x2248;" 
d="M560 320v-184q-14 -13 -46.5 -23.5t-69.5 -10.5q-59 0 -150.5 35t-142.5 35q-34 0 -67 -12.5t-44 -24.5v184q14 13 46.5 23.5t69.5 10.5q60 0 151.5 -35t141.5 -35q34 0 67 12.5t44 24.5zM560 547v-184q-14 -13 -46.5 -23.5t-69.5 -10.5q-59 0 -150.5 35t-142.5 35
q-34 0 -67 -12.5t-44 -24.5v184q14 13 46.5 23.5t69.5 10.5q60 0 151.5 -35t141.5 -35q34 0 67 12.5t44 24.5z" />
    <glyph glyph-name="notequal" unicode="&#x2260;" 
d="M560 364h-520v182h303l48 86h132l-52 -86h89v-182zM40 318h520v-182h-303l-48 -86h-132l52 86h-89v182z" />
    <glyph glyph-name="lessequal" unicode="&#x2264;" 
d="M560 324v-121l-520 149v104l520 168v-191l-208 -58zM560 57l-520 149v121l520 -149v-121z" />
    <glyph glyph-name="greaterequal" unicode="&#x2265;" 
d="M40 203v121l208 51l-208 58v191l520 -168v-104zM560 206l-520 -149v121l520 149v-121z" />
    <glyph glyph-name="filledbox" unicode="&#x25a0;" horiz-adv-x="888" 
d="M69 0v750h750v-750h-750zM634 565h-380v-380h380v380zM276 324l51 51l-51 51v117h117l51 -51l51 51h117v-117l-51 -51l51 -51v-117h-117l-51 51l-51 -51h-117v117z" />
    <glyph glyph-name="whitesquare" unicode="&#x25a1;" horiz-adv-x="888" 
d="M69 0v750h750v-750h-750zM634 565h-380v-380h380v380z" />
    <glyph glyph-name="blacksmallsquare" unicode="&#x25aa;" horiz-adv-x="638" 
d="M69 0v500h500v-500h-500z" />
    <glyph glyph-name="whitesmallsquare" unicode="&#x25ab;" horiz-adv-x="638" 
d="M69 0v500h500v-500h-500zM384 315h-130v-130h130v130z" />
    <glyph glyph-name="uni25B2" unicode="&#x25b2;" horiz-adv-x="864" 
d="M-7 0l439 760l439 -760h-878z" />
    <glyph glyph-name="uni25B6" unicode="&#x25b6;" horiz-adv-x="734" 
d="M706 375l-649 -375v750z" />
    <glyph glyph-name="uni25BC" unicode="&#x25bc;" horiz-adv-x="864" 
d="M432 -10l-439 760h878z" />
    <glyph glyph-name="uni25C0" unicode="&#x25c0;" horiz-adv-x="734" 
d="M677 0l-649 375l649 375v-750z" />
    <glyph glyph-name="lozenge" unicode="&#x25ca;" horiz-adv-x="690" 
d="M345 -16l-323 391l323 391l323 -391zM444 375l-99 120l-99 -120l99 -121z" />
    <glyph glyph-name="circle" unicode="&#x25cb;" horiz-adv-x="622" 
d="M45 250q0 110 78 188t188 78t188 -78t78 -188t-78 -188t-188 -78t-188 78t-78 188z" />
    <glyph glyph-name="bullseye" unicode="&#x25ce;" horiz-adv-x="850" 
d="M50 678v72h12l297 -206q-5 -6 -6 -10zM502 552l286 198h12v-72l-291 -138zM50 589v66l300 -125l-6 -10zM513 535l287 120v-66l-279 -66q-3 3 -7 11zM100 750h88l180 -191l-6 -10zM330 503l-280 7v59l290 -54q-5 -8 -10 -12zM491 568l171 182h88l-252 -193zM524 517
l276 52v-59l-264 -7zM50 490l267 6q-9 -14 -21 -20l-246 -46v60zM542 496l258 -6v-60l-232 44zM584 461l216 -51v-65l-176 73q-12 20 -40 43zM212 750h60l107 -176l-8 -11zM479 587l99 163h60l-151 -176zM50 345v65l214 51q-10 -4 -32 -11t-37.5 -13.5t-28.5 -14.5
q-38 -24 -68 -57zM290 750h47l56 -160l-10 -11zM631 401l169 -80v-21q-60 13 -110.5 38.5t-56.5 55.5q-2 4 -2 7zM464 609l49 141h47l-85 -157zM351 750h41l18 -145l-13 -11zM441 622l17 128h41l-40 -133l-6 9q-8 -2 -12 -4zM416 610l-11 140h39l-11 -131q-3 -1 -9 -4.5
t-8 -4.5zM71 331q-20 -20 -21 -28v18z" />
    <glyph glyph-name="bullseye" unicode="&#xf8ff;" horiz-adv-x="850" 
d="M50 678v72h12l297 -206q-5 -6 -6 -10zM502 552l286 198h12v-72l-291 -138zM50 589v66l300 -125l-6 -10zM513 535l287 120v-66l-279 -66q-3 3 -7 11zM100 750h88l180 -191l-6 -10zM330 503l-280 7v59l290 -54q-5 -8 -10 -12zM491 568l171 182h88l-252 -193zM524 517
l276 52v-59l-264 -7zM50 490l267 6q-9 -14 -21 -20l-246 -46v60zM542 496l258 -6v-60l-232 44zM584 461l216 -51v-65l-176 73q-12 20 -40 43zM212 750h60l107 -176l-8 -11zM479 587l99 163h60l-151 -176zM50 345v65l214 51q-10 -4 -32 -11t-37.5 -13.5t-28.5 -14.5
q-38 -24 -68 -57zM290 750h47l56 -160l-10 -11zM631 401l169 -80v-21q-60 13 -110.5 38.5t-56.5 55.5q-2 4 -2 7zM464 609l49 141h47l-85 -157zM351 750h41l18 -145l-13 -11zM441 622l17 128h41l-40 -133l-6 9q-8 -2 -12 -4zM416 610l-11 140h39l-11 -131q-3 -1 -9 -4.5
t-8 -4.5zM71 331q-20 -20 -21 -28v18z" />
    <glyph glyph-name="blackcircle" unicode="&#x25cf;" horiz-adv-x="887" 
d="M52 375q0 162 114.5 276.5t276.5 114.5t276.5 -114.5t114.5 -276.5t-114.5 -276.5t-276.5 -114.5t-276.5 114.5t-114.5 276.5z" />
    <glyph glyph-name="uni25E2" unicode="&#x25e2;" horiz-adv-x="864" 
d="M807 0l-760 204l556 556z" />
    <glyph glyph-name="uni25E3" unicode="&#x25e3;" horiz-adv-x="864" 
d="M817 204l-760 -204l204 760z" />
    <glyph glyph-name="uni25E4" unicode="&#x25e4;" horiz-adv-x="864" 
d="M57 750l760 -204l-556 -556z" />
    <glyph glyph-name="uni25E5" unicode="&#x25e5;" horiz-adv-x="864" 
d="M47 546l760 204l-204 -760z" />
    <glyph glyph-name="uni2605" unicode="&#x2605;" horiz-adv-x="864" 
d="M432 173l-250 -183l95 295l-250 181h308l97 294l97 -294h308l-250 -181l95 -295z" />
    <glyph glyph-name="uni263C" unicode="&#x263c;" horiz-adv-x="944" 
d="M872 390l-169 -30l155 -73l-171 15l132 -112l-162 59l98 -141l-141 98l58 -162l-111 130l15 -170l-74 155l-30 -169l-30 169l-74 -155l15 170l-111 -130l58 162l-141 -98l98 141l-162 -59l132 112l-171 -15l155 73l-169 30l169 30l-155 73l171 -15l-132 112l162 -59
l-98 141l141 -98l-58 162l111 -130l-15 170l74 -155l30 169l30 -169l74 155l-15 -170l111 130l-58 -162l141 98l-98 -141l162 59l-132 -112l171 15l-155 -73z" />
    <glyph glyph-name="uni263E" unicode="&#x263e;" horiz-adv-x="864" 
d="M571 700q-134 0 -223 -91.5t-89 -233.5t89 -233.5t223 -91.5q50 0 92 14q-102 -74 -231 -74q-160 0 -272.5 112.5t-112.5 272.5t112.5 272.5t272.5 112.5q126 0 231 -74q-47 14 -92 14z" />
    <glyph glyph-name="uni2660" unicode="&#x2660;" horiz-adv-x="864" 
d="M530 0h-196q36 71 53.5 140t25.5 167l-3 1q-27 -67 -76 -111t-116 -44q-71 0 -120.5 48.5t-49.5 119.5q0 68 41.5 117.5t116.5 99.5q69 45 131.5 110.5t93.5 111.5h2q31 -46 93.5 -111.5t131.5 -110.5q75 -50 116.5 -99.5t41.5 -117.5q0 -71 -49.5 -119.5t-120.5 -48.5
q-67 0 -116 44t-76 111l-3 -1q8 -98 25.5 -167t53.5 -140z" />
    <glyph glyph-name="uni2663" unicode="&#x2663;" horiz-adv-x="864" 
d="M530 0h-196q36 71 53.5 140t25.5 167l-3 1q-27 -67 -76 -111t-116 -44q-71 0 -120.5 48.5t-49.5 119.5q0 76 47 124.5t121 48.5q41 0 81 -22l2 2q-37 56 -37 113q0 72 48.5 122.5t121.5 50.5t121.5 -50.5t48.5 -122.5q0 -57 -37 -113l2 -2q40 22 81 22q74 0 121 -48.5
t47 -124.5q0 -71 -49.5 -119.5t-120.5 -48.5q-67 0 -116 44t-76 111l-3 -1q8 -98 25.5 -167t53.5 -140z" />
    <glyph glyph-name="uni2665" unicode="&#x2665;" horiz-adv-x="864" 
d="M433 -10h-2q-64 101 -224 283q-43 49 -72.5 87.5t-57.5 96.5t-28 105q0 87 50 143t134 56q82 0 127.5 -40.5t69.5 -110.5h4q24 70 69.5 110.5t127.5 40.5q84 0 134 -56t50 -143q0 -47 -28 -105t-57.5 -96.5t-72.5 -87.5q-160 -182 -224 -283z" />
    <glyph glyph-name="uni2666" unicode="&#x2666;" horiz-adv-x="864" 
d="M785 376v-2q-103 -79 -195.5 -180.5t-156.5 -203.5h-2q-64 102 -156.5 203.5t-195.5 180.5v2q103 79 195.5 180.5t156.5 203.5h2q64 -102 156.5 -203.5t195.5 -180.5z" />
    <glyph glyph-name="musicflatsign" unicode="&#x266d;" horiz-adv-x="500" 
d="M477 342q0 -84 -63 -169.5t-162 -151t-213 -102.5v903h129v-324q48 45 127 45q182 0 182 -201zM168 331v-209q66 36 116 93t50 123q0 72 -70 72q-31 0 -58 -23.5t-38 -55.5z" />
    <glyph glyph-name="musicnaturalsign" unicode="&#x266e;" horiz-adv-x="402" 
d="M363 722v-779h-129v258l-195 -158v779h129v-258zM168 404v-97l66 54v97z" />
    <glyph glyph-name="musicsharpsign" unicode="&#x266f;" horiz-adv-x="526" 
d="M26 239v160l75 61v320h129v-216l66 54v262h129v-158l75 61v-160l-75 -61v-82l75 61v-160l-75 -61v-320h-129v216l-66 -54v-262h-129v158l-75 -61v160l75 61v82zM230 404v-82l66 54v82z" />
    <glyph glyph-name="uni267B" unicode="&#x267b;" horiz-adv-x="864" 
d="M796 257l1 -2l-92 -160q-15 -22 -21 -29t-23 -16t-41 -9h-55v-47l-108 131l108 129v-47h140q25 0 47.5 12.5t33.5 24.5zM146 119h-2l-92 161q-10 20 -14 31t-2.5 29.5t13.5 38.5l26 47l-40 23l167 30l57 -160l-40 23q-67 -115 -69 -119q-13 -22 -14 -48t4 -41zM355 749v1
h186q23 -1 34.5 -2.5t26.5 -12t27 -30.5l27 -47l41 23l-59 -159l-166 30l40 23l-69 119q-13 22 -35 36t-38 16zM160 575l64 115q11 18 33 29q43 23 92.5 10t65.5 -43l-111 -193zM396 41h-130q-22 0 -42 13q-41 23 -55 75.5t4 77.5h223v-166zM741 507l66 -112q10 -16 10 -42
q1 -46 -36.5 -83.5t-71.5 -37.5l-111 193z" />
    <glyph glyph-name="uni267C" unicode="&#x267c;" horiz-adv-x="864" 
d="M271 621l-51 -88l112 -65l87 150q-12 23 -50.5 33t-72.5 -7q-19 -10 -25 -23zM369 668v-1q46 -4 68 -42l54 -93l-31 -19l130 -23l45 124l-32 -18l-21 37q-13 23 -28 29t-41 6h-144zM299 116h102v129h-174q-14 -20 -3 -60.5t43 -58.5q16 -10 32 -10zM209 177h1
q-19 42 3 81l54 93l31 -18l-45 124l-130 -23l32 -18l-21 -37q-10 -16 -11 -30.5t2.5 -22.5t11.5 -24zM724 392l-51 88l-111 -65l86 -150q27 0 56 29t28 65q0 19 -8 33zM717 283l-1 1q-3 -4 -8.5 -10.5t-24.5 -17.5t-39 -11h-107v37l-85 -101l85 -101v36h42q18 0 31.5 6.5
t19.5 14t14 21.5zM47 375q0 160 112.5 272.5t272.5 112.5t272.5 -112.5t112.5 -272.5t-112.5 -272.5t-272.5 -112.5t-272.5 112.5t-112.5 272.5z" />
    <glyph glyph-name="uni267D" unicode="&#x267d;" horiz-adv-x="864" 
d="M220 533l51 88q6 13 25 23q34 17 72.5 7t50.5 -33l-87 -150zM369 667v1h144q17 0 26.5 -1.5t21.5 -9.5t21 -24l21 -37l32 18l-45 -124l-130 23l31 19l-54 93q-10 17 -27 27.5t-29 12.5zM401 116h-102q-16 0 -32 10q-32 18 -43 58.5t3 60.5h174v-129zM210 177h-1l-72 125
q-8 16 -11.5 24t-2.5 22.5t11 30.5l21 37l-32 18l130 23l45 -124l-31 18l-54 -93q-10 -17 -10.5 -37.5t3.5 -32.5zM673 480l51 -88q8 -14 8 -33q1 -36 -28 -65t-56 -29l-86 150zM716 284l1 -1l-73 -125q-8 -14 -14 -21.5t-19.5 -14t-31.5 -6.5h-42v-36l-85 101l85 101v-37
h107q20 0 38 9.5t26 19.5zM797 375q0 151 -107 258t-258 107t-258 -107t-107 -258t107 -258t258 -107t258 107t107 258zM47 375q0 160 112.5 272.5t272.5 112.5t272.5 -112.5t112.5 -272.5t-112.5 -272.5t-272.5 -112.5t-272.5 112.5t-112.5 272.5z" />
    <glyph glyph-name="anglebracketleft" unicode="&#x3008;" horiz-adv-x="347" 
d="M166 -229l-133 506l133 506h160l-132 -506l132 -506h-160z" />
    <glyph glyph-name="anglebracketright" unicode="&#x3009;" horiz-adv-x="347" 
d="M181 783l133 -506l-133 -506h-160l132 506l-132 506h160z" />
    <glyph glyph-name="Adoublegrave" unicode="&#xe000;" horiz-adv-x="640" 
d="M345 786l-80 124h194l46 -124h-160zM135 786l-80 124h194l46 -124h-160zM399 136h-158l-28 -136h-206l184 754h258l184 -754h-206zM369 285l-49 286l-49 -286h98z" />
    <glyph glyph-name="Adotabove" unicode="&#xe001;" horiz-adv-x="640" 
d="M210 848q0 42 28.5 57t81.5 15t81.5 -15t28.5 -57t-28.5 -57t-81.5 -15t-81.5 15t-28.5 57zM399 136h-158l-28 -136h-206l184 754h258l184 -754h-206zM369 285l-49 286l-49 -286h98z" />
    <glyph glyph-name="Anocross" unicode="&#xe002;" horiz-adv-x="642" 
d="M320 571l-107 -571h-206l184 754h258l184 -754h-206z" />
    <glyph glyph-name="Edoublegrave" unicode="&#xe003;" horiz-adv-x="571" 
d="M513 472v-173h-280v-126h308v-173h-504v750h504v-173h-308v-105h280zM323 786l-80 124h194l46 -124h-160zM113 786l-80 124h194l46 -124h-160z" />
    <glyph glyph-name="Eacutedotbelow" unicode="&#xe004;" horiz-adv-x="571" 
d="M513 472v-173h-280v-126h308v-173h-504v750h504v-173h-308v-105h280zM395 -148q0 -46 -32 -78t-78 -32t-78 32t-32 78t32 78t78 32t78 -32t32 -78zM378 786h-160l46 124h194z" />
    <glyph glyph-name="Egravedotbelow" unicode="&#xe005;" horiz-adv-x="571" 
d="M513 472v-173h-280v-126h308v-173h-504v750h504v-173h-308v-105h280zM395 -148q0 -46 -32 -78t-78 -32t-78 32t-32 78t32 78t78 32t78 -32t32 -78zM218 786l-80 124h194l46 -124h-160z" />
    <glyph glyph-name="Gtilde" unicode="&#xe006;" horiz-adv-x="645" 
d="M574 910v-6q0 -71 -33 -99t-94 -28q-43 0 -94.5 22t-69.5 22q-44 0 -44 -35h-109v6q0 71 33 99t94 28q43 0 94.5 -22t69.5 -22q44 0 44 35h109zM359 -16q-169 0 -249.5 96.5t-80.5 294.5t80.5 294.5t251.5 96.5q146 0 236 -40l-2 -178q-108 39 -205 39
q-89 0 -126.5 -49.5t-37.5 -163.5q0 -125 40 -173t134 -48l13 1v134h-94v161h290v-410q-89 -55 -250 -55z" />
    <glyph glyph-name="Gcommaturnedabove" unicode="&#xe007;" horiz-adv-x="645" 
d="M330 910h160l-46 -124h-194zM359 -16q-169 0 -249.5 96.5t-80.5 294.5t80.5 294.5t251.5 96.5q146 0 236 -40l-2 -178q-108 39 -205 39q-89 0 -126.5 -49.5t-37.5 -163.5q0 -125 40 -173t134 -48l13 1v134h-94v161h290v-410q-89 -55 -250 -55z" />
    <glyph glyph-name="Hcaron" unicode="&#xe008;" horiz-adv-x="646" 
d="M609 0h-196v299h-180v-299h-196v750h196v-278h180v278h196v-750zM388 910h145l-126 -124h-168l-126 124h145l65 -40z" />
    <glyph glyph-name="Hmacronbelow" unicode="&#xe009;" horiz-adv-x="646" 
d="M609 0h-196v299h-180v-299h-196v750h196v-278h180v278h196v-750zM167 -213v130h312v-130h-312z" />
    <glyph glyph-name="Idoublegrave" unicode="&#xe00b;" horiz-adv-x="282" 
d="M239 0h-196v750h196v-750zM166 786l-80 124h194l46 -124h-160zM-44 786l-80 124h194l46 -124h-160z" />
    <glyph glyph-name="Jcaron" unicode="&#xe00c;" horiz-adv-x="387" 
d="M3 4l3 173q46 -16 88 -16q64 0 64 62v527h196v-575q0 -97 -57 -144t-178 -47q-73 0 -116 20zM321 910h145l-126 -124h-168l-126 124h145l65 -40z" />
    <glyph glyph-name="Kcedilla" unicode="&#xe00d;" horiz-adv-x="663" 
d="M424 0l-152 276l-40 -59v-217h-195v750h195v-301l184 301h234l-242 -329l260 -421h-244zM272 -84l7 50q187 -14 187 -111q0 -53 -39.5 -79t-106.5 -26q-66 0 -104 16v98q36 -11 79 -11q52 0 52 25q0 28 -75 38z" />
    <glyph glyph-name="Lcedilla" unicode="&#xe00e;" horiz-adv-x="525" 
d="M233 750v-577h282v-173h-478v750h196zM228 -84l7 50q187 -14 187 -111q0 -53 -39.5 -79t-106.5 -26q-66 0 -104 16v98q36 -11 79 -11q52 0 52 25q0 28 -75 38z" />
    <glyph glyph-name="Mmacron" unicode="&#xe00f;" horiz-adv-x="828" 
d="M292 750l122 -433l122 433h255v-750h-195l11 442l-104 -354h-178l-104 354l11 -442h-195v750h255zM570 910v-124h-312v124h312z" />
    <glyph glyph-name="Mcedilla" unicode="&#xe010;" horiz-adv-x="828" 
d="M292 750l122 -433l122 433h255v-750h-195l11 442l-104 -354h-178l-104 354l11 -442h-195v750h255zM366 -84l7 50q187 -14 187 -111q0 -53 -39.5 -79t-106.5 -26q-66 0 -104 16v98q36 -11 79 -11q52 0 52 25q0 28 -75 38z" />
    <glyph glyph-name="Ngrave" unicode="&#xe011;" horiz-adv-x="660" 
d="M37 750h189l210 -390l-9 390h196v-750h-189l-210 390l9 -390h-196v750zM250 786l-80 124h194l46 -124h-160z" />
    <glyph glyph-name="Ndieresis" unicode="&#xe012;" horiz-adv-x="660" 
d="M37 750h189l210 -390l-9 390h196v-750h-189l-210 390l9 -390h-196v750zM95 848q0 42 28.5 57t81.5 15t81.5 -15t28.5 -57t-28.5 -57t-81.5 -15t-81.5 15t-28.5 57zM345 848q0 42 28.5 57t81.5 15t81.5 -15t28.5 -57t-28.5 -57t-81.5 -15t-81.5 15t-28.5 57z" />
    <glyph glyph-name="Nmacron" unicode="&#xe013;" horiz-adv-x="660" 
d="M37 750h189l210 -390l-9 390h196v-750h-189l-210 390l9 -390h-196v750zM486 910v-124h-312v124h312z" />
    <glyph glyph-name="Ncedilla" unicode="&#xe014;" horiz-adv-x="660" 
d="M37 750h189l210 -390l-9 390h196v-750h-189l-210 390l9 -390h-196v750zM282 -84l7 50q187 -14 187 -111q0 -53 -39.5 -79t-106.5 -26q-66 0 -104 16v98q36 -11 79 -11q52 0 52 25q0 28 -75 38z" />
    <glyph glyph-name="Ndescender" unicode="&#xe015;" horiz-adv-x="660" 
d="M37 750h189l210 -390l-9 390h196v-647h103v-228h-161v125h-131l-210 390l9 -390h-196v750z" />
    <glyph glyph-name="Odoublegrave" unicode="&#xe016;" horiz-adv-x="666" 
d="M29 375q0 75 7.5 132t28 107.5t54.5 82.5t87.5 50.5t126.5 18.5t126.5 -18.5t87.5 -50.5t54.5 -82.5t28 -107.5t7.5 -132t-7.5 -132t-28 -107.5t-54.5 -82.5t-87.5 -50.5t-126.5 -18.5t-126.5 18.5t-87.5 50.5t-54.5 82.5t-28 107.5t-7.5 132zM438 375q0 125 -22.5 171
t-82.5 46t-82.5 -46t-22.5 -171t22.5 -171t82.5 -46t82.5 46t22.5 171zM148 786l-80 124h194l46 -124h-160zM358 786l-80 124h194l46 -124h-160z" />
    <glyph glyph-name="Ocommaturnedabove" unicode="&#xe017;" horiz-adv-x="666" 
d="M29 375q0 75 7.5 132t28 107.5t54.5 82.5t87.5 50.5t126.5 18.5t126.5 -18.5t87.5 -50.5t54.5 -82.5t28 -107.5t7.5 -132t-7.5 -132t-28 -107.5t-54.5 -82.5t-87.5 -50.5t-126.5 -18.5t-126.5 18.5t-87.5 50.5t-54.5 82.5t-28 107.5t-7.5 132zM438 375q0 125 -22.5 171
t-82.5 46t-82.5 -46t-22.5 -171t22.5 -171t82.5 -46t82.5 46t22.5 171zM314 910h160l-46 -124h-194z" />
    <glyph glyph-name="Otildemacron" unicode="&#xe018;" horiz-adv-x="666" 
d="M29 375q0 75 7.5 132t28 107.5t54.5 82.5t87.5 50.5t126.5 18.5t126.5 -18.5t87.5 -50.5t54.5 -82.5t28 -107.5t7.5 -132t-7.5 -132t-28 -107.5t-54.5 -82.5t-87.5 -50.5t-126.5 -18.5t-126.5 18.5t-87.5 50.5t-54.5 82.5t-28 107.5t-7.5 132zM438 375q0 125 -22.5 171
t-82.5 46t-82.5 -46t-22.5 -171t22.5 -171t82.5 -46t82.5 46t22.5 171zM555 910v-6q0 -71 -33 -99t-94 -28q-43 0 -94.5 22t-69.5 22q-44 0 -44 -35h-109v6q0 71 33 99t94 28q43 0 94.5 -22t69.5 -22q44 0 44 35h109zM489 1065v-124h-312v124h312z" />
    <glyph glyph-name="Odotabove" unicode="&#xe019;" horiz-adv-x="666" 
d="M29 375q0 75 7.5 132t28 107.5t54.5 82.5t87.5 50.5t126.5 18.5t126.5 -18.5t87.5 -50.5t54.5 -82.5t28 -107.5t7.5 -132t-7.5 -132t-28 -107.5t-54.5 -82.5t-87.5 -50.5t-126.5 -18.5t-126.5 18.5t-87.5 50.5t-54.5 82.5t-28 107.5t-7.5 132zM438 375q0 125 -22.5 171
t-82.5 46t-82.5 -46t-22.5 -171t22.5 -171t82.5 -46t82.5 46t22.5 171zM223 848q0 42 28.5 57t81.5 15t81.5 -15t28.5 -57t-28.5 -57t-81.5 -15t-81.5 15t-28.5 57z" />
    <glyph glyph-name="Odotabovemacron" unicode="&#xe01a;" horiz-adv-x="666" 
d="M29 375q0 75 7.5 132t28 107.5t54.5 82.5t87.5 50.5t126.5 18.5t126.5 -18.5t87.5 -50.5t54.5 -82.5t28 -107.5t7.5 -132t-7.5 -132t-28 -107.5t-54.5 -82.5t-87.5 -50.5t-126.5 -18.5t-126.5 18.5t-87.5 50.5t-54.5 82.5t-28 107.5t-7.5 132zM438 375q0 125 -22.5 171
t-82.5 46t-82.5 -46t-22.5 -171t22.5 -171t82.5 -46t82.5 46t22.5 171zM489 1065v-124h-312v124h312zM223 848q0 42 28.5 57t81.5 15t81.5 -15t28.5 -57t-28.5 -57t-81.5 -15t-81.5 15t-28.5 57z" />
    <glyph glyph-name="Ocedilla" unicode="&#xe01b;" horiz-adv-x="666" 
d="M29 375q0 75 7.5 132t28 107.5t54.5 82.5t87.5 50.5t126.5 18.5t126.5 -18.5t87.5 -50.5t54.5 -82.5t28 -107.5t7.5 -132t-7.5 -132t-28 -107.5t-54.5 -82.5t-87.5 -50.5t-126.5 -18.5t-126.5 18.5t-87.5 50.5t-54.5 82.5t-28 107.5t-7.5 132zM438 375q0 125 -22.5 171
t-82.5 46t-82.5 -46t-22.5 -171t22.5 -171t82.5 -46t82.5 46t22.5 171zM285 -84l7 50q187 -14 187 -111q0 -53 -39.5 -79t-106.5 -26q-66 0 -104 16v98q36 -11 79 -11q52 0 52 25q0 28 -75 38z" />
    <glyph glyph-name="Ounderlineaccent" unicode="&#xe01c;" horiz-adv-x="666" 
d="M29 375q0 75 7.5 132t28 107.5t54.5 82.5t87.5 50.5t126.5 18.5t126.5 -18.5t87.5 -50.5t54.5 -82.5t28 -107.5t7.5 -132t-7.5 -132t-28 -107.5t-54.5 -82.5t-87.5 -50.5t-126.5 -18.5t-126.5 18.5t-87.5 50.5t-54.5 82.5t-28 107.5t-7.5 132zM438 375q0 125 -22.5 171
t-82.5 46t-82.5 -46t-22.5 -171t22.5 -171t82.5 -46t82.5 46t22.5 171zM283 -46h100v-204h-100v204z" />
    <glyph glyph-name="barredO" unicode="&#xe01d;" horiz-adv-x="667" 
d="M637 375q0 -75 -7.5 -132t-28 -107.5t-54.5 -82.5t-87.5 -50.5t-126.5 -18.5t-126.5 18.5t-87.5 50.5t-54.5 82.5t-28 107.5t-7.5 132t7.5 132t28 107.5t54.5 82.5t87.5 50.5t126.5 18.5t126.5 -18.5t87.5 -50.5t54.5 -82.5t28 -107.5t7.5 -132zM333 158q52 0 75.5 34
t27.5 122h-207q5 -88 28.5 -122t75.5 -34zM333 592q-49 0 -72.5 -30t-29.5 -105h204q-7 75 -30 105t-72 30z" />
    <glyph glyph-name="Pmacron" unicode="&#xe01e;" horiz-adv-x="597" 
d="M233 250v-250h-196v750h267q146 0 213.5 -71t67.5 -179q0 -109 -67.5 -179.5t-213.5 -70.5h-71zM446 910v-124h-312v124h312zM233 578v-158h72q39 0 55.5 24.5t16.5 54.5q0 28 -16.5 53.5t-55.5 25.5h-72z" />
    <glyph glyph-name="Rdoublegrave" unicode="&#xe01f;" horiz-adv-x="627" 
d="M311 786l-80 124h194l46 -124h-160zM101 786l-80 124h194l46 -124h-160zM233 273v-273h-196v750h277q150 0 213 -61.5t63 -178.5q0 -146 -98 -200l135 -310h-227l-98 273h-69zM233 587v-157h84q64 0 64 79q0 78 -64 78h-84z" />
    <glyph glyph-name="Rcedilla" unicode="&#xe020;" horiz-adv-x="627" 
d="M267 -84l7 50q187 -14 187 -111q0 -53 -39.5 -79t-106.5 -26q-66 0 -104 16v98q36 -11 79 -11q52 0 52 25q0 28 -75 38zM233 273v-273h-196v750h277q150 0 213 -61.5t63 -178.5q0 -146 -98 -200l135 -310h-227l-98 273h-69zM233 587v-157h84q64 0 64 79q0 78 -64 78h-84z
" />
    <glyph glyph-name="Tcedilla" unicode="&#xe021;" horiz-adv-x="568" 
d="M558 577h-176v-577h-196v577h-176v173h548v-173zM236 -84l7 50q187 -14 187 -111q0 -53 -39.5 -79t-106.5 -26q-66 0 -104 16v98q36 -11 79 -11q52 0 52 25q0 28 -75 38z" />
    <glyph glyph-name="Udoublegrave" unicode="&#xe022;" horiz-adv-x="648" 
d="M324 157q44 0 69.5 21.5t25.5 79.5v492h196v-507q0 -60 -17.5 -106.5t-45.5 -74.5t-67.5 -46.5t-78 -25t-82.5 -6.5q-55 0 -103 12t-92 39t-70 80.5t-26 127.5v507h196v-492q0 -58 25.5 -79.5t69.5 -21.5zM349 786l-80 124h194l46 -124h-160zM139 786l-80 124h194
l46 -124h-160z" />
    <glyph glyph-name="Umacronbelow" unicode="&#xe023;" horiz-adv-x="648" 
d="M324 157q44 0 69.5 21.5t25.5 79.5v492h196v-507q0 -60 -17.5 -106.5t-45.5 -74.5t-67.5 -46.5t-78 -25t-82.5 -6.5q-55 0 -103 12t-92 39t-70 80.5t-26 127.5v507h196v-492q0 -58 25.5 -79.5t69.5 -21.5zM168 -213v130h312v-130h-312z" />
    <glyph glyph-name="Ymacron" unicode="&#xe024;" horiz-adv-x="670" 
d="M219 750l114 -282l114 282h219l-237 -458l2 -292h-196l2 292l-237 458h219zM490 910v-124h-312v124h312z" />
    <glyph glyph-name="adoublegrave" unicode="&#xe025;" horiz-adv-x="511" 
d="M91 546l-110 204h190l50 -204h-130zM291 546l-110 204h190l50 -204h-130zM18 145q0 46 13.5 77.5t41.5 49t60 26t79 12.5l89 8v20q0 19 -14 27.5t-54 8.5q-95 0 -177 -41l-2 148q33 14 92 24.5t116 10.5q129 0 175 -46.5t46 -141.5v-328h-131l-19 32q-57 -48 -147 -48
q-87 0 -127.5 44t-40.5 117zM302 223l-59 -7q-29 -3 -42.5 -16t-13.5 -43q0 -50 49 -50q44 0 66 22v94z" />
    <glyph glyph-name="adotabove" unicode="&#xe026;" horiz-adv-x="511" 
d="M146 648q0 46 32 78t78 32t78 -32t32 -78t-32 -78t-78 -32t-78 32t-32 78zM18 145q0 46 13.5 77.5t41.5 49t60 26t79 12.5l89 8v20q0 19 -14 27.5t-54 8.5q-95 0 -177 -41l-2 148q33 14 92 24.5t116 10.5q129 0 175 -46.5t46 -141.5v-328h-131l-19 32q-57 -48 -147 -48
q-87 0 -127.5 44t-40.5 117zM302 223l-59 -7q-29 -3 -42.5 -16t-13.5 -43q0 -50 49 -50q44 0 66 22v94z" />
    <glyph glyph-name="edoublegrave" unicode="&#xe027;" horiz-adv-x="517" 
d="M97 546l-110 204h190l50 -204h-130zM297 546l-110 204h190l50 -204h-130zM493 194h-301q-2 -37 23 -52.5t87 -15.5q88 0 176 30l3 -137q-85 -35 -206 -35q-137 0 -197.5 64t-60.5 202q0 136 61.5 201t190.5 65q67 0 113 -18.5t70.5 -52.5t34.5 -74t10 -91q0 -47 -4 -86z
M269 384q-35 0 -56.5 -23.5t-20.5 -66.5h137q5 43 -10.5 66.5t-49.5 23.5z" />
    <glyph glyph-name="eacutedotbelow" unicode="&#xe028;" horiz-adv-x="517" 
d="M369 -148q0 -46 -32 -78t-78 -32t-78 32t-32 78t32 78t78 32t78 -32t32 -78zM327 546h-130l50 204h190zM493 194h-301q-2 -37 23 -52.5t87 -15.5q88 0 176 30l3 -137q-85 -35 -206 -35q-137 0 -197.5 64t-60.5 202q0 136 61.5 201t190.5 65q67 0 113 -18.5t70.5 -52.5
t34.5 -74t10 -91q0 -47 -4 -86zM269 384q-35 0 -56.5 -23.5t-20.5 -66.5h137q5 43 -10.5 66.5t-49.5 23.5z" />
    <glyph glyph-name="egravedotbelow" unicode="&#xe029;" horiz-adv-x="517" 
d="M369 -148q0 -46 -32 -78t-78 -32t-78 32t-32 78t32 78t78 32t78 -32t32 -78zM197 546l-110 204h190l50 -204h-130zM493 194h-301q-2 -37 23 -52.5t87 -15.5q88 0 176 30l3 -137q-85 -35 -206 -35q-137 0 -197.5 64t-60.5 202q0 136 61.5 201t190.5 65q67 0 113 -18.5
t70.5 -52.5t34.5 -74t10 -91q0 -47 -4 -86zM269 384q-35 0 -56.5 -23.5t-20.5 -66.5h137q5 43 -10.5 66.5t-49.5 23.5z" />
    <glyph glyph-name="gtilde" unicode="&#xe02a;" horiz-adv-x="549" 
d="M16 323q0 100 56 146.5t179 46.5q80 0 128 -16h164v-125l-59 -16q3 -18 3 -36q0 -101 -56.5 -147t-179.5 -46q-35 0 -51 1q-5 -7 -5 -15q0 -15 20 -16l201 -22q75 -8 105 -47.5t30 -105.5q0 -65 -45 -109t-115 -63t-160 -19q-246 0 -246 136q0 49 29.5 79.5t73.5 40.5
q-24 9 -37.5 32t-13.5 50t15.5 50.5t40.5 38.5q-77 45 -77 162zM342 -58l-150 18q-29 -13 -29 -41q0 -48 87 -48q50 0 82.5 13t32.5 34t-23 24zM194 320q0 -66 57 -66t57 66t-57 66t-57 -66zM29 563v20q0 89 36.5 132t101.5 43q29 0 54 -11t38.5 -25t29.5 -25t31 -11
q44 0 44 47h109v-20q0 -89 -36.5 -132t-101.5 -43q-29 0 -54 11t-38.5 25t-29.5 25t-31 11q-44 0 -44 -47h-109z" />
    <glyph glyph-name="gcommaturnedabove" unicode="&#xe02b;" horiz-adv-x="549" 
d="M16 323q0 100 56 146.5t179 46.5q80 0 128 -16h164v-125l-59 -16q3 -18 3 -36q0 -101 -56.5 -147t-179.5 -46q-35 0 -51 1q-5 -7 -5 -15q0 -15 20 -16l201 -22q75 -8 105 -47.5t30 -105.5q0 -65 -45 -109t-115 -63t-160 -19q-246 0 -246 136q0 49 29.5 79.5t73.5 40.5
q-24 9 -37.5 32t-13.5 50t15.5 50.5t40.5 38.5q-77 45 -77 162zM215 750h146l-20 -204h-186zM342 -58l-150 18q-29 -13 -29 -41q0 -48 87 -48q50 0 82.5 13t32.5 34t-23 24zM194 320q0 -66 57 -66t57 66t-57 66t-57 -66z" />
    <glyph glyph-name="hcaron" unicode="&#xe02c;" horiz-adv-x="554" 
d="M32 750h196v-260q54 26 119 26q102 0 140.5 -46t38.5 -129v-341h-196v323q0 40 -38 40q-35 0 -64 -18v-345h-196v750zM195 910h145l-126 -124h-168l-126 124h145l65 -40z" />
    <glyph glyph-name="hmacronbelow" unicode="&#xe02d;" horiz-adv-x="554" 
d="M32 750h196v-260q54 26 119 26q102 0 140.5 -46t38.5 -129v-341h-196v323q0 40 -38 40q-35 0 -64 -18v-345h-196v750zM121 -213v130h312v-130h-312z" />
    <glyph glyph-name="ibreve" unicode="&#xe02e;" horiz-adv-x="284" 
d="M269 149v-151q-35 -8 -73 -8q-74 0 -118 35t-44 108v367h196v-321q0 -30 39 -30zM132 546q-109 0 -159 48t-51 156h124q0 -44 19 -62t67 -18t67 18t19 62h124q-1 -108 -51 -156t-159 -48z" />
    <glyph glyph-name="idoublegrave" unicode="&#xe02f;" horiz-adv-x="284" 
d="M269 149v-151q-35 -8 -73 -8q-74 0 -118 35t-44 108v367h196v-321q0 -30 39 -30zM-33 546l-110 204h190l50 -204h-130zM167 546l-110 204h190l50 -204h-130z" />
    <glyph glyph-name="idotaccent" unicode="&#xe030;" horiz-adv-x="284" 
d="M269 149v-151q-35 -8 -73 -8q-74 0 -118 35t-44 108v367h196v-321q0 -30 39 -30zM22 648q0 46 32 78t78 32t78 -32t32 -78t-32 -78t-78 -32t-78 32t-32 78z" />
    <glyph glyph-name="kcedilla" unicode="&#xe031;" horiz-adv-x="569" 
d="M32 750h196l-5 -409l105 159h231l-178 -212l193 -288h-237l-90 177l-23 -33l4 -144h-196v750zM235 -84l7 50q187 -14 187 -111q0 -53 -39.5 -79t-106.5 -26q-66 0 -104 16v98q36 -11 79 -11q52 0 52 25q0 28 -75 38z" />
    <glyph glyph-name="lcedilla" unicode="&#xe032;" horiz-adv-x="284" 
d="M269 149v-151q-35 -8 -73 -8q-74 0 -118 35t-44 108v617h196v-571q0 -30 39 -30zM97 -84l7 50q187 -14 187 -111q0 -53 -39.5 -79t-106.5 -26q-66 0 -104 16v98q36 -11 79 -11q52 0 52 25q0 28 -75 38z" />
    <glyph glyph-name="mmacron" unicode="&#xe033;" horiz-adv-x="826" 
d="M798 0h-196v334q0 29 -33 29q-31 0 -56 -18v-345h-196v334q0 29 -33 29q-31 0 -56 -18v-345h-196v500h130l18 -32q65 48 159 48q89 0 127 -41q62 41 157 41q99 0 137 -47t38 -128v-341zM571 713v-130h-312v130h312z" />
    <glyph glyph-name="mcedilla" unicode="&#xe034;" horiz-adv-x="826" 
d="M798 0h-196v334q0 29 -33 29q-31 0 -56 -18v-345h-196v334q0 29 -33 29q-31 0 -56 -18v-345h-196v500h130l18 -32q65 48 159 48q89 0 127 -41q62 41 157 41q99 0 137 -47t38 -128v-341zM367 -84l7 50q187 -14 187 -111q0 -53 -39.5 -79t-106.5 -26q-66 0 -104 16v98
q36 -11 79 -11q52 0 52 25q0 28 -75 38z" />
    <glyph glyph-name="ngrave" unicode="&#xe035;" horiz-adv-x="554" 
d="M32 500h130l18 -32q77 48 167 48q102 0 140.5 -46t38.5 -129v-341h-196v323q0 40 -38 40q-35 0 -64 -18v-345h-196v500zM214 546l-110 204h190l50 -204h-130z" />
    <glyph glyph-name="ndieresis" unicode="&#xe036;" horiz-adv-x="554" 
d="M32 500h130l18 -32q77 48 167 48q102 0 140.5 -46t38.5 -129v-341h-196v323q0 40 -38 40q-35 0 -64 -18v-345h-196v500zM44 648q0 46 32 78t78 32t78 -32t32 -78t-32 -78t-78 -32t-78 32t-32 78zM294 648q0 46 32 78t78 32t78 -32t32 -78t-32 -78t-78 -32t-78 32t-32 78z
" />
    <glyph glyph-name="nmacron" unicode="&#xe037;" horiz-adv-x="554" 
d="M32 500h130l18 -32q77 48 167 48q102 0 140.5 -46t38.5 -129v-341h-196v323q0 40 -38 40q-35 0 -64 -18v-345h-196v500zM435 713v-130h-312v130h312z" />
    <glyph glyph-name="ncedilla" unicode="&#xe038;" horiz-adv-x="554" 
d="M32 500h130l18 -32q77 48 167 48q102 0 140.5 -46t38.5 -129v-341h-196v323q0 40 -38 40q-35 0 -64 -18v-345h-196v500zM231 -84l7 50q187 -14 187 -111q0 -53 -39.5 -79t-106.5 -26q-66 0 -104 16v98q36 -11 79 -11q52 0 52 25q0 28 -75 38z" />
    <glyph glyph-name="ndescender" unicode="&#xe039;" horiz-adv-x="610" 
d="M32 500h130l18 -32q77 48 167 48q102 0 140.5 -46t38.5 -129v-240h92v-226h-164v125h-124v323q0 40 -38 40q-35 0 -64 -18v-345h-196v500z" />
    <glyph glyph-name="odoublegrave" unicode="&#xe03a;" horiz-adv-x="530" 
d="M265 -16q-137 0 -192.5 65t-55.5 201t55.5 201t192.5 65t192.5 -65t55.5 -201t-55.5 -201t-192.5 -65zM100 546l-110 204h190l50 -204h-130zM300 546l-110 204h190l50 -204h-130zM265 132q33 0 45.5 25t12.5 93t-12.5 93t-45.5 25t-45.5 -25t-12.5 -93t12.5 -93t45.5 -25
z" />
    <glyph glyph-name="ocommaturnedabove" unicode="&#xe03b;" horiz-adv-x="530" 
d="M265 -16q-137 0 -192.5 65t-55.5 201t55.5 201t192.5 65t192.5 -65t55.5 -201t-55.5 -201t-192.5 -65zM229 750h146l-20 -204h-186zM265 132q33 0 45.5 25t12.5 93t-12.5 93t-45.5 25t-45.5 -25t-12.5 -93t12.5 -93t45.5 -25z" />
    <glyph glyph-name="otildemacron" unicode="&#xe03c;" horiz-adv-x="530" 
d="M265 -16q-137 0 -192.5 65t-55.5 201t55.5 201t192.5 65t192.5 -65t55.5 -201t-55.5 -201t-192.5 -65zM43 563v20q0 89 36.5 132t101.5 43q29 0 54 -11t38.5 -25t29.5 -25t31 -11q44 0 44 47h109v-20q0 -89 -36.5 -132t-101.5 -43q-29 0 -54 11t-38.5 25t-29.5 25t-31 11
q-44 0 -44 -47h-109zM421 913v-130h-312v130h312zM265 132q33 0 45.5 25t12.5 93t-12.5 93t-45.5 25t-45.5 -25t-12.5 -93t12.5 -93t45.5 -25z" />
    <glyph glyph-name="odotabove" unicode="&#xe03d;" horiz-adv-x="530" 
d="M265 132q33 0 45.5 25t12.5 93t-12.5 93t-45.5 25t-45.5 -25t-12.5 -93t12.5 -93t45.5 -25zM265 -16q-137 0 -192.5 65t-55.5 201t55.5 201t192.5 65t192.5 -65t55.5 -201t-55.5 -201t-192.5 -65zM155 648q0 46 32 78t78 32t78 -32t32 -78t-32 -78t-78 -32t-78 32t-32 78
z" />
    <glyph glyph-name="odotabovemacron" unicode="&#xe03e;" horiz-adv-x="530" 
d="M265 -16q-137 0 -192.5 65t-55.5 201t55.5 201t192.5 65t192.5 -65t55.5 -201t-55.5 -201t-192.5 -65zM421 913v-130h-312v130h312zM155 648q0 46 32 78t78 32t78 -32t32 -78t-32 -78t-78 -32t-78 32t-32 78zM265 132q33 0 45.5 25t12.5 93t-12.5 93t-45.5 25t-45.5 -25
t-12.5 -93t12.5 -93t45.5 -25z" />
    <glyph glyph-name="ocedilla" unicode="&#xe03f;" horiz-adv-x="530" 
d="M265 132q33 0 45.5 25t12.5 93t-12.5 93t-45.5 25t-45.5 -25t-12.5 -93t12.5 -93t45.5 -25zM265 -16q-137 0 -192.5 65t-55.5 201t55.5 201t192.5 65t192.5 -65t55.5 -201t-55.5 -201t-192.5 -65zM217 -84l7 50q187 -14 187 -111q0 -53 -39.5 -79t-106.5 -26
q-66 0 -104 16v98q36 -11 79 -11q52 0 52 25q0 28 -75 38z" />
    <glyph glyph-name="ounderlineaccent" unicode="&#xe040;" horiz-adv-x="530" 
d="M265 -16q-137 0 -192.5 65t-55.5 201t55.5 201t192.5 65t192.5 -65t55.5 -201t-55.5 -201t-192.5 -65zM265 132q33 0 45.5 25t12.5 93t-12.5 93t-45.5 25t-45.5 -25t-12.5 -93t12.5 -93t45.5 -25zM215 -46h100v-204h-100v204z" />
    <glyph glyph-name="barredo" unicode="&#xe041;" horiz-adv-x="530" 
d="M265 -16q-137 0 -192.5 65t-55.5 201t55.5 201t192.5 65t192.5 -65t55.5 -201t-55.5 -201t-192.5 -65zM265 368q-24 0 -37 -12.5t-18 -43.5h109q-4 31 -16.5 43.5t-37.5 12.5zM265 132q25 0 37.5 12.5t16.5 43.5h-109q5 -31 17.5 -43.5t37.5 -12.5z" />
    <glyph glyph-name="pmacron" unicode="&#xe042;" horiz-adv-x="555" 
d="M32 500h130l21 -33q73 49 158 49q100 0 148.5 -62.5t48.5 -203.5t-48.5 -203.5t-148.5 -62.5q-61 0 -113 27v-261h-196v750zM441 713v-130h-312v130h312zM228 353v-205q22 -15 53 -15q38 0 51.5 26t13.5 91q0 66 -13.5 92t-51.5 26q-31 0 -53 -15z" />
    <glyph glyph-name="rdoublegrave" unicode="&#xe043;" horiz-adv-x="387" 
d="M379 508l-2 -161q-16 4 -49 4q-64 0 -100 -25v-326h-196v500h130l18 -32q55 48 145 48q38 0 54 -8zM38 546l-110 204h190l50 -204h-130zM238 546l-110 204h190l50 -204h-130z" />
    <glyph glyph-name="rcedilla" unicode="&#xe044;" horiz-adv-x="387" 
d="M379 508l-2 -161q-16 4 -49 4q-64 0 -100 -25v-326h-196v500h130l18 -32q55 48 145 48q38 0 54 -8zM82 -84l7 50q187 -14 187 -111q0 -53 -39.5 -79t-106.5 -26q-66 0 -104 16v98q36 -11 79 -11q52 0 52 25q0 28 -75 38z" />
    <glyph glyph-name="tcedilla" unicode="&#xe045;" horiz-adv-x="406" 
d="M382 144l3 -146q-39 -14 -108 -14q-105 0 -151 44t-46 134v189h-79v122l79 22v100l196 52v-147h114v-149h-114v-167q0 -47 50 -47q28 0 56 7zM192 -84l7 50q187 -14 187 -111q0 -53 -39.5 -79t-106.5 -26q-66 0 -104 16v98q36 -11 79 -11q52 0 52 25q0 28 -75 38z" />
    <glyph glyph-name="udoublegrave" unicode="&#xe046;" horiz-adv-x="554" 
d="M522 0h-130l-18 32q-77 -48 -167 -48q-102 0 -140.5 46t-38.5 129v341h196v-323q0 -40 38 -40q35 0 64 18v345h196v-500zM110 546l-110 204h190l50 -204h-130zM310 546l-110 204h190l50 -204h-130z" />
    <glyph glyph-name="umacronbelow" unicode="&#xe047;" horiz-adv-x="554" 
d="M522 0h-130l-18 32q-77 -48 -167 -48q-102 0 -140.5 46t-38.5 129v341h196v-323q0 -40 38 -40q35 0 64 18v345h196v-500zM121 -213v130h312v-130h-312z" />
    <glyph glyph-name="ymacron" unicode="&#xe048;" horiz-adv-x="542" 
d="M-3 500h211l63 -288l66 288h207l-268 -750h-221l116 257zM428 713v-130h-312v130h312z" />
    <glyph glyph-name="cordinal" unicode="&#xe049;" horiz-adv-x="337" 
d="M246 493q33 0 65 8l2 -128q-39 -12 -103 -12q-195 0 -195 203q0 202 195 202q64 0 103 -12l-2 -128q-32 8 -65 8q-78 0 -78 -70q0 -71 78 -71z" />
    <glyph glyph-name="a.school" unicode="&#xe04a;" horiz-adv-x="555" 
d="M327 147v205q-23 15 -53 15q-38 0 -51.5 -26t-13.5 -91q0 -66 13.5 -92t51.5 -26q30 0 53 15zM523 500v-500h-130l-21 33q-74 -49 -158 -49q-100 0 -148.5 62.5t-48.5 203.5t48.5 203.5t148.5 62.5q86 0 158 -50l21 34h130z" />
    <glyph glyph-name="aacute.school" unicode="&#xe04b;" horiz-adv-x="555" 
d="M523 500v-500h-130l-21 33q-74 -49 -158 -49q-100 0 -148.5 62.5t-48.5 203.5t48.5 203.5t148.5 62.5q86 0 158 -50l21 34h130zM335 546h-130l50 204h190zM327 147v205q-23 15 -53 15q-38 0 -51.5 -26t-13.5 -91q0 -66 13.5 -92t51.5 -26q30 0 53 15z" />
    <glyph glyph-name="agrave.school" unicode="&#xe04c;" horiz-adv-x="555" 
d="M523 500v-500h-130l-21 33q-74 -49 -158 -49q-100 0 -148.5 62.5t-48.5 203.5t48.5 203.5t148.5 62.5q86 0 158 -50l21 34h130zM205 546l-110 204h190l50 -204h-130zM327 147v205q-23 15 -53 15q-38 0 -51.5 -26t-13.5 -91q0 -66 13.5 -92t51.5 -26q30 0 53 15z" />
    <glyph glyph-name="acircumflex.school" unicode="&#xe04d;" horiz-adv-x="555" 
d="M327 147v205q-23 15 -53 15q-38 0 -51.5 -26t-13.5 -91q0 -66 13.5 -92t51.5 -26q30 0 53 15zM523 500v-500h-130l-21 33q-74 -49 -158 -49q-100 0 -148.5 62.5t-48.5 203.5t48.5 203.5t148.5 62.5q86 0 158 -50l21 34h130zM195 546h-135l136 204h148l136 -204h-135
l-75 80z" />
    <glyph glyph-name="adieresis.school" unicode="&#xe04e;" horiz-adv-x="555" 
d="M327 147v205q-23 15 -53 15q-38 0 -51.5 -26t-13.5 -91q0 -66 13.5 -92t51.5 -26q30 0 53 15zM523 500v-500h-130l-21 33q-74 -49 -158 -49q-100 0 -148.5 62.5t-48.5 203.5t48.5 203.5t148.5 62.5q86 0 158 -50l21 34h130zM35 648q0 46 32 78t78 32t78 -32t32 -78
t-32 -78t-78 -32t-78 32t-32 78zM285 648q0 46 32 78t78 32t78 -32t32 -78t-32 -78t-78 -32t-78 32t-32 78z" />
    <glyph glyph-name="atilde.school" unicode="&#xe04f;" horiz-adv-x="555" 
d="M327 147v205q-23 15 -53 15q-38 0 -51.5 -26t-13.5 -91q0 -66 13.5 -92t51.5 -26q30 0 53 15zM523 500v-500h-130l-21 33q-74 -49 -158 -49q-100 0 -148.5 62.5t-48.5 203.5t48.5 203.5t148.5 62.5q86 0 158 -50l21 34h130zM48 563v20q0 89 36.5 132t101.5 43
q29 0 54 -11t38.5 -25t29.5 -25t31 -11q44 0 44 47h109v-20q0 -89 -36.5 -132t-101.5 -43q-29 0 -54 11t-38.5 25t-29.5 25t-31 11q-44 0 -44 -47h-109z" />
    <glyph glyph-name="aring.school" unicode="&#xe050;" horiz-adv-x="555" 
d="M327 147v205q-23 15 -53 15q-38 0 -51.5 -26t-13.5 -91q0 -66 13.5 -92t51.5 -26q30 0 53 15zM523 500v-500h-130l-21 33q-74 -49 -158 -49q-100 0 -148.5 62.5t-48.5 203.5t48.5 203.5t148.5 62.5q86 0 158 -50l21 34h130zM270 537q-116 0 -116 110q0 111 116 111
t116 -110q0 -111 -116 -111zM270 620q28 0 28 27t-28 27t-28 -26q0 -28 28 -28z" />
    <glyph glyph-name="acaron.school" unicode="&#xe051;" horiz-adv-x="555" 
d="M327 147v205q-23 15 -53 15q-38 0 -51.5 -26t-13.5 -91q0 -66 13.5 -92t51.5 -26q30 0 53 15zM523 500v-500h-130l-21 33q-74 -49 -158 -49q-100 0 -148.5 62.5t-48.5 203.5t48.5 203.5t148.5 62.5q86 0 158 -50l21 34h130zM345 750h135l-136 -204h-148l-136 204h135
l75 -80z" />
    <glyph glyph-name="amacron.school" unicode="&#xe052;" horiz-adv-x="555" 
d="M523 500v-500h-130l-21 33q-74 -49 -158 -49q-100 0 -148.5 62.5t-48.5 203.5t48.5 203.5t148.5 62.5q86 0 158 -50l21 34h130zM426 713v-130h-312v130h312zM327 147v205q-23 15 -53 15q-38 0 -51.5 -26t-13.5 -91q0 -66 13.5 -92t51.5 -26q30 0 53 15z" />
    <glyph glyph-name="abreve.school" unicode="&#xe053;" horiz-adv-x="555" 
d="M327 147v205q-23 15 -53 15q-38 0 -51.5 -26t-13.5 -91q0 -66 13.5 -92t51.5 -26q30 0 53 15zM523 500v-500h-130l-21 33q-74 -49 -158 -49q-100 0 -148.5 62.5t-48.5 203.5t48.5 203.5t148.5 62.5q86 0 158 -50l21 34h130zM270 546q-109 0 -159 48t-51 156h124
q0 -44 19 -62t67 -18t67 18t19 62h124q-1 -108 -51 -156t-159 -48z" />
    <glyph glyph-name="ainvertedbreve.school" unicode="&#xe054;" horiz-adv-x="555" 
d="M327 147v205q-23 15 -53 15q-38 0 -51.5 -26t-13.5 -91q0 -66 13.5 -92t51.5 -26q30 0 53 15zM523 500v-500h-130l-21 33q-74 -49 -158 -49q-100 0 -148.5 62.5t-48.5 203.5t48.5 203.5t148.5 62.5q86 0 158 -50l21 34h130zM270 750q109 0 159 -48t51 -156h-124
q0 44 -19 62t-67 18t-67 -18t-19 -62h-124q1 108 51 156t159 48z" />
    <glyph glyph-name="adoublegrave.school" unicode="&#xe055;" horiz-adv-x="555" 
d="M523 500v-500h-130l-21 33q-74 -49 -158 -49q-100 0 -148.5 62.5t-48.5 203.5t48.5 203.5t148.5 62.5q86 0 158 -50l21 34h130zM105 546l-110 204h190l50 -204h-130zM305 546l-110 204h190l50 -204h-130zM327 147v205q-23 15 -53 15q-38 0 -51.5 -26t-13.5 -91
q0 -66 13.5 -92t51.5 -26q30 0 53 15z" />
    <glyph glyph-name="adotabove.school" unicode="&#xe056;" horiz-adv-x="555" 
d="M327 147v205q-23 15 -53 15q-38 0 -51.5 -26t-13.5 -91q0 -66 13.5 -92t51.5 -26q30 0 53 15zM523 500v-500h-130l-21 33q-74 -49 -158 -49q-100 0 -148.5 62.5t-48.5 203.5t48.5 203.5t148.5 62.5q86 0 158 -50l21 34h130zM160 648q0 46 32 78t78 32t78 -32t32 -78
t-32 -78t-78 -32t-78 32t-32 78z" />
    <glyph glyph-name="aringacute.school" unicode="&#xe057;" horiz-adv-x="555" 
d="M523 500v-500h-130l-21 33q-74 -49 -158 -49q-100 0 -148.5 62.5t-48.5 203.5t48.5 203.5t148.5 62.5q86 0 158 -50l21 34h130zM154 647v1q0 25 4 41l37 146h170l-45 -83q66 -20 66 -104q0 -111 -116 -111t-116 110zM327 147v205q-23 15 -53 15q-38 0 -51.5 -26
t-13.5 -91q0 -66 13.5 -92t51.5 -26q30 0 53 15zM270 625q23 0 23 22q0 23 -23 23t-23 -22q0 -23 23 -23z" />
    <glyph glyph-name="adieresismacron.school" unicode="&#xe058;" horiz-adv-x="555" 
d="M523 500v-500h-130l-21 33q-74 -49 -158 -49q-100 0 -148.5 62.5t-48.5 203.5t48.5 203.5t148.5 62.5q86 0 158 -50l21 34h130zM426 913v-130h-312v130h312zM285 648q0 46 32 78t78 32t78 -32t32 -78t-32 -78t-78 -32t-78 32t-32 78zM35 648q0 46 32 78t78 32t78 -32
t32 -78t-32 -78t-78 -32t-78 32t-32 78zM327 147v205q-23 15 -53 15q-38 0 -51.5 -26t-13.5 -91q0 -66 13.5 -92t51.5 -26q30 0 53 15z" />
    <glyph glyph-name="aogonek.school" unicode="&#xe059;" horiz-adv-x="555" 
d="M523 500v-500q-53 -14 -81.5 -42t-28.5 -57q0 -46 60 -46q30 0 60 9v-98q-41 -16 -102 -16q-71 0 -114.5 32t-43.5 91q0 89 107 147l-8 13q-74 -49 -158 -49q-100 0 -148.5 62.5t-48.5 203.5t48.5 203.5t148.5 62.5q86 0 158 -50l21 34h130zM327 147v205q-23 15 -53 15
q-38 0 -51.5 -26t-13.5 -91q0 -66 13.5 -92t51.5 -26q30 0 53 15z" />
    <glyph glyph-name="g.school" unicode="&#xe05a;" horiz-adv-x="555" 
d="M393 500h130v-463q0 -36 -1.5 -61t-7 -59.5t-16.5 -58t-31 -48.5t-48 -40.5t-71 -25.5t-97 -10q-123 0 -204 31l2 161q93 -38 166 -38q59 0 85.5 19t26.5 62v41q-54 -26 -113 -26q-100 0 -148.5 62.5t-48.5 203.5t48.5 203.5t148.5 62.5q86 0 158 -50zM327 147v205
q-23 15 -53 15q-38 0 -51.5 -26t-13.5 -91t13.5 -91.5t51.5 -26.5q30 0 53 15z" />
    <glyph glyph-name="gacute.school" unicode="&#xe05b;" horiz-adv-x="555" 
d="M393 500h130v-463q0 -36 -1.5 -61t-7 -59.5t-16.5 -58t-31 -48.5t-48 -40.5t-71 -25.5t-97 -10q-123 0 -204 31l2 161q93 -38 166 -38q59 0 85.5 19t26.5 62v41q-54 -26 -113 -26q-100 0 -148.5 62.5t-48.5 203.5t48.5 203.5t148.5 62.5q86 0 158 -50zM335 546h-130
l50 204h190zM327 147v205q-23 15 -53 15q-38 0 -51.5 -26t-13.5 -91t13.5 -91.5t51.5 -26.5q30 0 53 15z" />
    <glyph glyph-name="gcircumflex.school" unicode="&#xe05c;" horiz-adv-x="555" 
d="M393 500h130v-463q0 -36 -1.5 -61t-7 -59.5t-16.5 -58t-31 -48.5t-48 -40.5t-71 -25.5t-97 -10q-123 0 -204 31l2 161q93 -38 166 -38q59 0 85.5 19t26.5 62v41q-54 -26 -113 -26q-100 0 -148.5 62.5t-48.5 203.5t48.5 203.5t148.5 62.5q86 0 158 -50zM327 147v205
q-23 15 -53 15q-38 0 -51.5 -26t-13.5 -91t13.5 -91.5t51.5 -26.5q30 0 53 15zM195 546h-135l136 204h148l136 -204h-135l-75 80z" />
    <glyph glyph-name="gtilde.school" unicode="&#xe05d;" horiz-adv-x="555" 
d="M393 500h130v-463q0 -36 -1.5 -61t-7 -59.5t-16.5 -58t-31 -48.5t-48 -40.5t-71 -25.5t-97 -10q-123 0 -204 31l2 161q93 -38 166 -38q59 0 85.5 19t26.5 62v41q-54 -26 -113 -26q-100 0 -148.5 62.5t-48.5 203.5t48.5 203.5t148.5 62.5q86 0 158 -50zM327 147v205
q-23 15 -53 15q-38 0 -51.5 -26t-13.5 -91t13.5 -91.5t51.5 -26.5q30 0 53 15zM48 563v20q0 89 36.5 132t101.5 43q29 0 54 -11t38.5 -25t29.5 -25t31 -11q44 0 44 47h109v-20q0 -89 -36.5 -132t-101.5 -43q-29 0 -54 11t-38.5 25t-29.5 25t-31 11q-44 0 -44 -47h-109z" />
    <glyph glyph-name="gcaron.school" unicode="&#xe05e;" horiz-adv-x="555" 
d="M393 500h130v-463q0 -36 -1.5 -61t-7 -59.5t-16.5 -58t-31 -48.5t-48 -40.5t-71 -25.5t-97 -10q-123 0 -204 31l2 161q93 -38 166 -38q59 0 85.5 19t26.5 62v41q-54 -26 -113 -26q-100 0 -148.5 62.5t-48.5 203.5t48.5 203.5t148.5 62.5q86 0 158 -50zM327 147v205
q-23 15 -53 15q-38 0 -51.5 -26t-13.5 -91t13.5 -91.5t51.5 -26.5q30 0 53 15zM345 750h135l-136 -204h-148l-136 204h135l75 -80z" />
    <glyph glyph-name="gbreve.school" unicode="&#xe05f;" horiz-adv-x="555" 
d="M393 500h130v-463q0 -36 -1.5 -61t-7 -59.5t-16.5 -58t-31 -48.5t-48 -40.5t-71 -25.5t-97 -10q-123 0 -204 31l2 161q93 -38 166 -38q59 0 85.5 19t26.5 62v41q-54 -26 -113 -26q-100 0 -148.5 62.5t-48.5 203.5t48.5 203.5t148.5 62.5q86 0 158 -50zM327 147v205
q-23 15 -53 15q-38 0 -51.5 -26t-13.5 -91t13.5 -91.5t51.5 -26.5q30 0 53 15zM270 546q-109 0 -159 48t-51 156h124q0 -44 19 -62t67 -18t67 18t19 62h124q-1 -108 -51 -156t-159 -48z" />
    <glyph glyph-name="gdotaccent.school" unicode="&#xe060;" horiz-adv-x="555" 
d="M393 500h130v-463q0 -36 -1.5 -61t-7 -59.5t-16.5 -58t-31 -48.5t-48 -40.5t-71 -25.5t-97 -10q-123 0 -204 31l2 161q93 -38 166 -38q59 0 85.5 19t26.5 62v41q-54 -26 -113 -26q-100 0 -148.5 62.5t-48.5 203.5t48.5 203.5t148.5 62.5q86 0 158 -50zM327 147v205
q-23 15 -53 15q-38 0 -51.5 -26t-13.5 -91t13.5 -91.5t51.5 -26.5q30 0 53 15zM160 648q0 46 32 78t78 32t78 -32t32 -78t-32 -78t-78 -32t-78 32t-32 78z" />
    <glyph glyph-name="gcommaaccent.school" unicode="&#xe061;" horiz-adv-x="555" 
d="M393 500h130v-463q0 -36 -1.5 -61t-7 -59.5t-16.5 -58t-31 -48.5t-48 -40.5t-71 -25.5t-97 -10q-123 0 -204 31l2 161q93 -38 166 -38q59 0 85.5 19t26.5 62v41q-54 -26 -113 -26q-100 0 -148.5 62.5t-48.5 203.5t48.5 203.5t148.5 62.5q86 0 158 -50zM234 750h146
l-20 -204h-186zM327 147v205q-23 15 -53 15q-38 0 -51.5 -26t-13.5 -91t13.5 -91.5t51.5 -26.5q30 0 53 15z" />
    <glyph glyph-name="gcommaturnedabove.school" unicode="&#xe062;" horiz-adv-x="555" 
d="M393 500h130v-463q0 -36 -1.5 -61t-7 -59.5t-16.5 -58t-31 -48.5t-48 -40.5t-71 -25.5t-97 -10q-123 0 -204 31l2 161q93 -38 166 -38q59 0 85.5 19t26.5 62v41q-54 -26 -113 -26q-100 0 -148.5 62.5t-48.5 203.5t48.5 203.5t148.5 62.5q86 0 158 -50zM234 750h146
l-20 -204h-186zM327 147v205q-23 15 -53 15q-38 0 -51.5 -26t-13.5 -91t13.5 -91.5t51.5 -26.5q30 0 53 15z" />
    <glyph glyph-name="gstroke.school" unicode="&#xe063;" horiz-adv-x="555" 
d="M393 500h130v-463q0 -35 -1 -53h74v-124h-98q-54 -126 -247 -126q-123 0 -204 31l2 161q93 -38 166 -38q59 0 85.5 19t26.5 62v41q-54 -26 -113 -26q-100 0 -148.5 62.5t-48.5 203.5t48.5 203.5t148.5 62.5q86 0 158 -50zM327 147v205q-23 15 -53 15q-38 0 -51.5 -26
t-13.5 -91t13.5 -91.5t51.5 -26.5q30 0 53 15z" />
    <glyph glyph-name="y.school" unicode="&#xe064;" horiz-adv-x="554" 
d="M522 -1q0 -43 -5.5 -77t-22.5 -70.5t-46 -61t-79 -40.5t-118 -16q-126 0 -204 30l2 162q102 -41 184 -38q49 1 71 21t22 60v38q-58 -23 -119 -23q-102 0 -140.5 46t-38.5 129v341h196v-323q0 -40 38 -40q35 0 64 18v345h196v-501z" />
    <glyph glyph-name="yacute.school" unicode="&#xe065;" horiz-adv-x="554" 
d="M522 -1q0 -43 -5.5 -77t-22.5 -70.5t-46 -61t-79 -40.5t-118 -16q-126 0 -204 30l2 162q102 -41 184 -38q49 1 71 21t22 60v38q-58 -23 -119 -23q-102 0 -140.5 46t-38.5 129v341h196v-323q0 -40 38 -40q35 0 64 18v345h196v-501zM340 546h-130l50 204h190z" />
    <glyph glyph-name="ygrave.school" unicode="&#xe066;" horiz-adv-x="554" 
d="M522 -1q0 -43 -5.5 -77t-22.5 -70.5t-46 -61t-79 -40.5t-118 -16q-126 0 -204 30l2 162q102 -41 184 -38q49 1 71 21t22 60v38q-58 -23 -119 -23q-102 0 -140.5 46t-38.5 129v341h196v-323q0 -40 38 -40q35 0 64 18v345h196v-501zM210 546l-110 204h190l50 -204h-130z
" />
    <glyph glyph-name="ycircumflex.school" unicode="&#xe067;" horiz-adv-x="554" 
d="M522 -1q0 -43 -5.5 -77t-22.5 -70.5t-46 -61t-79 -40.5t-118 -16q-126 0 -204 30l2 162q102 -41 184 -38q49 1 71 21t22 60v38q-58 -23 -119 -23q-102 0 -140.5 46t-38.5 129v341h196v-323q0 -40 38 -40q35 0 64 18v345h196v-501zM200 546h-135l136 204h148l136 -204
h-135l-75 80z" />
    <glyph glyph-name="ydieresis.school" unicode="&#xe068;" horiz-adv-x="554" 
d="M522 -1q0 -43 -5.5 -77t-22.5 -70.5t-46 -61t-79 -40.5t-118 -16q-126 0 -204 30l2 162q102 -41 184 -38q49 1 71 21t22 60v38q-58 -23 -119 -23q-102 0 -140.5 46t-38.5 129v341h196v-323q0 -40 38 -40q35 0 64 18v345h196v-501zM40 648q0 46 32 78t78 32t78 -32t32 -78
t-32 -78t-78 -32t-78 32t-32 78zM290 648q0 46 32 78t78 32t78 -32t32 -78t-32 -78t-78 -32t-78 32t-32 78z" />
    <glyph glyph-name="ytilde.school" unicode="&#xe069;" horiz-adv-x="554" 
d="M522 -1q0 -43 -5.5 -77t-22.5 -70.5t-46 -61t-79 -40.5t-118 -16q-126 0 -204 30l2 162q102 -41 184 -38q49 1 71 21t22 60v38q-58 -23 -119 -23q-102 0 -140.5 46t-38.5 129v341h196v-323q0 -40 38 -40q35 0 64 18v345h196v-501zM53 563v20q0 89 36.5 132t101.5 43
q29 0 54 -11t38.5 -25t29.5 -25t31 -11q44 0 44 47h109v-20q0 -89 -36.5 -132t-101.5 -43q-29 0 -54 11t-38.5 25t-29.5 25t-31 11q-44 0 -44 -47h-109z" />
    <glyph glyph-name="ymacron.school" unicode="&#xe06a;" horiz-adv-x="554" 
d="M522 -1q0 -43 -5.5 -77t-22.5 -70.5t-46 -61t-79 -40.5t-118 -16q-126 0 -204 30l2 162q102 -41 184 -38q49 1 71 21t22 60v38q-58 -23 -119 -23q-102 0 -140.5 46t-38.5 129v341h196v-323q0 -40 38 -40q35 0 64 18v345h196v-501zM431 713v-130h-312v130h312z" />
    <glyph glyph-name="ordfeminine.school" unicode="&#xe06b;" horiz-adv-x="438" 
d="M21 563q0 109 38 156t115 47q53 0 107 -34l10 19h117v-376h-117l-10 19q-53 -33 -107 -33q-78 0 -115.5 46.5t-37.5 155.5zM176 563q0 -44 10.5 -60.5t31.5 -16.5q19 0 37 10v135q-18 10 -37 10q-21 0 -31.5 -16.5t-10.5 -61.5z" />
    <glyph glyph-name="a.small" unicode="&#xe06c;" horiz-adv-x="586" 
d="M355 80h-124l-16 -80h-209l146 504h282l146 -504h-209zM331 194l-38 186l-38 -186h76z" />
    <glyph glyph-name="b.small" unicode="&#xe06d;" horiz-adv-x="555" 
d="M46 0v500h291q98 0 138.5 -37t40.5 -104q0 -56 -42 -87q27 -13 43 -42t16 -66q0 -164 -188 -164h-299zM347 168q0 41 -33 41h-82v-80h83q32 0 32 39zM337 334q0 37 -31 37h-74v-76h73q32 0 32 39z" />
    <glyph glyph-name="c.small" unicode="&#xe06e;" horiz-adv-x="505" 
d="M32 250q0 266 268 266q100 0 168 -30l-3 -163q-66 24 -137 24q-104 0 -104 -97t104 -97q71 0 137 24l3 -163q-68 -30 -168 -30q-268 0 -268 266z" />
    <glyph glyph-name="d.small" unicode="&#xe06f;" horiz-adv-x="573" 
d="M291 0h-245v500h245q252 0 252 -250t-252 -250zM242 150h33q40 0 56 25t16 75t-16 75t-56 25h-33v-200z" />
    <glyph glyph-name="e.small" unicode="&#xe070;" horiz-adv-x="528" 
d="M460 301v-102h-218v-51h246v-148h-442v500h442v-148h-246v-51h218z" />
    <glyph glyph-name="f.small" unicode="&#xe071;" horiz-adv-x="495" 
d="M442 281v-125h-200v-156h-196v500h424v-159h-228v-60h200z" />
    <glyph glyph-name="g.small" unicode="&#xe072;" horiz-adv-x="570" 
d="M326 141q17 0 25 2v60h-44v94h222v-278q-88 -35 -218 -35q-279 0 -279 266q0 132 68.5 199t223.5 67q131 0 197 -31l-2 -157q-81 25 -167 25q-70 0 -99 -23.5t-29 -79.5q0 -54 23.5 -81.5t78.5 -27.5z" />
    <glyph glyph-name="h.small" unicode="&#xe073;" horiz-adv-x="610" 
d="M564 0h-196v177h-126v-177h-196v500h196v-170h126v170h196v-500z" />
    <glyph glyph-name="i.small" unicode="&#xe074;" horiz-adv-x="298" 
d="M247 0h-196v500h196v-500z" />
    <glyph glyph-name="j.small" unicode="&#xe075;" horiz-adv-x="415" 
d="M16 3l3 162q45 -14 89 -14q70 0 70 55v294h196v-325q0 -92 -59.5 -141.5t-176.5 -49.5q-77 0 -122 19z" />
    <glyph glyph-name="k.small" unicode="&#xe076;" horiz-adv-x="606" 
d="M587 500l-183 -221l198 -279h-247l-91 164l-25 -27l3 -137h-196v500h196l-3 -159l107 159h241z" />
    <glyph glyph-name="l.small" unicode="&#xe077;" horiz-adv-x="476" 
d="M242 500v-341h216v-159h-412v500h196z" />
    <glyph glyph-name="m.small" unicode="&#xe078;" horiz-adv-x="764" 
d="M382 240l69 260h267v-500h-196l9 269l-69 -245h-160l-69 245l9 -269h-196v500h267z" />
    <glyph glyph-name="n.small" unicode="&#xe079;" horiz-adv-x="620" 
d="M574 0h-158l-184 227l10 -227h-196v500h158l184 -227l-10 227h196v-500z" />
    <glyph glyph-name="o.small" unicode="&#xe07a;" horiz-adv-x="620" 
d="M396 250q0 57 -20 84t-66 27t-66 -27t-20 -84t20 -84t66 -27t66 27t20 84zM588 250q0 -135 -67 -200.5t-211 -65.5t-211 65.5t-67 200.5t67 200.5t211 65.5t211 -65.5t67 -200.5z" />
    <glyph glyph-name="p.small" unicode="&#xe07b;" horiz-adv-x="538" 
d="M338 137h-96v-137h-196v500h292q103 0 146.5 -48.5t43.5 -136.5q0 -87 -43 -132.5t-147 -45.5zM340 310q0 53 -43 53h-55v-106h55q43 0 43 53z" />
    <glyph glyph-name="q.small" unicode="&#xe07c;" horiz-adv-x="620" 
d="M32 250q0 135 67 200.5t211 65.5t211 -65.5t67 -200.5q0 -137 -69 -202v-1l142 -32l-2 -181l-472 166q-80 28 -117.5 86.5t-37.5 163.5zM396 250q0 57 -20 84t-66 27t-66 -27t-20 -84t20 -84t66 -27t66 27t20 84z" />
    <glyph glyph-name="r.small" unicode="&#xe07d;" horiz-adv-x="571" 
d="M283 152h-41v-152h-196v500h305q103 0 146 -46.5t43 -129.5q0 -45 -18.5 -83t-53.5 -57l84 -184h-221zM348 319q0 48 -42 50h-64v-102h66q40 0 40 52z" />
    <glyph glyph-name="s.small" unicode="&#xe07e;" horiz-adv-x="530" 
d="M272 363q-52 0 -52 -28q0 -11 6.5 -17t14.5 -8t25 -4q57 -5 88 -9.5t63.5 -14t47 -24t24 -38.5t9.5 -60q0 -176 -236 -176q-57 0 -123.5 10t-98.5 24l3 157q101 -39 212 -39q30 0 44 6t14 22q0 17 -10.5 22.5t-34.5 8.5q-134 12 -182.5 38.5t-48.5 106.5q0 176 226 176
q55 0 121 -9t95 -22l-2 -157q-40 15 -100.5 25t-104.5 10z" />
    <glyph glyph-name="t.small" unicode="&#xe07f;" horiz-adv-x="520" 
d="M503 341h-146v-341h-196v341h-146v159h488v-159z" />
    <glyph glyph-name="u.small" unicode="&#xe080;" 
d="M300 -16q-259 0 -259 207v309h196v-292q0 -31 14 -45.5t49 -14.5t49 14.5t14 45.5v292h196v-309q0 -207 -259 -207z" />
    <glyph glyph-name="v.small" unicode="&#xe081;" horiz-adv-x="584" 
d="M369 500h210l-182 -504h-210l-182 504h210l77 -296z" />
    <glyph glyph-name="w.small" unicode="&#xe082;" horiz-adv-x="786" 
d="M458 -4l-65 289l-65 -289h-214l-106 504h199l34 -287l60 287h184l60 -287l34 287h199l-106 -504h-214z" />
    <glyph glyph-name="x.small" unicode="&#xe083;" horiz-adv-x="630" 
d="M381 0l-66 144l-66 -144h-236l166 262l-158 238h232l62 -137l62 137h232l-158 -238l166 -262h-236z" />
    <glyph glyph-name="y.small" unicode="&#xe084;" 
d="M398 0h-196l5 180l-201 320h216l78 -185l78 185h216l-201 -320z" />
    <glyph glyph-name="z.small" unicode="&#xe085;" horiz-adv-x="535" 
d="M508 0h-486v124l215 215l-196 -3v164h454v-124l-215 -215l228 3v-164z" />
    <glyph glyph-name="aacute.small" unicode="&#xe086;" horiz-adv-x="586" 
d="M358 546h-130l50 204h190zM355 80h-124l-16 -80h-209l146 504h282l146 -504h-209zM331 194l-38 186l-38 -186h76z" />
    <glyph glyph-name="agrave.small" unicode="&#xe087;" horiz-adv-x="586" 
d="M228 546l-110 204h190l50 -204h-130zM355 80h-124l-16 -80h-209l146 504h282l146 -504h-209zM331 194l-38 186l-38 -186h76z" />
    <glyph glyph-name="acircumflex.small" unicode="&#xe088;" horiz-adv-x="586" 
d="M218 546h-135l136 204h148l136 -204h-135l-75 80zM355 80h-124l-16 -80h-209l146 504h282l146 -504h-209zM331 194l-38 186l-38 -186h76z" />
    <glyph glyph-name="adieresis.small" unicode="&#xe089;" horiz-adv-x="586" 
d="M308 648q0 46 32 78t78 32t78 -32t32 -78t-32 -78t-78 -32t-78 32t-32 78zM58 648q0 46 32 78t78 32t78 -32t32 -78t-32 -78t-78 -32t-78 32t-32 78zM355 80h-124l-16 -80h-209l146 504h282l146 -504h-209zM331 194l-38 186l-38 -186h76z" />
    <glyph glyph-name="atilde.small" unicode="&#xe08a;" horiz-adv-x="586" 
d="M71 563v20q0 89 36.5 132t101.5 43q29 0 54 -11t38.5 -25t29.5 -25t31 -11q44 0 44 47h109v-20q0 -89 -36.5 -132t-101.5 -43q-29 0 -54 11t-38.5 25t-29.5 25t-31 11q-44 0 -44 -47h-109zM355 80h-124l-16 -80h-209l146 504h282l146 -504h-209zM331 194l-38 186
l-38 -186h76z" />
    <glyph glyph-name="aring.small" unicode="&#xe08b;" horiz-adv-x="586" 
d="M293 537q-116 0 -116 110q0 111 116 111t116 -110q0 -111 -116 -111zM293 620q28 0 28 27t-28 27t-28 -26q0 -28 28 -28zM355 80h-124l-16 -80h-209l146 504h282l146 -504h-209zM331 194l-38 186l-38 -186h76z" />
    <glyph glyph-name="acaron.small" unicode="&#xe08c;" horiz-adv-x="586" 
d="M368 750h135l-136 -204h-148l-136 204h135l75 -80zM355 80h-124l-16 -80h-209l146 504h282l146 -504h-209zM331 194l-38 186l-38 -186h76z" />
    <glyph glyph-name="amacron.small" unicode="&#xe08d;" horiz-adv-x="586" 
d="M449 713v-130h-312v130h312zM355 80h-124l-16 -80h-209l146 504h282l146 -504h-209zM331 194l-38 186l-38 -186h76z" />
    <glyph glyph-name="abreve.small" unicode="&#xe08e;" horiz-adv-x="586" 
d="M293 546q-109 0 -159 48t-51 156h124q0 -44 19 -62t67 -18t67 18t19 62h124q-1 -108 -51 -156t-159 -48zM355 80h-124l-16 -80h-209l146 504h282l146 -504h-209zM331 194l-38 186l-38 -186h76z" />
    <glyph glyph-name="ainvertedbreve.small" unicode="&#xe08f;" horiz-adv-x="586" 
d="M293 750q109 0 159 -48t51 -156h-124q0 44 -19 62t-67 18t-67 -18t-19 -62h-124q1 108 51 156t159 48zM355 80h-124l-16 -80h-209l146 504h282l146 -504h-209zM331 194l-38 186l-38 -186h76z" />
    <glyph glyph-name="adoublegrave.small" unicode="&#xe090;" horiz-adv-x="586" 
d="M128 546l-110 204h190l50 -204h-130zM328 546l-110 204h190l50 -204h-130zM355 80h-124l-16 -80h-209l146 504h282l146 -504h-209zM331 194l-38 186l-38 -186h76z" />
    <glyph glyph-name="adotabove.small" unicode="&#xe091;" horiz-adv-x="586" 
d="M183 648q0 46 32 78t78 32t78 -32t32 -78t-32 -78t-78 -32t-78 32t-32 78zM355 80h-124l-16 -80h-209l146 504h282l146 -504h-209zM331 194l-38 186l-38 -186h76z" />
    <glyph glyph-name="aringacute.small" unicode="&#xe092;" horiz-adv-x="586" 
d="M177 647v1q0 25 4 41l37 146h170l-45 -83q66 -20 66 -104q0 -111 -116 -111t-116 110zM293 620q28 0 28 27t-28 27t-28 -26q0 -28 28 -28zM355 80h-124l-16 -80h-209l146 504h282l146 -504h-209zM331 194l-38 186l-38 -186h76z" />
    <glyph glyph-name="adieresismacron.small" unicode="&#xe093;" horiz-adv-x="586" 
d="M449 913v-130h-312v130h312zM308 648q0 46 32 78t78 32t78 -32t32 -78t-32 -78t-78 -32t-78 32t-32 78zM58 648q0 46 32 78t78 32t78 -32t32 -78t-32 -78t-78 -32t-78 32t-32 78zM355 80h-124l-16 -80h-209l146 504h282l146 -504h-209zM331 194l-38 186l-38 -186h76z" />
    <glyph glyph-name="aogonek.small" unicode="&#xe094;" horiz-adv-x="586" 
d="M355 80h-124l-16 -80h-209l146 504h282l146 -504q-53 -14 -81.5 -42t-28.5 -57q0 -46 60 -46q30 0 60 9v-98q-41 -16 -102 -16q-71 0 -114.5 32t-43.5 91q0 58 46 104zM331 194l-38 186l-38 -186h76z" />
    <glyph glyph-name="anocross.small" unicode="&#xe095;" horiz-adv-x="586" 
d="M293 380l-78 -380h-209l146 504h282l146 -504h-209z" />
    <glyph glyph-name="ae.small" unicode="&#xe096;" horiz-adv-x="812" 
d="M744 301v-102h-204l6 -51h226v-148h-408l-10 80h-117l-24 -80h-212l198 500h573v-148h-251l7 -51h216zM323 375l-53 -181h70z" />
    <glyph glyph-name="aeacute.small" unicode="&#xe097;" horiz-adv-x="812" 
d="M450 546h-130l50 204h190zM744 301v-102h-204l6 -51h226v-148h-408l-10 80h-117l-24 -80h-212l198 500h573v-148h-251l7 -51h216zM323 375l-53 -181h70z" />
    <glyph glyph-name="aemacron.small" unicode="&#xe098;" horiz-adv-x="812" 
d="M546 713v-130h-312v130h312zM744 301v-102h-204l6 -51h226v-148h-408l-10 80h-117l-24 -80h-212l198 500h573v-148h-251l7 -51h216zM323 375l-53 -181h70z" />
    <glyph glyph-name="cacute.small" unicode="&#xe099;" horiz-adv-x="505" 
d="M32 250q0 266 268 266q100 0 168 -30l-3 -163q-66 24 -137 24q-104 0 -104 -97t104 -97q71 0 137 24l3 -163q-68 -30 -168 -30q-268 0 -268 266zM335 546h-130l50 204h190z" />
    <glyph glyph-name="ccircumflex.small" unicode="&#xe09a;" horiz-adv-x="505" 
d="M32 250q0 266 268 266q100 0 168 -30l-3 -163q-66 24 -137 24q-104 0 -104 -97t104 -97q71 0 137 24l3 -163q-68 -30 -168 -30q-268 0 -268 266zM195 546h-135l136 204h148l136 -204h-135l-75 80z" />
    <glyph glyph-name="ccaron.small" unicode="&#xe09b;" horiz-adv-x="505" 
d="M32 250q0 266 268 266q100 0 168 -30l-3 -163q-66 24 -137 24q-104 0 -104 -97t104 -97q71 0 137 24l3 -163q-68 -30 -168 -30q-268 0 -268 266zM345 750h135l-136 -204h-148l-136 204h135l75 -80z" />
    <glyph glyph-name="cdotaccent.small" unicode="&#xe09c;" horiz-adv-x="505" 
d="M32 250q0 266 268 266q100 0 168 -30l-3 -163q-66 24 -137 24q-104 0 -104 -97t104 -97q71 0 137 24l3 -163q-68 -30 -168 -30q-268 0 -268 266zM160 648q0 46 32 78t78 32t78 -32t32 -78t-32 -78t-78 -32t-78 32t-32 78z" />
    <glyph glyph-name="ccedilla.small" unicode="&#xe09d;" horiz-adv-x="505" 
d="M222 -84l7 73q-197 31 -197 261q0 266 268 266q100 0 168 -30l-3 -163q-66 24 -137 24q-104 0 -104 -97t104 -97q71 0 137 24l3 -163q-62 -27 -155 -30l2 -31q101 -26 101 -98q0 -53 -39.5 -79t-106.5 -26q-66 0 -104 16v98q36 -11 79 -11q52 0 52 25q0 28 -75 38z" />
    <glyph glyph-name="dcaron.small" unicode="&#xe09e;" horiz-adv-x="573" 
d="M291 0h-245v500h245q252 0 252 -250t-252 -250zM242 150h33q40 0 56 25t16 75t-16 75t-56 25h-33v-200zM345 750h135l-136 -204h-148l-136 204h135l75 -80z" />
    <glyph glyph-name="dcedilla.small" unicode="&#xe09f;" horiz-adv-x="573" 
d="M291 0h-245v500h245q252 0 252 -250t-252 -250zM242 150h33q40 0 56 25t16 75t-16 75t-56 25h-33v-200zM222 -84l7 50q187 -14 187 -111q0 -53 -39.5 -79t-106.5 -26q-66 0 -104 16v98q36 -11 79 -11q52 0 52 25q0 28 -75 38z" />
    <glyph glyph-name="ddotbelow.small" unicode="&#xe0a0;" horiz-adv-x="573" 
d="M291 0h-245v500h245q252 0 252 -250t-252 -250zM242 150h33q40 0 56 25t16 75t-16 75t-56 25h-33v-200zM396 -148q0 -46 -32 -78t-78 -32t-78 32t-32 78t32 78t78 32t78 -32t32 -78z" />
    <glyph glyph-name="dcroat.small" unicode="&#xe0a1;" horiz-adv-x="593" 
d="M5 189v124h61v187h245q252 0 252 -250t-252 -250h-245v189h-61zM262 150h33q40 0 56 25t16 75t-16 75t-56 25h-33v-37h64v-124h-64v-39z" />
    <glyph glyph-name="eacute.small" unicode="&#xe0a2;" horiz-adv-x="528" 
d="M342 546h-130l50 204h190zM460 301v-102h-218v-51h246v-148h-442v500h442v-148h-246v-51h218z" />
    <glyph glyph-name="egrave.small" unicode="&#xe0a3;" horiz-adv-x="528" 
d="M212 546l-110 204h190l50 -204h-130zM460 301v-102h-218v-51h246v-148h-442v500h442v-148h-246v-51h218z" />
    </font>
</defs>
</svg>
