<svg width="235" height="40" viewBox="0 0 235 40" fill="none" xmlns="http://www.w3.org/2000/svg">
<path fill-rule="evenodd" clip-rule="evenodd" d="M127.846 22.4001H132.14L130.002 15.9496L127.846 22.4001ZM125 27L129.57 14H130.432L135 27H133.675L132.484 23.4079H127.52L126.329 27H125Z" fill="white"/>
<path fill-rule="evenodd" clip-rule="evenodd" d="M146.967 23.7757V14.9673H148.15V23.9673C148.15 27.6894 145.103 28.2494 143.534 28.2494C141.969 28.2494 138.92 27.6894 138.92 23.9673V14.9673H140.103V23.7757C140.103 26.921 142.369 27.1504 143.534 27.1504C144.703 27.1504 146.967 26.921 146.967 23.7757Z" fill="white"/>
<path fill-rule="evenodd" clip-rule="evenodd" d="M154.284 18.4634C154.284 20.3329 155.362 20.5097 157.419 20.7708C159.978 21.1013 161.563 21.7308 161.563 24.2992C161.563 26.0824 160.623 28.2487 156.739 28.2487C155.539 28.2487 153.898 27.9182 153.082 27.5497V26.4129C153.917 26.6929 154.943 27.1497 156.756 27.1497C159.473 27.1497 160.291 25.8739 160.291 24.2992C160.291 22.4297 159.525 22.0634 157.349 21.7834C154.265 21.4003 153.082 20.6824 153.082 18.4445C153.082 16.9266 153.812 14.7939 157.471 14.7939C159.072 14.7939 160.153 15.0739 160.866 15.4066V16.5771C159.68 16.0676 158.743 15.895 157.452 15.895C154.873 15.895 154.284 17.0845 154.284 18.4634Z" fill="white"/>
<path fill-rule="evenodd" clip-rule="evenodd" d="M170.237 16.0682V28.0745H169.054V16.0682H165.447V14.9692H173.844V16.0682H170.237Z" fill="white"/>
<path fill-rule="evenodd" clip-rule="evenodd" d="M179.782 21.2408H183.004C185.323 21.2408 185.671 20.0534 185.671 18.6534C185.671 17.2556 185.323 16.0682 183.004 16.0682H179.782V21.2408ZM179.782 28.0745H178.598V14.9692H182.692C185.948 14.9692 186.957 16.4008 186.957 18.6534C186.957 20.4029 186.349 21.6598 184.555 22.1334L187.673 28.0745H186.296L183.372 22.3271C183.179 22.3419 182.986 22.3419 182.797 22.3419H179.782V28.0745Z" fill="white"/>
<path fill-rule="evenodd" clip-rule="evenodd" d="M194.203 23.375H198.538L196.379 16.7855L194.203 23.375ZM191.331 28.0739L195.945 14.7939H196.815L201.431 28.0739H200.091L198.886 24.4045H193.872L192.671 28.0739H191.331Z" fill="white"/>
<path fill-rule="evenodd" clip-rule="evenodd" d="M207.144 26.973H213.187V28.074H205.961V14.9688H207.144V26.973Z" fill="white"/>
<mask id="mask0" mask-type="alpha" maskUnits="userSpaceOnUse" x="0" y="0" width="235" height="40">
<path fill-rule="evenodd" clip-rule="evenodd" d="M0 39.9998H234.49V0.509277H0V39.9998Z" fill="white"/>
</mask>
<g mask="url(#mask0)">
<path fill-rule="evenodd" clip-rule="evenodd" d="M218.309 28.0756H219.53V14.9683H218.309V28.0756Z" fill="white"/>
<path fill-rule="evenodd" clip-rule="evenodd" d="M227.262 23.375H231.597L229.438 16.7855L227.262 23.375ZM224.39 28.0739L229.004 14.7939H229.874L234.49 28.0739H233.15L231.945 24.4045H226.931L225.73 28.0739H224.39Z" fill="white"/>
<path fill-rule="evenodd" clip-rule="evenodd" d="M20.164 1.30908L15.8291 14.4501H1.7207L13.0762 22.3912L8.80847 35.5301L20.164 27.3933L31.3811 35.5301L27.0462 22.3912L38.4688 14.4501H24.4968" fill="white"/>
<path fill-rule="evenodd" clip-rule="evenodd" d="M20.1636 1.30908C30.7617 1.30908 39.4336 9.85013 39.4336 20.2543C39.4336 30.6607 30.7617 39.1343 20.1636 39.1343C15.8287 39.1343 11.9743 37.7996 8.80811 35.5301L20.1636 27.3933L31.3807 35.5301L27.0458 22.3912L38.4685 14.4501L13.0759 22.3912L15.8287 14.4501H24.4965" fill="#DB1F38"/>
<path fill-rule="evenodd" clip-rule="evenodd" d="M20.1637 1.30908C9.42714 1.30908 0.891602 9.85013 0.891602 20.2543C0.891602 26.528 3.99066 32.1301 8.80816 35.5301L13.0759 22.3912L1.7204 14.4501H15.8288" fill="#0F1127"/>
<path fill-rule="evenodd" clip-rule="evenodd" d="M-0.000976562 20.2541C-0.000976562 31.1277 9.01505 39.9993 20.1629 39.9993C31.2456 39.9993 40.3288 31.1277 40.3288 20.2541C40.3288 9.31511 31.2456 0.508789 20.1629 0.508789C9.01505 0.508789 -0.000976562 9.31511 -0.000976562 20.2541Z" fill="white"/>
<path fill-rule="evenodd" clip-rule="evenodd" d="M20.164 1.30908L15.8291 14.4501H1.7207L13.0762 22.3912L8.80847 35.5301L20.164 27.3933L31.3811 35.5301L27.0462 22.3912L38.4688 14.4501H24.4968" fill="white"/>
<path fill-rule="evenodd" clip-rule="evenodd" d="M20.1636 1.30908C30.7617 1.30908 39.4336 9.85013 39.4336 20.2543C39.4336 30.6607 30.7617 39.1343 20.1636 39.1343C15.8287 39.1343 11.9743 37.7996 8.80811 35.5301L20.1636 27.3933L31.3807 35.5301L27.0458 22.3912L38.4685 14.4501L13.0759 22.3912L15.8287 14.4501H24.4965" fill="#DB1F38"/>
<path fill-rule="evenodd" clip-rule="evenodd" d="M20.1637 1.30908C9.42714 1.30908 0.891602 9.85013 0.891602 20.2543C0.891602 26.528 3.99066 32.1301 8.80816 35.5301L13.0759 22.3912L1.7204 14.4501H15.8288" fill="#0F1127"/>
<path fill-rule="evenodd" clip-rule="evenodd" d="M77.6269 14.4502H74.6685V27.5281H82.306V24.9934H77.6269" fill="white"/>
<path fill-rule="evenodd" clip-rule="evenodd" d="M81.0674 16.8539H84.3028V27.5255H87.2613V16.8539H90.4947V14.4497H81.0674" fill="white"/>
<path fill-rule="evenodd" clip-rule="evenodd" d="M65.2407 14.4502L60.2847 27.5281H63.5201L66.7556 17.7849L70.0582 27.5281H73.2915L68.3376 14.4502" fill="white"/>
<path fill-rule="evenodd" clip-rule="evenodd" d="M63.5195 27.5259H70.0576L66.8914 24.9912" fill="white"/>
<path fill-rule="evenodd" clip-rule="evenodd" d="M95.3144 24.9908V22.056H99.513V19.5213H95.3144V16.8518H99.7186V14.4497H92.356V27.5255H99.0996L101.095 24.9908" fill="white"/>
<path fill-rule="evenodd" clip-rule="evenodd" d="M109.903 20.3879L114.236 14.4531H110.384L108.183 18.0552L105.912 14.4531H102.127L106.324 20.3879L100.887 27.5268H104.672L108.183 23.0573L111.622 27.5268H115.409" fill="white"/>
<path fill-rule="evenodd" clip-rule="evenodd" d="M56.6368 24.9909C54.2301 24.9909 52.304 23.1235 52.304 20.9888C52.304 18.654 54.2301 16.9866 56.6368 16.9866C57.4656 16.9866 58.4979 17.1866 59.3204 17.5866V14.7845C58.563 14.3172 57.5999 14.0498 56.5004 14.0498C52.5075 14.0498 49.3413 17.1866 49.3413 20.9888C49.3413 24.7235 52.5075 27.7256 56.5004 27.7256C57.325 27.7256 58.4979 27.6603 59.3204 27.393V24.3909V24.2561C58.4979 24.7235 57.4656 24.9909 56.6368 24.9909Z" fill="white"/>
</g>
</svg>
