<svg width="177" height="56" viewBox="0 0 177 56" fill="none" xmlns="http://www.w3.org/2000/svg">
<path d="M82.6178 9.41563H82.2791L82.1973 9.85057H82.5361C82.6879 9.85057 82.8164 9.85056 82.8398 9.62722C82.8631 9.40388 82.7697 9.41563 82.6178 9.41563Z" fill="#9129FF"/>
<path d="M82.6651 8.83985C82.3556 8.84684 82.0571 8.95672 81.8162 9.15236C81.5753 9.34799 81.4055 9.61836 81.3333 9.92129C81.3024 10.0561 81.303 10.1962 81.335 10.3307C81.3671 10.4653 81.4298 10.5904 81.5181 10.6964C81.6065 10.8024 81.7181 10.8863 81.8441 10.9415C81.9702 10.9967 82.1073 11.0217 82.2446 11.0145C82.5551 11.0049 82.8538 10.8925 83.0945 10.6949C83.3353 10.4973 83.5046 10.2254 83.5763 9.92129C83.6077 9.78706 83.6074 9.6473 83.5753 9.51324C83.5432 9.37918 83.4803 9.25455 83.3917 9.14937C83.3031 9.0442 83.1912 8.96141 83.065 8.90765C82.9388 8.85389 82.8018 8.83067 82.6651 8.83985ZM83.0156 9.62742C82.9965 9.72554 82.9425 9.81329 82.8637 9.87427C82.8136 9.91924 82.7535 9.95149 82.6885 9.96831L82.8403 10.5208H82.6651L82.5249 10.0036H82.1628L82.0693 10.5208H81.8707L82.1044 9.26302H82.6184C82.6746 9.25831 82.731 9.26643 82.7836 9.28679C82.8362 9.30715 82.8836 9.3392 82.9221 9.38057C82.9476 9.41578 82.9659 9.45573 82.9759 9.4981C82.9859 9.54047 82.9875 9.58443 82.9806 9.62742" fill="#9129FF"/>
<path d="M10.4908 0L8.98379 9.50966L2.3482 43.869L0.0117188 56L20.8415 44.0453H168.542L177 0H10.4908ZM10.6077 0.940385L10.7128 0.270361L10.6077 0.940385ZM26.4023 35.2057H15.2806L20.3975 8.74559H24.5097L20.1639 31.2443H27.2551L26.4023 35.2057ZM32.9094 35.2057H28.8322L33.9725 8.78085H38.0847L32.9094 35.2057ZM40.1875 35.2057L40.4211 8.7691H44.7319L44.1712 29.3753L51.6012 8.7691H55.9237L45.8885 35.241L40.1875 35.2057ZM53.2134 35.2057L58.3186 8.7691H63.4355L59.148 16.9034H60.8653L57.3606 35.2057H53.2134ZM73.9146 35.2057H69.4869L67.1505 18.267L63.8794 35.2057H59.7672L63.2719 16.8799H64.9892L63.821 8.74559H69.4402L71.4613 26.5306L74.8959 8.74559H79.0081L73.9146 35.2057ZM82.1857 11.1201C82.0359 11.1274 81.8864 11.1008 81.7481 11.0424C81.6098 10.984 81.4863 10.8952 81.3866 10.7824C81.2869 10.6697 81.2135 10.5359 81.1719 10.391C81.1302 10.246 81.1214 10.0935 81.146 9.94458C81.2409 9.61097 81.4396 9.31677 81.713 9.10519C81.9863 8.89362 82.3199 8.77582 82.6647 8.7691C82.8141 8.76139 82.9634 8.78776 83.1013 8.84625C83.2392 8.90475 83.3621 8.99384 83.461 9.10688C83.5599 9.21991 83.6321 9.35398 83.6722 9.49904C83.7123 9.6441 83.7193 9.79641 83.6927 9.94458C83.6018 10.2782 83.4057 10.5731 83.134 10.7851C82.8622 10.997 82.5295 11.1146 82.1857 11.1201ZM168.32 43.7515H83.5058L91.9055 0.258603H176.638L168.32 43.7515Z" fill="#9129FF"/>
<path d="M117.572 8.86328L113.191 24.3326H113.109L114.289 8.86328H109.242L104.639 24.3326H104.558L105.959 8.86328H100.843L99.8262 35.488H105.212L109.534 19.7718H109.604L108.191 35.488H113.611L122.654 8.86328H117.572Z" fill="#9129FF"/>
<path d="M131.825 24.1446L132.747 19.3603H127.514L128.577 13.8708H135.096L136.065 8.86328H124.196L119.056 35.488H131.287L132.257 30.4804H125.364L126.591 24.1446H131.825Z" fill="#9129FF"/>
<path d="M143.659 8.86328H138.32L133.18 35.488H145.119L146.089 30.4922H139.488L143.659 8.86328Z" fill="#9129FF"/>
<path d="M157.105 8.86328H151.755L146.614 35.488H158.554L159.523 30.4922H152.923L157.105 8.86328Z" fill="#9129FF"/>
<path d="M85.2929 53.6842H85.2812L85.3279 49.1938H84.3116L83.0732 55.5532H83.7158L84.7088 50.4046H84.7205L84.6737 55.5532H85.1761L87.092 50.4046H87.1154L86.1223 55.5532H86.7649L87.9915 49.1938H86.9752L85.2929 53.6842Z" fill="#9129FF"/>
<path d="M88.167 55.5415H90.632L90.7605 54.8832H89.0081L89.4521 52.5792H90.7254L90.8539 51.9327H89.5689L89.9778 49.8639H91.625L91.7535 49.1938H89.3936L88.167 55.5415Z" fill="#9129FF"/>
<path d="M94.289 53.3315H94.2656L93.9035 49.1938H92.9806L91.7539 55.5415H92.3848L93.3544 50.5809H93.3661L93.8451 55.5415H94.4993L95.7259 49.1938H95.0834L94.289 53.3315Z" fill="#9129FF"/>
<path d="M99.5924 49.1938H96.8353L96.7068 49.8639H97.7349L96.6367 55.5415H97.3493L98.4475 49.8639H99.4639L99.5924 49.1938Z" fill="#9129FF"/>
<path d="M98.8447 55.5414H99.5574L100.177 53.79H101.427L101.356 55.5414H102.081L102.174 49.1938H101.17L98.8447 55.5414ZM101.567 49.8286L101.438 53.1435H100.398L101.567 49.8286Z" fill="#9129FF"/>
<path d="M105.153 49.1938H104.441L103.214 55.5415H105.609L105.737 54.8832H104.055L105.153 49.1938Z" fill="#9129FF"/>
<path d="M111.298 51.8975H110.037L110.562 49.1938H109.85L108.623 55.5532H109.336L109.92 52.544H111.17L110.597 55.5532H111.298L112.525 49.1938H111.824L111.298 51.8975Z" fill="#9129FF"/>
<path d="M115.259 52.5792L115.387 51.9327H114.102L114.511 49.8639H116.158L116.287 49.1938H113.927L112.7 55.5532H115.165L115.294 54.8832H113.541L113.985 52.5792H115.259Z" fill="#9129FF"/>
<path d="M116.158 55.5414H116.918L117.537 53.79H118.787L118.717 55.5414H119.429L119.534 49.1938H118.53L116.158 55.5414ZM118.88 49.8286L118.752 53.1435H117.712L118.88 49.8286Z" fill="#9129FF"/>
<path d="M122.467 49.1938H121.754L120.527 55.5415H122.922L123.051 54.8832H121.368L122.467 49.1938Z" fill="#9129FF"/>
<path d="M124.535 49.1938L124.406 49.8639H125.434L124.336 55.5415H125.049L126.147 49.8639H127.175L127.303 49.1938H124.535Z" fill="#9129FF"/>
<path d="M129.85 51.8975H128.6L129.114 49.1938H128.401L127.175 55.5532H127.887L128.472 52.544H129.733L129.149 55.5532H129.85L131.077 49.1938H130.376L129.85 51.8975Z" fill="#9129FF"/>
<path d="M136.52 53.9546H136.508L136.859 49.1938H136.065L134.593 53.9546H134.581L134.943 49.1938H134.23L133.903 55.5415H134.674L136.158 50.6867H136.181L135.808 55.5415H136.59L138.693 49.1938H137.98L136.52 53.9546Z" fill="#9129FF"/>
<path d="M141.135 49.1353C140.072 49.1353 139.453 50.0639 139.009 52.3678C138.565 54.6718 138.811 55.6239 139.874 55.6239C140.937 55.6239 141.568 54.5895 141.988 52.3678C142.409 50.1462 142.198 49.1353 141.135 49.1353ZM141.252 52.3678C140.902 54.2133 140.505 54.9892 140.002 54.9892C139.5 54.9892 139.406 54.2133 139.757 52.3678C140.107 50.5223 140.458 49.7935 141.007 49.7935C141.556 49.7935 141.614 50.5106 141.252 52.3678Z" fill="#9129FF"/>
<path d="M144.956 49.1938H143.904L142.619 55.5414H143.332L143.893 52.6615H144.418L144.675 55.5414H145.446L145.131 52.4029C145.447 52.2689 145.723 52.0522 145.928 51.7753C146.133 51.4983 146.262 51.1712 146.299 50.8278C146.521 49.6523 146.077 49.1938 144.944 49.1938H144.956ZM145.551 50.8865C145.388 51.7329 145.037 52.062 144.512 52.062H144.056L144.488 49.8521H144.769C145.446 49.8521 145.715 50.0755 145.551 50.9101" fill="#9129FF"/>
<path d="M150.668 49.1938H149.932L147.993 52.1561H147.969L148.542 49.1938H147.864L146.638 55.5415H147.315L147.724 53.4256L148.495 52.2971L148.834 55.5415H149.582L149.138 51.4743L150.668 49.1938Z" fill="#9129FF"/>
<path d="M152.876 49.1353C152.491 49.1427 152.123 49.2934 151.842 49.5584C151.562 49.8233 151.389 50.1835 151.357 50.5693C151.006 52.4031 152.899 52.6264 152.607 54.1663C152.502 54.6718 152.21 54.9892 151.789 54.9892C151.369 54.9892 151.228 54.6718 151.322 53.8137H150.656C150.481 54.9892 150.749 55.5416 151.649 55.5416C152.067 55.5402 152.469 55.3812 152.776 55.0962C153.083 54.8111 153.273 54.4207 153.308 54.0018C153.682 52.121 151.766 51.8976 152.058 50.4753C152.14 50.0169 152.373 49.7465 152.771 49.7465C153.168 49.7465 153.308 50.1462 153.203 50.922H153.857C154.021 49.8288 153.787 49.1823 152.876 49.1823" fill="#9129FF"/>
<path d="M156.872 51.8975H155.622L156.136 49.1938H155.423L154.208 55.5532H154.909L155.493 52.544H156.755L156.171 55.5532H156.872L158.098 49.1938H157.397L156.872 51.8975Z" fill="#9129FF"/>
<path d="M160.867 49.1353C159.804 49.1353 159.196 50.0639 158.752 52.3678C158.308 54.6718 158.554 55.6239 159.617 55.6239C160.68 55.6239 161.299 54.5895 161.731 52.3678C162.164 50.1462 161.93 49.1353 160.867 49.1353ZM160.995 52.3678C160.633 54.2133 160.248 54.9892 159.745 54.9892C159.243 54.9892 159.15 54.2133 159.5 52.3678C159.85 50.5223 160.201 49.7935 160.738 49.7935C161.276 49.7935 161.357 50.5106 160.995 52.3678Z" fill="#9129FF"/>
<path d="M164.664 49.1938H163.648L162.421 55.5414H163.134L163.659 52.7908H164.056C164.563 52.805 165.057 52.6246 165.436 52.2862C165.816 51.9479 166.054 51.4769 166.101 50.9688C166.334 49.7933 165.856 49.1938 164.699 49.1938H164.664ZM165.353 50.9688C165.236 51.6271 164.909 52.1443 164.185 52.1443H163.753L164.197 49.8639H164.57C165.213 49.8639 165.482 50.146 165.318 50.9688" fill="#9129FF"/>
</svg>
